<?xml version="1.0" encoding="UTF-8"?>
<svg id="Camada_1" xmlns="http://www.w3.org/2000/svg" version="1.1" viewBox="0 0 1000 1000">
  <!-- Generator: Adobe Illustrator 29.2.1, SVG Export Plug-In . SVG Version: 2.1.0 Build 116)  -->
  <defs>
    <style>
      .st0 {
        fill: #525151;
      }

      .st1 {
        fill: #fff;
      }

      .st1, .st2 {
        display: none;
      }

      .st3 {
        fill: #5f933c;
      }
    </style>
  </defs>
  <rect class="st0" x="1178.61" width="315.87" height="257.67"/>
  <rect class="st3" x="1178.61" y="315.38" width="315.87" height="266.03"/>
  <g class="st2">
    <path class="st3" d="M345.65,61.29c34.14-5.37,86.79,19.16,116.22,36.55,13.25,7.83,23.67,13.44,25.62,30.48,2.46,21.49,2.71,84.76-.19,105.79-1.52,11.02-10.42,24.59-21.24,28.63-44.11,7.81-93.93,36.67-136.38,44.37-38.8,7.03-49.85-24.68-73.01-43.55-7.06-5.75-20.43-13.58-28.94-16.77-9.77-3.66-31.89-4.01-31.19-16.47.27-4.89,22.51-35.37,26.77-44.1,7.37-15.12,10.18-31.38,18.59-45.82,16.89-29.04,70.22-73.82,103.75-79.1Z"/>
    <path class="st3" d="M628.32,61.37c42.09-5.08,87.12,27.16,113.72,57.57,20.94,23.94,21.79,41.06,34.55,67.26,4.72,9.68,25.22,36.39,26.42,42.34,2.9,14.36-19.35,13.99-29.36,17.63-44.47,16.17-53.85,66.33-103.43,60.92-41.72-18.19-93.86-26.55-134.92-43.75-11.05-4.63-20.34-15.46-22.38-27.49-3.43-20.19-2.6-83.86-.58-105.55,1.02-10.92,5.09-19.02,13.92-25.56,19.36-14.32,78.56-40.55,102.06-43.39Z"/>
    <path class="st0" d="M319.18,58.7c-53.06,8.18-91.16,61.94-111.13,108.1-4.22,9.76-6.1,21.59-10.42,31.13-12.88,28.43-54.28,67.52-79.01,87.22-1.93,1.54-14.23,12.03-15.52,10.43l-8.41-79.9C87.09,94.58,169.32,5.54,293.27,46.18c8.01,2.63,19.94,6.95,25.9,12.52Z"/>
    <path class="st0" d="M896.8,295.58c-1.29,1.6-13.59-8.89-15.52-10.43-24.28-19.34-66.4-59.4-79.01-87.22-4.32-9.54-6.18-21.4-10.42-31.13-20.21-46.33-57.72-99.74-111.13-108.1-2.51-1.96,21.86-10.95,24.5-11.84,47.59-16.13,86.88-16.84,130.65,9.43,83.58,50.16,72.46,155.6,60.93,239.29Z"/>
    <path class="st0" d="M819.35,262.76c3.68-.83,7.45-1.12,10.94.66l61.19,44.78c11.74,38.81,44.57,90.72,48.72,129.97,2.06,19.54-4.09,78.92-8.95,98.59-5.35,21.65-24.39,13.02-36.53,2.99-40.68-33.58-87.38-145.36-91.47-197.34-.99-12.62-1.91-53.29.51-64.05,1.27-5.65,9.93-14.32,15.6-15.6Z"/>
    <path class="st0" d="M171.05,262.73c10.62-3.23,23.77,7.01,25.42,17.39,5.52,34.83-1.92,79.11-11.79,112.64-13.32,45.23-42.76,116.69-79.49,147-13.32,10.99-31.85,18.41-36.93-4.67-4.03-18.32-7.94-55.09-8.89-74.22-2.55-51.29,33.2-103.35,48.17-151.48l63.52-46.65Z"/>
    <path class="st0" d="M484.91,980.76c-5.81,5.84-14.34,1.76-18.66-4.24-9.8-13.63-27.09-53.24-33.8-70.09-17.8-44.68-28.08-96.14-30.25-144.29-.84-18.61-4.83-65.52,11.83-75.61,9.47-5.74,50.23-6.26,61.9-4.35,5.07.83,10.61,3.78,11.51,9.27l.13,278.47c-.27,3.24-.35,8.51-2.66,10.83Z"/>
    <path class="st0" d="M522.21,682.51c10.56-2.32,53.17-1.5,62.3,3.3,18.45,9.71,13.99,55.05,13.2,74.27-2.32,56.06-14.7,111.18-37.13,162.34-5.68,12.95-19.48,43.84-26.93,54.11-7.94,10.95-18.89,8.39-21.34-4.5v-276.58c-.91-6.69,3.63-11.56,9.9-12.94Z"/>
    <path class="st0" d="M472.46,285.55c5.81-2.11,13.94,5.72,14.97,11.12,2.15,11.28,1.55,62.19.09,74.8-.45,3.94-1.25,7.5-4.11,10.43-5.23,5.35-46.21,12.18-57.26,15.46-19.19,5.7-36.76,15.14-55.63,20.45-20.45-9.89-48.48-64.33-36.94-83.93,4.22-7.17,13.92-6.39,20.48-8.61,39.42-13.39,79.01-26.25,118.4-39.72Z"/>
    <path class="st0" d="M522.22,285.56l141.97,46.3c14.45,14.78-6.51,54.59-17.07,68.3-4.57,5.95-15.3,19.23-23.02,17.69-14.47-6.36-29.01-13.61-44.08-18.45-12.37-3.97-60.86-12.07-65.67-19.52-1.52-2.35-1.69-3.61-2.04-6.27-1.55-11.87-1.92-68.32.15-79.02.99-5.12,5.07-7.42,9.76-9.03Z"/>
    <path class="st0" d="M416.28,528.78c8.17-1.64,53.79-1.99,61.81-.44,7.58,1.46,8.89,8.81,9.49,15.44,2.32,25.56,2.86,85.31-.05,110.27-.48,4.12-2.31,10.53-6.28,12.42-3.88,1.85-56.49,1.99-63.26.92-10.46-1.66-16.97-11.76-17.88-21.6-1.93-20.94-2.78-80.03.23-99.7,1.28-8.4,7.49-15.62,15.93-17.32Z"/>
    <path class="st0" d="M520.09,528.71c5.6-1.68,54.36-1.41,61.8-.27,12.03,1.84,16.81,10.25,17.9,21.58,2.13,22.21,2.51,76.05-.06,97.81-.82,6.91-6.63,15.53-13.05,18.12-5.84,2.36-63.19,2.84-68.04.54s-5.89-9.64-6.33-14.45c-2.33-25.61-2.86-85.24.05-110.27.55-4.71,2.66-11.54,7.72-13.06Z"/>
    <path class="st0" d="M283.25,678.19c3.66-1.04,5.05-.07,7.99,1.68,4.81,2.87,29.17,30.41,34.11,36.54,27.66,34.33,48.66,80.12,51.98,124.63,1.58,21.2,4.6,61.82-23.9,32.21-24.07-25.01-75.87-82.34-79.74-115.57-1.5-12.84.15-60.98,4.09-72.34,1.11-3.18,1.65-6.07,5.47-7.15Z"/>
    <path class="st0" d="M711.3,678.21c4.82-1.35,8.93.73,10.44,5.44,3.59,32.49,10.3,66.94-2.62,98.11-8.46,20.41-55.46,73.63-72.65,91.49-38.41,39.91-21.79-50.86-17.1-69.04,8.31-32.22,24.31-62.14,45.18-87.8,3.91-4.81,34.2-37.49,36.75-38.2Z"/>
    <path class="st0" d="M468.32,406.29c9.2-.96,15.77-1.59,19.11,8.83-2.08,25.66,2.99,55.97.09,81.02-2.25,19.4-20.04,11.23-32.14,11.31s-29.01,2.35-41.64,2.32c-15.52-.04-21.91-3.85-29.72-16.16-6.57-10.35-10.57-20.11-8.58-32.71,4.18-26.4,68.89-52.1,92.9-54.61Z"/>
    <path class="st0" d="M520.14,406.14c21.57-6.38,98.96,28.75,104,53.03,2.9,13.96-6.81,41.96-20.26,47.35-2.83,1.13-12.66,3.09-15.73,3.15-12.44.22-29.18-2.19-41.54-2.22-12.44-.03-31.93,8.44-34.22-11.32-1.86-16.03-2.12-63.38-.07-79.1.59-4.53,3.07-9.48,7.83-10.89Z"/>
    <path class="st0" d="M649.55,550.12c1.55-13.77,9.84-31.08,17.84-42.42,3.76-5.34,34.92-41.09,38.24-42.81s6.26.74,6.26,2.12v72.72c0,8.1-12.08,29.5-17.64,36.39-3.53,4.38-36.98,34.68-39.56,35.27-2.03.46-5.14-2.35-5.14-3.09,0-17.83-1.91-41.2,0-58.18Z"/>
    <path class="st0" d="M288.01,467.01c.66-2.34,3.43-3.58,6.26-2.12,3.33,1.72,34.46,37.46,38.24,42.81,6.93,9.83,17.84,30.64,17.84,42.42v58.18c0,.74-3.11,3.55-5.14,3.09-2.58-.59-36.06-30.99-39.56-35.27-5.56-6.8-17.64-28.37-17.64-36.39v-72.72Z"/>
    <path class="st0" d="M703.01,592.99c12.84-1.96,9.88,35.2,8.7,44.22-2.21,16.89-33.53,55.12-47.5,64.69-9.88,6.77-13.77,1.82-14.78-8.29-1.46-14.6-.96-39.95,5.29-53.13,3.85-8.12,33.6-37.91,41.58-43.59,2-1.42,4.24-3.52,6.71-3.9Z"/>
    <path class="st0" d="M293.63,592.99c4.01-.99,7.05,1.81,9.96,3.9,7.26,5.2,37.33,35.04,40.94,42.15,6.32,12.43,8.29,45.14,5.75,58.54-1.65,8.68-8.08,8.8-14.6,4.32-7.67-5.28-38.66-40.62-42.47-48.94-6.02-13.16-6.78-34.53-5.32-48.94.43-4.28.43-9.73,5.74-11.03Z"/>
    <path class="st0" d="M952.91,433.76c-1.08-10.68-6.65-26.97-10.35-37.44-3.49-9.87-16.33-31.85-16.73-39.41-.26-4.92,2.98-3.89,6.3-2.11,14.63,7.87,32.98,43.76,37.99,59.66,12.2,38.74,16.56,79.36-12.05,111.74-1.76.78-5.17-2.47-5.17-3.11,0-27.63,2.69-62.79,0-89.35Z"/>
    <path class="st0" d="M46.98,523.11c-.32,1.11-3.38,3.72-5.17,3.11-28.3-32.44-24.24-73.02-12.05-111.74,5.01-15.9,23.36-51.79,37.99-59.66,3.32-1.79,6.56-2.81,6.3,2.11-.4,7.57-13.24,29.53-16.73,39.41-3.39,9.59-10.35,30.2-10.35,39.52v87.27Z"/>
    <path class="st0" d="M799.15,395.32c3.65-.7,4.19.9,5.78,3.57,5.44,9.16,11.16,32.34,16.1,44.15,8.08,19.3,17.28,38.15,25.93,57.19-1.61,2.97-5.41.36-7.39-.92-10.77-7.02-40.42-57.65-40.42-69.7v-34.28Z"/>
    <path class="st0" d="M200.74,395.32v34.28c0,11.76-29.76,62.75-40.42,69.7-1.98,1.29-5.78,3.89-7.39.92,8.65-19.04,17.85-37.89,25.93-57.19,4.95-11.81,10.66-35,16.1-44.15,1.59-2.67,2.13-4.27,5.78-3.57Z"/>
  </g>
  <path class="st0" d="M644.79,226.57c39.93-.23,103.28,50.86,121.55,84.84,8.72,16.23,12.23,34.72,21.85,52.28,3.91,7.14,21.66,30.6,22.3,35.08,2.02,14.12-16.28,12.63-25.99,16.21-10.19,3.76-17.72,7.39-26.74,13.5-26.11,17.7-42.3,57.46-80.81,50.71-42.91-7.52-94.31-37.55-139.04-45.25-12.13-5.13-21.98-18.13-23.77-31.3-2.85-20.92-2.6-82.22-.19-103.6,2.67-23.74,22.13-31.65,40.94-41.66,22.84-12.15,64.37-30.67,89.9-30.81Z"/>
  <path class="st0" d="M354.7,226.44c27.41-1.46,94.87,27.91,117.61,44.36,7.93,5.74,15.05,13.77,16.28,23.96,2.59,21.56,2.69,88.76-.24,109.99-4.3,31.25-33.29,31.16-56.5,38.81-29.93,9.86-77.75,30.61-106.31,35.62-41.31,7.25-62.26-46.41-99.67-61.5-10.54-4.25-35.74-4.96-33.51-18.64.9-5.49,21.64-32.84,26.18-41.72,8.22-16.08,11.06-32.89,19.72-48.05,18.85-33.02,77.57-80.77,116.44-82.84Z"/>
  <path class="st0" d="M905.75,467.43c-30.23-23.31-65.34-51.95-86.42-84.05-14.43-21.96-18.58-47.52-31.06-70.6-20-37-58.49-82.71-102.77-86.81,7.55-8.19,23.29-12.16,34.39-15.36,51.65-14.92,93.35-11.46,136.99,20.86,71.42,52.9,60.33,158.31,48.87,235.97Z"/>
  <path class="st0" d="M316.99,221.77c.52,5.64.08,3.43-3.19,4.17-52.73,11.93-90,62.55-110.09,110.22-4.38,10.39-5.69,21.39-10.54,31.82-11.48,24.71-65.72,80.54-88.96,95.3-2.61,1.66-4.12,2.68-7.48,2.04l-8.56-83.56c.78-63.09,12.22-122.49,69.32-157.48,55.26-33.85,101.71-23.75,159.5-2.5Z"/>
  <path class="st0" d="M900.94,478.6c17.43,53.33,52.47,103.71,49.29,161.42-.95,17.23-4.67,58.19-8.93,73.67-6.98,25.35-33.99,6.46-45.14-4.73-36.72-36.83-80.65-140.34-85.67-191.78-1.31-13.39-1.97-55.21.47-67.27,1.93-9.52,14.95-21.83,24.82-17.42l65.16,46.1Z"/>
  <path class="st0" d="M168.14,431.72c9.94-2.76,22.75,9.69,23.94,19.78,9.09,76.87-28.84,195.96-81.56,253.17-12.9,14-43.43,38.44-49.67,5.13-3.72-19.88-7.79-55.8-8.69-76.02-2.24-50.13,34.51-106.32,49.94-153.55l66.04-48.5Z"/>
  <path class="st3" d="M523.96,457.15l147.7,48.48c6.62,7.95,2.56,22.69-.02,31.59-3.57,12.33-27.17,57.08-41.77,54.81-31.02-19.59-68.29-21.55-101.1-32.47-9.42-3.14-13.56-3.63-14.86-14.79-1.8-15.43-1.83-56.7,0-72.1.82-6.9,3.91-12.07,10.06-15.52Z"/>
  <path class="st3" d="M334.53,504.03l144.02-46.82c2.15.33,6.79,3.04,8.03,4.77,6.07,8.48-.18,73.58,1.51,88.66-1.69,3.95-5.08,6.43-8.94,8.01-13.6,5.56-36.17,7.48-51.54,12-9.25,2.72-53.18,21.86-56.15,21.41-10.01-1.53-27.92-30.73-32.21-39.94-5.53-11.88-15.31-37.52-4.73-48.09Z"/>
  <path class="st3" d="M526.06,702.97c8.62-1.93,44.89-1.56,54.43-.27,15.82,2.15,23.78,12.83,24.55,28.4,1.16,23.42,1.34,58.91.07,82.48-1.02,18.94-6.18,31.12-26.47,33.03-10.34.97-43.85,1.61-52.98-.13-4.69-.89-8.81-5.91-11.26-9.92l-.48-118.21c.15-7.02,5.15-13.82,12.15-15.39Z"/>
  <path class="st3" d="M420.2,703.01c9.58-1.74,44.78-1.9,54.46-.37,5.62.89,10.84,4.8,13.45,9.85l.48,120.32c-.15,4.9-2.19,10-6.9,12.16-5.59,2.56-53.73,2.68-61.84,1.43-6.78-1.05-17.26-7.86-19.31-14.58l-.81-109.05c1.57-10.25,10.53-17.96,20.47-19.77Z"/>
  <path class="st3" d="M521.81,580.13c22.08-6.45,100.73,28.38,106.06,51.88,3.47,15.3-7.03,46.34-22.79,50.44-10.28,2.67-67.54,2.66-79.59,1.11-7.12-.91-10.75-4.6-11.65-11.65-1.95-15.19-1.98-65.56,0-80.7.6-4.61,3.11-9.67,7.97-11.08Z"/>
  <path class="st3" d="M485.92,582.3c2.78,2.77,2.46,9.37,2.71,13.18,1.39,20.5,1.7,54.03,0,74.3-.99,11.8-1.96,12.77-13.76,13.76-12.03,1.01-70.99,1.53-78.97-1.69-9.27-3.74-21.35-27.87-21.88-37.52-1.08-20.02,16.02-31.6,31.28-40.94,13.23-8.1,68.79-32.89,80.62-21.1Z"/>
  <path class="st0" d="M379.94,118.45c28.38-7.28,29.47,27.45,36.55,47.21,7.65,21.34,31.96,53.44-11.36,49.47-30.75-2.82-99.52-15.05-128.81-23.66-13.72-4.03-17.02-11.38-4.51-20.19,29.57-20.8,76.61-33.08,108.13-52.82Z"/>
  <path class="st0" d="M735.78,173.56c9.22,17.2-8.12,17.22-20.23,19.98-32.73,7.45-87.82,19.42-120.08,21.8-38.65,2.86-16.44-27.49-10-45.99,9.85-28.27,8.16-61.49,46.4-47.53,34.04,12.44,69.44,38.4,103.91,51.73Z"/>
  <path class="st0" d="M348.76,787.23c-3,.23-5.62.23-8.43-1.1-1.9-.9-28.94-24.41-31.86-27.44-27.26-28.21-26.35-73.03-23.35-110.29.51-6.33.51-11.77,8.64-8.43,13.07,18.89,35.31,35.65,45.56,56.11,1.94,3.87,9.45,23.75,9.45,26.56v64.6Z"/>
  <path class="st0" d="M717.28,638.98v77.3c0,4.51-8.13,22.22-11.01,27.11-4.76,8.05-38.31,41.49-45.48,43.52s-6.76-4.37-7.15-9.1c-4.88-58.89,5.8-85.08,45.61-126.15,4.89-5.05,10.62-13.32,18.03-12.68Z"/>
  <path class="st0" d="M423.94,65.06c2.41.02,27.2,32.63,30.32,37.42,22.43,34.52,28.15,84.93,44.44,123,.69,16.64-11.58,20.99-22.5,7.54-23.93-29.49-54.25-93.34-57.53-130.97-.52-5.99-2.04-37.04,5.26-36.99Z"/>
  <path class="st0" d="M583.84,67.12c2.7,2.74.6,35.06-.24,41.07-4.99,35.58-32.64,94.59-55.19,122.72-10.25,12.78-20.85,15.02-24.64-3.34,14.71-34.87,21.11-79.32,37.7-112.8,3.64-7.34,27.48-41.05,32.89-45.47,2.35-1.92,8.22-3.45,9.48-2.18Z"/>
  <path class="st0" d="M290.96,770.58c2.76-.76,4.4-.42,6.92.75,1.43.67,20.36,18.25,23.37,21.16,12.59,12.15,25.39,23.71,27.51,42.38.75,6.61.9,41.51-1.06,45.54-3.99,8.2-11.2,3.55-15.97-.98-18.72-17.81-43.99-43.74-46.48-70-.78-8.17-2.68-36.53,5.71-38.85Z"/>
  <path class="st0" d="M708.23,770.57c6.37-.97,8.42,3.72,9.15,9.15,1.88,14.13.54,39-5.4,51.98-3.43,7.51-36.4,45.16-43.29,49.88-23.28,15.96-15.39-45.96-11.1-57.68,4.83-13.2,32.13-41.04,43.81-49.36,2.04-1.45,4.33-3.59,6.84-3.97Z"/>
  <path class="st0" d="M962.96,700.4v-94.25c0-26.22-23.89-54.1-27.44-74.25-2.28-12.96,14.38,1.83,16.83,4.37,27.46,28.51,47.77,101.85,32.86,138.72-2.82,6.97-14.39,31.42-22.25,25.4Z"/>
  <path class="st0" d="M39.54,699.34c-.32,1.13-3.45,3.79-5.27,3.17-3.62-.76-16.42-27.58-18.11-32.74-11.33-34.52,6.71-99.01,29.78-127.11,2.57-3.13,21.02-24.09,23.26-12.7.43,2.18-16.53,32.76-19.13,40.14-3.97,11.31-10.53,33.14-10.53,44.53v84.72Z"/>
  <path class="st0" d="M806.23,569.09h6.32s42.34,104.86,42.34,104.86c-3.42,4.17-2.26,2.61-5.29,1.13-12.31-6.05-43.37-60.31-43.37-73.16v-32.83Z"/>
  <path class="st0" d="M196.27,569.09v34.95c0,11.88-31.36,66.41-42.33,72.05-3.69,1.9-4.02.4-6.34-2.15,9.92-18.12,18.38-37.17,26.36-56.21,5.04-12.04,10.87-35.67,16.42-45,1.62-2.72,2.17-4.36,5.89-3.64Z"/>
  <path class="st1" d="M671.79,167.09c-6.06-3.11-14.68-4.42-19.86-9.93-1.01-1.07-5.78-10.4-7.8-12.64,3.92-3.61,20.97-23.57,24.41-22.96l22.97,22.97-19.72,22.57Z"/>
  <path class="st0" d="M-637.1,24.36c4.23-4.25,14.23-3.22,17.93,1.85l76.84,107.22,129,68.23c22.07,21.07-7.34,26.33-21.19,35.12-50.86,32.26-70.92,101.16-73.91,158.38-1.36,26.14,5.38,52.74-1.67,77.22l-117.67,171.58c-3.19,3.61-10.11,3.53-11.7-1.4,0,0-2.88-577.86-.42-606.78.29-3.41.36-8.98,2.8-11.42Z"/>
  <path class="st0" d="M-658.43,646.78l-10.51-.46-117.79-172.56c-8.9-19.18-1.38-66.35-3.21-91.02-3.77-50.78-25.32-112.15-68.52-141.86-12.95-8.91-38.35-14.77-31.9-33.14,2.54-7.25,119.75-62.22,134.41-73.76,27.07-30.29,47.06-69.65,72.5-100.62,7.88-9.59,16.99-18.14,25.02-3.48-3.08,34.37,0,616.89,0,616.89Z"/>
  <path class="st0" d="M-485.4,475.14c9.69-1.82,47.68,13.87,60.22,17.71,14.24,4.36,43.87,9.62,54.87,15.25,6.82,3.49,11.88,12.8,12.62,20.3,1.52,15.33-4.05,53.25-7.29,69.51-13.62,68.3-59.67,119.56-88.89,180.65l-12.4,40.22c-2.98.6-16.81-14.41-19.72-17.49-40.8-43.16-77.66-90.26-119.42-132.59-7.31-10.38-7.78-17.11-1.82-28.16,28.09-52.11,78.45-104.31,108.24-156.91,2.98-3.54,9.19-7.65,13.59-8.48Z"/>
  <path class="st0" d="M-818.47,475.16c9.07-1.26,16.37,2.92,22.41,9.44,30.22,45.97,64.57,89.41,94.73,135.37,8.74,13.32,24.06,28.36,12.68,44.33-46.18,47.32-86.99,102.66-132.79,149.9-12.88,13.29-12.72-14.79-16.17-25.07-14.14-42.11-46.01-78.5-66.19-117.89-21-40.99-37.9-101.01-32.54-147.25,2.42-20.89,40.93-23.3,58.7-28.95,16.05-5.1,44.49-17.83,59.17-19.87Z"/>
  <path class="st0" d="M-640.58,652.92c9.62-2.86,18.55,9.49,24.8,16,38.44,40.08,81.41,87.95,117.21,130.42,10.39,12.32,20.99,20.93,20.98,38.39-.01,15.86-3.35,36.37-4.55,52.6-1.57,21.26,5.48,59.63-21.78,65.87-16.37,3.75-30.35,1.22-48.96,8.01-34.27,12.52-48.94,37.65-76.22,55.25-9.66,6.23-15.37,2.06-17.53-8.52l1.2-354.03c1.12-1.84,2.76-3.38,4.85-4Z"/>
  <path class="st0" d="M-665.91,652.87c8.69-2.58,14.75,2.73,13.9,11.54v348.69c.64,5.59-4.87,9.58-10,9.56-6.86-.02-37.62-30.66-46.07-37.02-15.66-11.79-31.5-21.49-50.99-25.71-20.73-4.48-50.89,2.45-55.04-26.04-2.88-19.79-4.22-49.56-4.66-69.84-.33-15.34-2.71-36.64,5.72-49.25,46.67-47.57,87.51-101.1,133.49-149.2,2.8-2.93,10.75-11.87,13.65-12.74Z"/>
  <path class="st0" d="M-936.75,212.22c30.56-2.72,93.71,34.34,98.89,68.23-37.55,22.3-88.72,25.54-109.79,70.06-5.87,12.41-5.46,24.88-9.47,36.55-6.22,18.08-30.37,32.51-44.94,44.9-13.41,11.4-41.64,49.78-53.23,20.41-19.7-49.93-5.04-136.75,28.24-179.08,17.11-21.76,62.4-58.6,90.3-61.08Z"/>
  <path class="st0" d="M-366.97,212.31c18.48-1.45,36.82,9.44,52,19.11,69.28,44.12,90.36,116.73,79.56,195.83-1.87,13.69-3.12,43.67-23.65,35.37l-72.4-63.5c-11.36-18.51-8.34-36.96-20.13-56.57-22.06-36.72-59.91-37.61-93.16-53.67-18.36-8.87-15.04-13.99-3.78-28.71,16.04-20.97,55.15-45.78,81.55-47.85Z"/>
  <path class="st0" d="M-836,299.8c7.58-1.02,12.77,2.52,16.3,9.02,10.79,19.88,14.2,86.64,12.79,110.11-1.01,16.84-.64,34.34-17.02,42.15-29.55,14.09-70.76,20.63-101.38,34.67-5.65,1.39-13.43-.88-15.97-6.19-3.04-6.34-2.63-82.65-1.67-94.91,3.05-38.74,27.06-64.21,61.48-78.77,7.92-3.35,38.81-15.19,45.47-16.09Z"/>
  <path class="st0" d="M-463.58,299.79c5.22-.81,55.32,18.05,62.66,21.96,26.02,13.85,45.03,40.99,47.61,70.72,1.79,20.61,2.68,72.65.03,92.23-2.08,15.34-15.13,11.37-25.93,8.17-23.27-6.89-71.39-21.23-91.54-31.17-4.9-2.42-11.32-7.74-13.63-12.67-2.81-5.99-4.67-28.82-4.97-36.67-.65-16.85.58-35.67,2.55-52.41,1.7-14.44,6.29-57.53,23.21-60.16Z"/>
  <path class="st3" d="M-336.52,428.93c4.85-1.2,6.68,2.55,9.39,5.31,20.46,20.89,43.16,69.77,51.03,97.98,11.05,39.63,6.9,77.38,15.46,116.03,4.07,18.39,20.07,48.34,21.17,62.33,1.57,19.84-15.98,10.12-25.09,2.95-30.06-23.68-77.45-87.16-80.12-125.85-1.11-16.15,3.96-30.78,4.54-46.02,1.04-26.8.62-56.54,0-83.46-.17-7.4-7.26-26.57,3.62-29.27Z"/>
  <path class="st3" d="M-966.32,431.6c18.82-16.16,10.33,32.36,10.21,37.56-.5,21.41-1.32,47.03,0,68.12,1.58,25.27,9.53,39.09,2.16,65.53-9.78,35.11-50.6,91.61-79.93,112.92-10.52,7.65-21.95,12.38-22.94-5.2,7.33-19.85,16.44-39.3,21.27-60.03,12.1-52.02,4.18-94.03,25.88-147.24,6.58-16.14,31.01-61.06,43.35-71.66Z"/>
  <path class="st3" d="M-1015.73,468.7c1.95,1.96,2.46,5.59,1.81,8.29-8.85,21.46-18.25,43.19-24.27,65.67-5.58,20.82-6.84,46.95-15.35,65.73-4.27,9.41-12.68,17.36-17.6,26.23-9.57,17.26-11.41,35.14-22.03,52.47s-35.92,46.03-40.11,7.62c-8.46-77.4,26.89-160.1,85.2-210.16,6.12-5.26,25.47-22.76,32.36-15.86Z"/>
  <path class="st3" d="M-275.28,466.27c8.68-1.59,49.61,39.54,56.69,47.87,30.46,35.88,52.34,87.63,55.83,134.83.75,10.11,1.54,52.73-2.39,58.91-12.74,20.06-39.67-22.3-44.7-33.74s-6.09-22.84-11.63-34.39c-6.5-13.53-17.98-23.53-23.4-37.96-6.69-17.84-7.82-41.64-13.19-61.32-5.86-21.47-15.17-41.92-23-62.68-1.07-4.07,1.65-10.76,5.79-11.52Z"/>
  <path class="st0" d="M-868.34,768.37c4.21.76,3.61,4.58,4.47,7.56,5.2,18.17,8.79,41.07,12.36,59.96,6.22,32.95,18.79,90.42,18.43,122.07-.07,6.61-3.18,12.24-9.55,14.74-3.46,1.35-20.95,3.68-24.75,3.57-18.17-.55-20.18-45.69-20.81-59.87-2.13-48.33,17.25-99.53,19.85-148.02Z"/>
  <path class="st0" d="M-417.55,971.56c-7.37,7.32-43.02,5.58-44.79-9.5,5.93-65.32,18.6-129.7,32.28-193.67,3.38-.04,3.07,7.72,3.63,10.58,8.38,43.22,21.04,103.1,18.23,146.07-.54,8.21-5.07,42.28-9.35,46.53Z"/>
  <path class="st0" d="M-66.11,65.06"/>
</svg>