<?xml version="1.0" encoding="UTF-8"?>
<svg id="Camada_1" xmlns="http://www.w3.org/2000/svg" version="1.1" viewBox="0 0 1000 1000">
  <!-- Generator: Adobe Illustrator 29.2.1, SVG Export Plug-In . SVG Version: 2.1.0 Build 116)  -->
  <defs>
    <style>
      .st0 {
        fill: #525151;
      }

      .st1 {
        fill: #fff;
      }

      .st1, .st2 {
        display: none;
      }

      .st3 {
        fill: #5f933c;
      }
    </style>
  </defs>
  <rect class="st0" x="1178.61" width="315.87" height="257.67"/>
  <rect class="st3" x="1178.61" y="315.38" width="315.87" height="266.03"/>
  <g class="st2">
    <path class="st3" d="M345.65,61.29c34.14-5.37,86.79,19.16,116.22,36.55,13.25,7.83,23.67,13.44,25.62,30.48,2.46,21.49,2.71,84.76-.19,105.79-1.52,11.02-10.42,24.59-21.24,28.63-44.11,7.81-93.93,36.67-136.38,44.37-38.8,7.03-49.85-24.68-73.01-43.55-7.06-5.75-20.43-13.58-28.94-16.77-9.77-3.66-31.89-4.01-31.19-16.47.27-4.89,22.51-35.37,26.77-44.1,7.37-15.12,10.18-31.38,18.59-45.82,16.89-29.04,70.22-73.82,103.75-79.1Z"/>
    <path class="st3" d="M628.32,61.37c42.09-5.08,87.12,27.16,113.72,57.57,20.94,23.94,21.79,41.06,34.55,67.26,4.72,9.68,25.22,36.39,26.42,42.34,2.9,14.36-19.35,13.99-29.36,17.63-44.47,16.17-53.85,66.33-103.43,60.92-41.72-18.19-93.86-26.55-134.92-43.75-11.05-4.63-20.34-15.46-22.38-27.49-3.43-20.19-2.6-83.86-.58-105.55,1.02-10.92,5.09-19.02,13.92-25.56,19.36-14.32,78.56-40.55,102.06-43.39Z"/>
    <path class="st0" d="M319.18,58.7c-53.06,8.18-91.16,61.94-111.13,108.1-4.22,9.76-6.1,21.59-10.42,31.13-12.88,28.43-54.28,67.52-79.01,87.22-1.93,1.54-14.23,12.03-15.52,10.43l-8.41-79.9C87.09,94.58,169.32,5.54,293.27,46.18c8.01,2.63,19.94,6.95,25.9,12.52Z"/>
    <path class="st0" d="M896.8,295.58c-1.29,1.6-13.59-8.89-15.52-10.43-24.28-19.34-66.4-59.4-79.01-87.22-4.32-9.54-6.18-21.4-10.42-31.13-20.21-46.33-57.72-99.74-111.13-108.1-2.51-1.96,21.86-10.95,24.5-11.84,47.59-16.13,86.88-16.84,130.65,9.43,83.58,50.16,72.46,155.6,60.93,239.29Z"/>
    <path class="st0" d="M819.35,262.76c3.68-.83,7.45-1.12,10.94.66l61.19,44.78c11.74,38.81,44.57,90.72,48.72,129.97,2.06,19.54-4.09,78.92-8.95,98.59-5.35,21.65-24.39,13.02-36.53,2.99-40.68-33.58-87.38-145.36-91.47-197.34-.99-12.62-1.91-53.29.51-64.05,1.27-5.65,9.93-14.32,15.6-15.6Z"/>
    <path class="st0" d="M171.05,262.73c10.62-3.23,23.77,7.01,25.42,17.39,5.52,34.83-1.92,79.11-11.79,112.64-13.32,45.23-42.76,116.69-79.49,147-13.32,10.99-31.85,18.41-36.93-4.67-4.03-18.32-7.94-55.09-8.89-74.22-2.55-51.29,33.2-103.35,48.17-151.48l63.52-46.65Z"/>
    <path class="st0" d="M484.91,980.76c-5.81,5.84-14.34,1.76-18.66-4.24-9.8-13.63-27.09-53.24-33.8-70.09-17.8-44.68-28.08-96.14-30.25-144.29-.84-18.61-4.83-65.52,11.83-75.61,9.47-5.74,50.23-6.26,61.9-4.35,5.07.83,10.61,3.78,11.51,9.27l.13,278.47c-.27,3.24-.35,8.51-2.66,10.83Z"/>
    <path class="st0" d="M522.21,682.51c10.56-2.32,53.17-1.5,62.3,3.3,18.45,9.71,13.99,55.05,13.2,74.27-2.32,56.06-14.7,111.18-37.13,162.34-5.68,12.95-19.48,43.84-26.93,54.11-7.94,10.95-18.89,8.39-21.34-4.5v-276.58c-.91-6.69,3.63-11.56,9.9-12.94Z"/>
    <path class="st0" d="M472.46,285.55c5.81-2.11,13.94,5.72,14.97,11.12,2.15,11.28,1.55,62.19.09,74.8-.45,3.94-1.25,7.5-4.11,10.43-5.23,5.35-46.21,12.18-57.26,15.46-19.19,5.7-36.76,15.14-55.63,20.45-20.45-9.89-48.48-64.33-36.94-83.93,4.22-7.17,13.92-6.39,20.48-8.61,39.42-13.39,79.01-26.25,118.4-39.72Z"/>
    <path class="st0" d="M522.22,285.56l141.97,46.3c14.45,14.78-6.51,54.59-17.07,68.3-4.57,5.95-15.3,19.23-23.02,17.69-14.47-6.36-29.01-13.61-44.08-18.45-12.37-3.97-60.86-12.07-65.67-19.52-1.52-2.35-1.69-3.61-2.04-6.27-1.55-11.87-1.92-68.32.15-79.02.99-5.12,5.07-7.42,9.76-9.03Z"/>
    <path class="st0" d="M416.28,528.78c8.17-1.64,53.79-1.99,61.81-.44,7.58,1.46,8.89,8.81,9.49,15.44,2.32,25.56,2.86,85.31-.05,110.27-.48,4.12-2.31,10.53-6.28,12.42-3.88,1.85-56.49,1.99-63.26.92-10.46-1.66-16.97-11.76-17.88-21.6-1.93-20.94-2.78-80.03.23-99.7,1.28-8.4,7.49-15.62,15.93-17.32Z"/>
    <path class="st0" d="M520.09,528.71c5.6-1.68,54.36-1.41,61.8-.27,12.03,1.84,16.81,10.25,17.9,21.58,2.13,22.21,2.51,76.05-.06,97.81-.82,6.91-6.63,15.53-13.05,18.12-5.84,2.36-63.19,2.84-68.04.54s-5.89-9.64-6.33-14.45c-2.33-25.61-2.86-85.24.05-110.27.55-4.71,2.66-11.54,7.72-13.06Z"/>
    <path class="st0" d="M283.25,678.19c3.66-1.04,5.05-.07,7.99,1.68,4.81,2.87,29.17,30.41,34.11,36.54,27.66,34.33,48.66,80.12,51.98,124.63,1.58,21.2,4.6,61.82-23.9,32.21-24.07-25.01-75.87-82.34-79.74-115.57-1.5-12.84.15-60.98,4.09-72.34,1.11-3.18,1.65-6.07,5.47-7.15Z"/>
    <path class="st0" d="M711.3,678.21c4.82-1.35,8.93.73,10.44,5.44,3.59,32.49,10.3,66.94-2.62,98.11-8.46,20.41-55.46,73.63-72.65,91.49-38.41,39.91-21.79-50.86-17.1-69.04,8.31-32.22,24.31-62.14,45.18-87.8,3.91-4.81,34.2-37.49,36.75-38.2Z"/>
    <path class="st0" d="M468.32,406.29c9.2-.96,15.77-1.59,19.11,8.83-2.08,25.66,2.99,55.97.09,81.02-2.25,19.4-20.04,11.23-32.14,11.31s-29.01,2.35-41.64,2.32c-15.52-.04-21.91-3.85-29.72-16.16-6.57-10.35-10.57-20.11-8.58-32.71,4.18-26.4,68.89-52.1,92.9-54.61Z"/>
    <path class="st0" d="M520.14,406.14c21.57-6.38,98.96,28.75,104,53.03,2.9,13.96-6.81,41.96-20.26,47.35-2.83,1.13-12.66,3.09-15.73,3.15-12.44.22-29.18-2.19-41.54-2.22-12.44-.03-31.93,8.44-34.22-11.32-1.86-16.03-2.12-63.38-.07-79.1.59-4.53,3.07-9.48,7.83-10.89Z"/>
    <path class="st0" d="M649.55,550.12c1.55-13.77,9.84-31.08,17.84-42.42,3.76-5.34,34.92-41.09,38.24-42.81s6.26.74,6.26,2.12v72.72c0,8.1-12.08,29.5-17.64,36.39-3.53,4.38-36.98,34.68-39.56,35.27-2.03.46-5.14-2.35-5.14-3.09,0-17.83-1.91-41.2,0-58.18Z"/>
    <path class="st0" d="M288.01,467.01c.66-2.34,3.43-3.58,6.26-2.12,3.33,1.72,34.46,37.46,38.24,42.81,6.93,9.83,17.84,30.64,17.84,42.42v58.18c0,.74-3.11,3.55-5.14,3.09-2.58-.59-36.06-30.99-39.56-35.27-5.56-6.8-17.64-28.37-17.64-36.39v-72.72Z"/>
    <path class="st0" d="M703.01,592.99c12.84-1.96,9.88,35.2,8.7,44.22-2.21,16.89-33.53,55.12-47.5,64.69-9.88,6.77-13.77,1.82-14.78-8.29-1.46-14.6-.96-39.95,5.29-53.13,3.85-8.12,33.6-37.91,41.58-43.59,2-1.42,4.24-3.52,6.71-3.9Z"/>
    <path class="st0" d="M293.63,592.99c4.01-.99,7.05,1.81,9.96,3.9,7.26,5.2,37.33,35.04,40.94,42.15,6.32,12.43,8.29,45.14,5.75,58.54-1.65,8.68-8.08,8.8-14.6,4.32-7.67-5.28-38.66-40.62-42.47-48.94-6.02-13.16-6.78-34.53-5.32-48.94.43-4.28.43-9.73,5.74-11.03Z"/>
    <path class="st0" d="M952.91,433.76c-1.08-10.68-6.65-26.97-10.35-37.44-3.49-9.87-16.33-31.85-16.73-39.41-.26-4.92,2.98-3.89,6.3-2.11,14.63,7.87,32.98,43.76,37.99,59.66,12.2,38.74,16.56,79.36-12.05,111.74-1.76.78-5.17-2.47-5.17-3.11,0-27.63,2.69-62.79,0-89.35Z"/>
    <path class="st0" d="M46.98,523.11c-.32,1.11-3.38,3.72-5.17,3.11-28.3-32.44-24.24-73.02-12.05-111.74,5.01-15.9,23.36-51.79,37.99-59.66,3.32-1.79,6.56-2.81,6.3,2.11-.4,7.57-13.24,29.53-16.73,39.41-3.39,9.59-10.35,30.2-10.35,39.52v87.27Z"/>
    <path class="st0" d="M799.15,395.32c3.65-.7,4.19.9,5.78,3.57,5.44,9.16,11.16,32.34,16.1,44.15,8.08,19.3,17.28,38.15,25.93,57.19-1.61,2.97-5.41.36-7.39-.92-10.77-7.02-40.42-57.65-40.42-69.7v-34.28Z"/>
    <path class="st0" d="M200.74,395.32v34.28c0,11.76-29.76,62.75-40.42,69.7-1.98,1.29-5.78,3.89-7.39.92,8.65-19.04,17.85-37.89,25.93-57.19,4.95-11.81,10.66-35,16.1-44.15,1.59-2.67,2.13-4.27,5.78-3.57Z"/>
  </g>
  <path class="st0" d="M203.1-834.24c39.93-.23,103.28,50.86,121.55,84.84,8.72,16.23,12.23,34.72,21.85,52.28,3.91,7.14,21.66,30.6,22.3,35.08,2.02,14.12-16.28,12.63-25.99,16.21-10.19,3.76-17.72,7.39-26.74,13.5-26.11,17.7-42.3,57.46-80.81,50.71-42.91-7.52-94.31-37.55-139.04-45.25-12.13-5.13-21.98-18.13-23.77-31.3-2.85-20.92-2.6-82.22-.19-103.6,2.67-23.74,22.13-31.65,40.94-41.66,22.84-12.15,64.37-30.67,89.9-30.81Z"/>
  <path class="st0" d="M-86.99-834.37c27.41-1.46,94.87,27.91,117.61,44.36,7.93,5.74,15.05,13.77,16.28,23.96,2.59,21.56,2.69,88.76-.24,109.99-4.3,31.25-33.29,31.16-56.5,38.81-29.93,9.86-77.75,30.61-106.31,35.62-41.31,7.25-62.26-46.41-99.67-61.5-10.54-4.25-35.74-4.96-33.51-18.64.9-5.49,21.64-32.84,26.18-41.72,8.22-16.08,11.06-32.89,19.72-48.05,18.85-33.02,77.57-80.77,116.44-82.84Z"/>
  <path class="st0" d="M464.06-593.38c-30.23-23.31-65.34-51.95-86.42-84.05-14.43-21.96-18.58-47.52-31.06-70.6-20-37-58.49-82.71-102.77-86.81,7.55-8.19,23.29-12.16,34.39-15.36,51.65-14.92,93.35-11.46,136.99,20.86,71.42,52.9,60.33,158.31,48.87,235.97Z"/>
  <path class="st0" d="M-124.7-839.04c.52,5.64.08,3.43-3.19,4.17-52.73,11.93-90,62.55-110.09,110.22-4.38,10.39-5.69,21.39-10.54,31.82-11.48,24.71-65.72,80.54-88.96,95.3-2.61,1.66-4.12,2.68-7.48,2.04l-8.56-83.56c.78-63.09,12.22-122.49,69.32-157.48,55.26-33.85,101.71-23.75,159.5-2.5Z"/>
  <path class="st0" d="M459.24-582.21c17.43,53.33,52.47,103.71,49.29,161.42-.95,17.23-4.67,58.19-8.93,73.67-6.98,25.35-33.99,6.46-45.14-4.73-36.72-36.83-80.65-140.34-85.67-191.78-1.31-13.39-1.97-55.21.47-67.27,1.93-9.52,14.95-21.83,24.82-17.42l65.16,46.1Z"/>
  <path class="st0" d="M-273.56-629.09c9.94-2.76,22.75,9.69,23.94,19.78,9.09,76.87-28.84,195.96-81.56,253.17-12.9,14-43.43,38.44-49.67,5.13-3.72-19.88-7.79-55.8-8.69-76.02-2.24-50.13,34.51-106.32,49.94-153.55l66.04-48.5Z"/>
  <path class="st3" d="M82.27-603.66l147.7,48.48c6.62,7.95,2.56,22.69-.02,31.59-3.57,12.33-27.17,57.08-41.77,54.81-31.02-19.59-68.29-21.55-101.1-32.47-9.42-3.14-13.56-3.63-14.86-14.79-1.8-15.43-1.83-56.7,0-72.1.82-6.9,3.91-12.07,10.06-15.52Z"/>
  <path class="st3" d="M-107.17-556.78l144.02-46.82c2.15.33,6.79,3.04,8.03,4.77,6.07,8.48-.18,73.58,1.51,88.66-1.69,3.95-5.08,6.43-8.94,8.01-13.6,5.56-36.17,7.48-51.54,12-9.25,2.72-53.18,21.86-56.15,21.41-10.01-1.53-27.92-30.73-32.21-39.94-5.53-11.88-15.31-37.52-4.73-48.09Z"/>
  <path class="st3" d="M84.36-357.84c8.62-1.93,44.89-1.56,54.43-.27,15.82,2.15,23.78,12.83,24.55,28.4,1.16,23.42,1.34,58.91.07,82.48-1.02,18.94-6.18,31.12-26.47,33.03-10.34.97-43.85,1.61-52.98-.13-4.69-.89-8.81-5.91-11.26-9.92l-.48-118.21c.15-7.02,5.15-13.82,12.15-15.39Z"/>
  <path class="st3" d="M-21.5-357.8c9.58-1.74,44.78-1.9,54.46-.37,5.62.89,10.84,4.8,13.45,9.85l.48,120.32c-.15,4.9-2.19,10-6.9,12.16-5.59,2.56-53.73,2.68-61.84,1.43-6.78-1.05-17.26-7.86-19.31-14.58l-.81-109.05c1.57-10.25,10.53-17.96,20.47-19.77Z"/>
  <path class="st3" d="M80.12-480.68c22.08-6.45,100.73,28.38,106.06,51.88,3.47,15.3-7.03,46.34-22.79,50.44-10.28,2.67-67.54,2.66-79.59,1.11-7.12-.91-10.75-4.6-11.65-11.65-1.95-15.19-1.98-65.56,0-80.7.6-4.61,3.11-9.67,7.97-11.08Z"/>
  <path class="st3" d="M44.22-478.51c2.78,2.77,2.46,9.37,2.71,13.18,1.39,20.5,1.7,54.03,0,74.3-.99,11.8-1.96,12.77-13.76,13.76-12.03,1.01-70.99,1.53-78.97-1.69-9.27-3.74-21.35-27.87-21.88-37.52-1.08-20.02,16.02-31.6,31.28-40.94,13.23-8.1,68.79-32.89,80.62-21.1Z"/>
  <path class="st0" d="M-61.76-942.35c28.38-7.28,29.47,27.45,36.55,47.21,7.65,21.34,31.96,53.44-11.36,49.47-30.75-2.82-99.52-15.05-128.81-23.66-13.72-4.03-17.02-11.38-4.51-20.19,29.57-20.8,76.61-33.08,108.13-52.82Z"/>
  <path class="st0" d="M294.09-887.24c9.22,17.2-8.12,17.22-20.23,19.98-32.73,7.45-87.82,19.42-120.08,21.8-38.65,2.86-16.44-27.49-10-45.99,9.85-28.27,8.16-61.49,46.4-47.53,34.04,12.44,69.44,38.4,103.91,51.73Z"/>
  <path class="st0" d="M-92.94-273.57c-3,.23-5.62.23-8.43-1.1-1.9-.9-28.94-24.41-31.86-27.44-27.26-28.21-26.35-73.03-23.35-110.29.51-6.33.51-11.77,8.64-8.43,13.07,18.89,35.31,35.65,45.56,56.11,1.94,3.87,9.45,23.75,9.45,26.56v64.6Z"/>
  <path class="st0" d="M275.58-421.83v77.3c0,4.51-8.13,22.22-11.01,27.11-4.76,8.05-38.31,41.49-45.48,43.52s-6.76-4.37-7.15-9.1c-4.88-58.89,5.8-85.08,45.61-126.15,4.89-5.05,10.62-13.32,18.03-12.68Z"/>
  <path class="st0" d="M-17.75-995.75c2.41.02,27.2,32.63,30.32,37.42,22.43,34.52,28.15,84.93,44.44,123,.69,16.64-11.58,20.99-22.5,7.54-23.93-29.49-54.25-93.34-57.53-130.97-.52-5.99-2.04-37.04,5.26-36.99Z"/>
  <path class="st0" d="M142.14-993.69c2.7,2.74.6,35.06-.24,41.07-4.99,35.58-32.64,94.59-55.19,122.72-10.25,12.78-20.85,15.02-24.64-3.34,14.71-34.87,21.11-79.32,37.7-112.8,3.64-7.34,27.48-41.05,32.89-45.47,2.35-1.92,8.22-3.45,9.48-2.18Z"/>
  <path class="st0" d="M-150.73-290.23c2.76-.76,4.4-.42,6.92.75,1.43.67,20.36,18.25,23.37,21.16,12.59,12.15,25.39,23.71,27.51,42.38.75,6.61.9,41.51-1.06,45.54-3.99,8.2-11.2,3.55-15.97-.98-18.72-17.81-43.99-43.74-46.48-70-.78-8.17-2.68-36.53,5.71-38.85Z"/>
  <path class="st0" d="M266.54-290.24c6.37-.97,8.42,3.72,9.15,9.15,1.88,14.13.54,39-5.4,51.98-3.43,7.51-36.4,45.16-43.29,49.88-23.28,15.96-15.39-45.96-11.1-57.68,4.83-13.2,32.13-41.04,43.81-49.36,2.04-1.45,4.33-3.59,6.84-3.97Z"/>
  <path class="st0" d="M521.26-360.41v-94.25c0-26.22-23.89-54.1-27.44-74.25-2.28-12.96,14.38,1.83,16.83,4.37,27.46,28.51,47.77,101.85,32.86,138.72-2.82,6.97-14.39,31.42-22.25,25.4Z"/>
  <path class="st0" d="M-402.16-361.47c-.32,1.13-3.45,3.79-5.27,3.17-3.62-.76-16.42-27.58-18.11-32.74-11.33-34.52,6.71-99.01,29.78-127.11,2.57-3.13,21.02-24.09,23.26-12.7.43,2.18-16.53,32.76-19.13,40.14-3.97,11.31-10.53,33.14-10.53,44.53v84.72Z"/>
  <path class="st0" d="M364.53-491.72h6.32s42.34,104.86,42.34,104.86c-3.42,4.17-2.26,2.61-5.29,1.13-12.31-6.05-43.37-60.31-43.37-73.16v-32.83Z"/>
  <path class="st0" d="M-245.43-491.72v34.95c0,11.88-31.36,66.41-42.33,72.05-3.69,1.9-4.02.4-6.34-2.15,9.92-18.12,18.38-37.17,26.36-56.21,5.04-12.04,10.87-35.67,16.42-45,1.62-2.72,2.17-4.36,5.89-3.64Z"/>
  <path class="st1" d="M671.79,167.09c-6.06-3.11-14.68-4.42-19.86-9.93-1.01-1.07-5.78-10.4-7.8-12.64,3.92-3.61,20.97-23.57,24.41-22.96l22.97,22.97-19.72,22.57Z"/>
  <path class="st0" d="M518.26,75.85c3.59-3.6,12.06-2.73,15.2,1.56l65.15,90.9,109.36,57.84c18.71,17.86-6.22,22.33-17.97,29.77-43.12,27.35-60.13,85.76-62.66,134.27-1.15,22.16,4.56,44.71-1.42,65.46l-99.76,145.46c-2.7,3.06-8.57,2.99-9.92-1.19,0,0-2.44-489.89-.36-514.41.25-2.89.31-7.61,2.38-9.68Z"/>
  <path class="st0" d="M500.18,603.52l-8.91-.39-99.86-146.29c-7.54-16.26-1.17-56.25-2.72-77.16-3.19-43.05-21.47-95.08-58.09-120.26-10.98-7.55-32.51-12.52-27.05-28.09,2.15-6.14,101.52-52.75,113.95-62.53,22.95-25.68,39.89-59.05,61.46-85.3,6.68-8.13,14.4-15.38,21.21-2.95-2.61,29.14,0,522.98,0,522.98Z"/>
  <path class="st3" d="M646.87,458.01c8.21-1.54,40.42,11.76,51.05,15.01,12.07,3.69,37.19,8.15,46.52,12.93,5.78,2.96,10.07,10.85,10.7,17.21,1.29,13-3.43,45.15-6.18,58.92-11.55,57.9-50.59,101.36-75.36,153.15l-10.51,34.1c-2.53.51-14.25-12.22-16.72-14.83-34.58-36.59-65.84-76.52-101.24-112.41-6.2-8.8-6.59-14.51-1.54-23.87,23.82-44.17,66.51-88.43,91.76-133.02,2.53-3,7.79-6.49,11.52-7.19Z"/>
  <path class="st3" d="M364.5,458.02c7.69-1.07,13.87,2.48,19,8,25.62,38.97,54.74,75.8,80.31,114.76,7.41,11.29,20.39,24.04,10.75,37.58-39.15,40.11-73.75,87.03-112.57,127.08-10.92,11.26-10.78-12.54-13.71-21.26-11.99-35.7-39.01-66.55-56.12-99.94-17.81-34.75-32.13-85.63-27.59-124.83,2.05-17.71,34.7-19.75,49.77-24.54,13.6-4.33,37.72-15.12,50.16-16.85Z"/>
  <path class="st0" d="M515.31,608.72c8.16-2.42,15.72,8.04,21.02,13.57,32.59,33.98,69.01,74.56,99.37,110.56,8.8,10.44,17.8,17.74,17.79,32.55-.01,13.44-2.84,30.83-3.86,44.6-1.33,18.02,4.65,50.55-18.47,55.84-13.88,3.18-25.73,1.03-41.51,6.79-29.06,10.61-41.49,31.92-64.61,46.84-8.19,5.28-13.03,1.75-14.86-7.22l1.02-300.14c.95-1.56,2.34-2.87,4.11-3.39Z"/>
  <path class="st0" d="M493.84,608.68c7.37-2.19,12.5,2.32,11.78,9.79v295.61c.54,4.74-4.13,8.12-8.48,8.11-5.81-.02-31.89-26-39.05-31.39-13.27-9.99-26.71-18.22-43.23-21.79-17.57-3.8-43.15,2.08-46.66-22.08-2.44-16.77-3.58-42.02-3.95-59.21-.28-13-2.3-31.06,4.85-41.75,39.57-40.33,74.19-85.71,113.17-126.48,2.38-2.49,9.11-10.07,11.57-10.8Z"/>
  <path class="st0" d="M264.23,235.11c25.91-2.3,79.45,29.12,83.84,57.85-31.83,18.9-75.22,21.65-93.08,59.4-4.98,10.52-4.63,21.09-8.03,30.98-5.27,15.33-25.75,27.56-38.1,38.07-11.37,9.66-35.3,42.2-45.12,17.31-16.7-42.33-4.27-115.94,23.94-151.82,14.5-18.45,52.9-49.68,76.56-51.78Z"/>
  <path class="st0" d="M747.27,235.19c15.66-1.23,31.21,8.01,44.08,16.2,58.74,37.4,76.61,98.96,67.45,166.02-1.59,11.61-2.64,37.02-20.05,29.98l-61.38-53.83c-9.63-15.69-7.07-31.33-17.06-47.96-18.71-31.13-50.79-31.89-78.98-45.5-15.56-7.52-12.75-11.86-3.2-24.34,13.6-17.77,46.75-38.81,69.14-40.56Z"/>
  <path class="st3" d="M349.64,309.36c6.43-.86,10.82,2.13,13.82,7.65,9.15,16.85,12.04,73.45,10.84,93.35-.86,14.27-.54,29.12-14.43,35.73-25.06,11.95-59.99,17.49-85.95,29.39-4.79,1.18-11.39-.75-13.54-5.24-2.57-5.38-2.23-70.07-1.42-80.46,2.59-32.85,22.94-54.44,52.12-66.78,6.72-2.84,32.9-12.88,38.55-13.64Z"/>
  <path class="st3" d="M665.37,309.35c4.42-.69,46.89,15.3,53.12,18.61,22.06,11.74,38.18,34.75,40.36,59.96,1.52,17.48,2.28,61.59.02,78.19-1.76,13-12.83,9.64-21.98,6.93-19.72-5.84-60.52-18-77.6-26.43-4.15-2.05-9.59-6.56-11.55-10.74-2.38-5.08-3.96-24.43-4.21-31.08-.55-14.29.49-30.24,2.16-44.44,1.44-12.24,5.33-48.77,19.68-51Z"/>
  <path class="st0" d="M773.08,418.83c4.11-1.02,5.67,2.16,7.96,4.5,17.34,17.71,36.59,59.15,43.26,83.06,9.36,33.6,5.85,65.6,13.11,98.36,3.45,15.59,17.01,40.98,17.95,52.84,1.33,16.82-13.54,8.58-21.27,2.5-25.48-20.08-65.66-73.89-67.93-106.69-.94-13.69,3.35-26.1,3.85-39.01.88-22.72.52-47.94,0-70.75-.14-6.27-6.16-22.52,3.07-24.81Z"/>
  <path class="st0" d="M239.16,421.09c15.96-13.7,8.76,27.44,8.66,31.84-.43,18.15-1.12,39.87,0,57.75,1.34,21.43,8.08,33.14,1.83,55.55-8.29,29.76-42.9,77.66-67.76,95.73-8.92,6.48-18.61,10.5-19.45-4.41,6.21-16.83,13.94-33.32,18.03-50.89,10.26-44.1,3.55-79.72,21.94-124.82,5.58-13.68,26.29-51.77,36.75-60.75Z"/>
  <path class="st0" d="M197.28,452.55c1.66,1.66,2.08,4.74,1.53,7.03-7.5,18.19-15.47,36.62-20.58,55.68-4.73,17.65-5.8,39.81-13.01,55.72-3.62,7.98-10.75,14.72-14.92,22.24-8.11,14.63-9.67,29.79-18.68,44.49s-30.45,39.02-34.01,6.46c-7.17-65.62,22.8-135.73,72.23-178.17,5.19-4.46,21.59-19.29,27.43-13.44Z"/>
  <path class="st0" d="M825.01,450.49c7.36-1.35,42.06,33.52,48.06,40.59,25.83,30.42,44.37,74.29,47.33,114.3.63,8.57,1.3,44.7-2.03,49.94-10.8,17-33.63-18.9-37.89-28.6-4.14-9.41-5.16-19.36-9.86-29.15-5.51-11.47-15.24-19.94-19.83-32.18-5.67-15.12-6.63-35.3-11.18-51.99-4.97-18.2-12.86-35.54-19.5-53.14-.9-3.45,1.4-9.12,4.91-9.77Z"/>
  <path class="st0" d="M322.22,706.6c3.57.65,3.06,3.88,3.79,6.41,4.4,15.4,7.45,34.81,10.47,50.83,5.27,27.94,15.93,76.65,15.63,103.49-.06,5.61-2.7,10.38-8.1,12.49-2.93,1.15-17.76,3.12-20.98,3.02-15.4-.46-17.11-38.73-17.64-50.76-1.81-40.97,14.63-84.38,16.83-125.49Z"/>
  <path class="st0" d="M704.4,878.86c-6.25,6.2-36.47,4.73-37.97-8.06,5.02-55.38,15.77-109.95,27.37-164.19,2.86-.03,2.61,6.54,3.08,8.97,7.1,36.64,17.83,87.41,15.46,123.83-.45,6.96-4.3,35.84-7.93,39.44Z"/>
  <path class="st0" d="M-883.03-916.12"/>
  <path class="st3" d="M-971.99-753.27c9.27-2.77,15.24,1.83,19.57,9.49,15.05,26.59,34.03,94.05,42.38,125.48,28.34,106.61,23.66,173.83-9.68,277.27-6.99,21.68-6.84,51.38-33.42,57.96-39.89,9.89-48.4-45.5-54.7-73.3-30.49-134.59-7.95-254.99,26.46-385.78,1.06-3.71,5.73-10.04,9.38-11.13Z"/>
  <path class="st3" d="M-1307.68-753.3c9.39-2.07,16.69,2.36,19.26,11.65,35.81,136.52,65.83,298.27,13.02,434.76-13.21,34.14-53.44,33.04-65.88-1.41-40.51-112.21-49.16-196.54-17.6-313.34,9.57-35.41,24.12-82.59,39.08-115.73,2.72-6.04,4.97-14.35,12.11-15.92Z"/>
  <path class="st3" d="M-1040.48-455.23c3.24,2.14,1.46,33.58,1.91,40.08,2.1,30.11,6.86,65.71,15.43,94.61,14.73,49.67,51.83,76.94,55.39,132.98,4.3,67.77-85.66,77.4-100.17,18.11-4.3-17.59-6.58-51.28-7.96-70.37-4.9-67.41.58-133.14,22.92-197.15,1.54-4.41,5.63-22.79,12.48-18.26Z"/>
  <path class="st3" d="M-1229.75-455.22c3.4-1.07,4.56.51,6.14,3.15,3.08,5.13,10.76,33.33,12.89,41.2,20.24,74.83,19.61,144.94,9.84,221.41-.71,5.57-1.23,13.26-2.29,18.22-13.03,60.84-105.4,53.42-100.24-18.18,4.06-56.33,41.04-82.35,55.4-132.99,9.44-33.32,13.09-69.45,15.43-103.94.38-5.6-1.98-27.36,2.84-28.88Z"/>
  <path class="st0" d="M-1149.08-703.75c-2.96,2.95-10.23,3.13-13.69.59-1.59-1.17-14.43-25.61-16.68-29.94-31.13-60.12-51.5-147.71-43.79-215.47.95-8.32,7.66-19.12,16.25-21.06,6.29-1.42,45.23-1.56,51.78-.34,3.96.74,7.65,4.39,8.39,8.39l.12,248.1c-.24,2.89-.32,7.67-2.38,9.73Z"/>
  <path class="st0" d="M-1119.35-969.65c4.68-1.38,49.71-1.22,55.19.02,8.41,1.9,13.74,11.07,14.47,19.1,7.17,78.56-12.68,173.32-54.56,240.31-6.57,10.5-15.92,14.8-20.22.47l1.01-256.56c.95-1.6,2.3-2.81,4.11-3.35Z"/>
  <path class="st0" d="M-1178.49-380.64c-4.07.68-5.21-2.59-6.52-5.59-17.59-40.45-25.08-93.63-41.82-135.37l-16.85-175.45c-.52-6.67,6.9-11.01,12.03-6.23,16.49,27.75,40.69,53.58,56.95,81.06,5.79,9.79,9.57,18.62,10.9,30.12l-14.69,211.47Z"/>
  <path class="st0" d="M-1037.32-704.9c10.02-3.03,8.5,8.85,8.12,15.67-2.71,49.3-7.93,113.47-15.21,161.96-6.87,45.77-32.9,96.12-42.55,142.1-2.84,7.52-6.86,5.4-7.67-1.9-1.55-13.92-.77-30.67-1.8-44.83-3.28-45.25-9.7-93.03-11.15-138.06-.44-13.69-1-27.69,4.13-40.59,7.27-11.45,60.4-92.61,66.13-94.34Z"/>
  <path class="st3" d="M-864.18-580.19c7.59-2.4,8.6,16.52,9.65,22.02,17.45,90.82,9.83,243.19-28.93,328.01-4.32,9.46-23.62,45.61-31.93,48.27-8.23,2.64-18.25-.75-20.22-9.82-4.13-19.01-2.87-44.26,3.79-62.58,11.06-30.42,29.48-60.53,40.14-92.29,16.57-49.38,22.78-107.99,24.77-159.88.81-21.18-2.49-47.1-.17-67.31.25-2.18.43-5.64,2.91-6.42Z"/>
  <path class="st3" d="M-1399.46-583.93c3.38-.76,7.04,5.23,6.66,8.37-6.73,77.9-6.84,159.95,16.58,235.06,15.53,49.81,47.73,92.62,35.08,146.93-4.4,18.91-21.53,12.1-30.63-.3-56.99-77.69-55.27-257.6-39.27-349.38,1.09-6.27,6.95-39.64,11.57-40.68Z"/>
  <path class="st0" d="M-960.8-965.89c38.07-8.76,31.03,51.22,22.48,72.83-8.07,20.4-47.35,64.17-63.87,81.61-4.92,5.19-20.18,22.84-23.29,6.45-1.29-6.79-.6-25.83-.03-33.5,1.76-23.41,11.22-54.12,22.04-74.94,5.78-11.12,31.5-49.87,42.67-52.44Z"/>
  <path class="st0" d="M-1324.51-965.89c10.1-2.32,16.79.1,23.93,6.99,22.45,21.68,43.2,63.35,49.99,93.62,3.26,14.52,7.53,46.44,4.96,60.33-1.61,8.71-11.37,7.01-16.79,1.85-13.46-12.81-62.54-70.46-69.37-85.43-7.4-16.21-15.75-72.06,7.27-77.36Z"/>
  <path class="st0" d="M-865.13-601.65c-1,3.5-7.87,4.26-8.97-.36-24.07-72.36-55.78-141.89-87.14-211.28-6.11-23.76,18.95-39.71,27.32-59.51,2.43-.69,4.73-.76,6.34,1.59,2.65,3.84-.02,52.36,1.73,63.55,7.63,48.8,60.71,130.25,60.71,176.16,0,6.77,1.38,25.04,0,29.84Z"/>
  <path class="st0" d="M-1338.88-873.04c3.31-.5,4.08-.08,6.45,1.94,3.06,2.62,22.83,32.05,24.96,36.59,2.14,4.57,4.27,10.91,3.69,15.99-30.8,71.28-63.65,141.75-88.79,215.38-5.21,9.21-9.08,1.48-9.82-5.87-4.91-48.45,43.12-135.64,57.98-184.71,1.4-4.64,5.53-18.72,5.53-22.44v-56.89Z"/>
  <path class="st0" d="M1221.44-902.39c41.98-1.93,35.48,13.43,37.42,46.63,3.62,62.03,5.31,218.3-57.51,253.44-52.23,29.22-114.09-1.92-138.26-52.12l-.03-160.2c32.18-55.52,95.52-84.87,158.38-87.75Z"/>
  <path class="st0" d="M869.7-902.5c6.52-1.36,28.94.56,36.57,1.45,55.41,6.45,109.08,35.39,138.91,83.17l.42,165.29c-24.41,49.77-84.83,78.31-136.63,50.49-45.86-24.63-57.16-121.57-59.2-168.43-1.4-32.12-2.72-83.84,2.04-114.73,1.14-7.42,10.9-15.8,17.9-17.25Z"/>
  <path class="st3" d="M1180.66-573.2c17.61-2.91,22.34,13.63,24.28,26.75,16.17,109.37,3.64,266.94-12.99,377.04-1.33,8.81-3.62,37.67-10.88,40.93-8,3.59-13.11-.22-16.98-6.99-10.55-18.47-45.5-107.14-47.53-126.43-.95-9.09.24-18.47-.3-27.6l48.68-269.63c1.27-6.12,9.93-13.1,15.71-14.06Z"/>
  <path class="st3" d="M926.19-129.85c-4.2-3.92-8.27-40.2-9.46-48.82-15.29-110.18-25.21-244.66-13.21-355.05,1.34-12.31,1.49-30.29,13.09-36.86,12.35-6.99,27.12,1.5,28.91,15.19,12.72,81.08,32.08,161.36,44.38,242.47,2.09,13.75,5,26.1,4.37,40.22-1.24,27.66-33.01,106.32-46.62,132.89-1.58,3.09-4.24,9.97-7.12,11.38-3.6,1.76-11.42,1.31-14.35-1.42Z"/>
  <path class="st3" d="M875.21-587.94c9.8-2.93,19.22,3.37,19.19,13.4-4.68,61.05-11.91,122.15-14.92,183.33-3.66,74.36,3.03,132.96-22.19,205.44-2.82,8.1-14.09,39.59-20.42,42.49-16.07,7.36-17.53-12.33-19.75-22.76-7.36-34.53-13.25-77.3-17-112.54-7.82-73.34,4.16-109.56,25.18-177.92,10.5-34.14,26.15-91.38,41.11-121.75,1.62-3.28,5.31-8.65,8.81-9.69Z"/>
  <path class="st3" d="M1225-587.93c18.63-4.28,21.31,17.99,26.47,31.95,18.93,51.13,61.25,167.96,62.88,218.45,1.44,44.47-11.94,122.75-20.94,167.78-1.34,6.71-2.68,21.97-7.93,25.37-17.82,11.53-27.78-26.81-32.23-39.56-24.64-70.47-18.79-123.76-22.19-196.18-2.84-60.41-13.07-123.65-14.86-183.15-.27-8.99-2.04-22.18,8.79-24.67Z"/>
  <path class="st0" d="M792.04-411.07c-3.11,2.29-7.84,2.08-9.45-1.86-9.3-104.34-4.56-213.15,35.66-311.07,5.85-5.56,9.44-2.08,12.16,4.28,8.52,19.87,30.16,96.32,28.67,115.64-1.06,13.66-11.82,39.57-16.6,53.72-15.8,46.72-35.39,92.28-50.44,139.28Z"/>
  <path class="st0" d="M1281.49-724.82c9.07-9.7,17.56,19.75,19.95,26.35,26.13,72.16,33.08,166.05,29.65,242.54-.45,9.94-1.4,32.02-3.92,40.49-.91,3.07-1.64,4.98-4.69,6.53-3.32.54-6.13-4.82-7.2-7.31-24.46-56.99-40.92-124.16-63.69-182.45-.56-43.2,18.36-85.09,29.89-126.16Z"/>
  <path class="st0" d="M1208.87-967.71c-.08,19.21,3.25,47.25-21.73,51.37-10.12,1.67-18.99.52-30.1,3.21-32.93,7.95-55.42,34.07-80.88,54.29-4.8,3.1-13.49-4.2-13.49-8.01v-100.86h146.2Z"/>
  <path class="st0" d="M1046.01-967.71v104.56c0,4.15-8.7,5.16-12.87,3.63-7.1-2.6-29.34-25.92-38.06-32.28-27.55-20.1-37.87-19.93-70.08-24.3-8.96-1.21-23.34-9.27-23.34-19.23v-29.61c0-.56-2.34-1.42-1.85-2.78h146.2Z"/>
  <path class="st3" d="M1023.35-593.58c10.61-1.77,10.03,7.41,9.69,15.41-3.19,74.93-17.63,152.15-20.51,227.48-2.57,14.56-11.34,15.13-14.14-.33-6.27-34.73-8.13-72.89-13.76-108.38-5.05-31.8-11.55-63.22-18.31-94.67.42-6.04,5.39-14.17,10.28-17.62,2.74-1.93,44.2-21.47,46.75-21.89Z"/>
  <path class="st3" d="M1082.51-593.62c2.12-.57,4.12-.32,6.11.54,15.76,12.66,53.81,15.56,55.04,39.45-16.56,69.01-25.06,139.68-33.19,210.17-13.6,11.63-13.35-12.13-14.46-21.88-7.36-64.24-15.94-141.42-18.5-205.43-.25-6.24-2.15-20.91,5.01-22.86Z"/>
  <path class="st0" d="M890.56-967.71c1.73,33.61,15.89,54.61-30.65,50.08-19.73-1.92-13.91-35.18-17.47-50.08h48.12Z"/>
  <path class="st0" d="M1268.09-967.71c-5.01,14.18,1.46,48.19-17.47,50.08-45.33,4.51-34.66-15.75-30.64-50.08h48.12Z"/>
</svg>