<?xml version="1.0" encoding="UTF-8"?>
<svg xmlns="http://www.w3.org/2000/svg" version="1.1" viewBox="0 0 471.7 1000">
  <defs>
    <style>
      .cls-1 {
        fill: #515151;
      }
    </style>
  </defs>
  <!-- Generator: Adobe Illustrator 28.6.0, SVG Export Plug-In . SVG Version: 1.2.0 Build 709)  -->
  <g>
    <g id="Camada_1">
      <g>
        <path class="cls-1" d="M274,206.6c-1.2,0-2.3,0-3.5,0-16.7.2-22.3,4.7-25.7,21-.9,4.4-1.4,8.9-1.3,13.4.2,8.2,1,16.3,1.5,24.4.5,8.1,4.5,14.2,11.6,17.5,5.6,2.6,12,5,18,5,25.1.2,36.3-8.9,39.9-29.6,1.6-9,.4-18.5-.2-27.7-.4-5.9-4.2-10.4-8.7-14.1-9.2-7.5-19.7-10.9-31.6-9.9ZM206.6,206.7c0-.1,0-.3,0-.4-4.6.4-9.5.2-13.9,1.4-10.9,3-20.6,8.1-25.4,19.2-4.9,11.3-4.6,22.5-1.1,34.4,5.6,19.4,17.9,27.5,40.2,26.7,18-.6,26.8-9.5,28.7-27.4,1.3-12.3,2.3-24.6-1.2-36.8-3.7-12.6-8.4-16.4-21.2-17.1-2-.1-4,0-6,0ZM172,449c-3,5.5-6.2,10.1-8.1,15.1-6,15.9-10.1,32.5-7.7,49.4,2.3,15.9,6.6,31.5,10.2,47.2,2.7,11.5,5.5,23,8.8,34.4,3.2,11,6.9,21.9,10.8,32.7,1,2.6,3.8,4.6,5.8,6.8,1.6-2.6,3.9-5,4.8-7.8,1.5-4.6,2.3-9.4,2.9-14.2,5-38.2,1.5-75.5-10.9-112-5.7-16.8-10.9-33.9-16.5-51.7ZM309.4,449.5c-.4.2-.9.3-1.3.5-7.1,23.1-14.8,46-21.2,69.3-3.8,14.1-6.9,28.6-8.1,43-1.7,19.4-1.6,39,3.6,58.1,1.1,3.8,2,7.8,3.6,11.4,1.8,3.9,4.4,4.1,6.5.2,2.6-5,5.2-10.2,6.7-15.6,7.5-28,14.7-56.1,21.8-84.3,5.5-21.7,3.6-43.1-3.6-64.1-2.2-6.4-5.2-12.4-7.8-18.7ZM243.2,482.1c10.6-1.7,15.6-8.4,19-16.5,9.6-22.6,12.3-46.6,14.2-70.7,0-1.2-2.1-3.8-3.2-3.7-8.8.1-17.6.6-26.4,1.3-4,.3-5.3,3.1-5.2,7,.4,22.5.5,45,.8,67.5,0,5,.5,9.9.8,15.2ZM236.2,482.1c.3-3.2.8-6.1.8-9.1.3-24.7.5-49.3.9-74,0-4.2-1.8-6.5-5.6-6.8-8.6-.6-17.3-1-25.9-1.3-3.2-.1-3.8,2-3.4,4.7.9,7.6,1.4,15.3,2.5,22.9,2.5,17,5.4,33.9,13,49.6,3.5,7.1,8.4,12.3,17.6,14ZM121.4,234.8c.5,11.2,6.5,19.9,16.8,25.6,1.6.9,5,1.1,5.9.1,6.8-7.2,14.9-13.8,14.5-25.1,0-2.7-.1-5.3,0-8,.1-5.2,2.3-9.3,7.2-11.5,3.8-1.7,7.5-3.6,11.3-5.4,3.8-1.7,4.3-3.7,1.6-6.7-1-1.1-2.3-2-3.6-2.7-9.7-5.3-19.9-6.4-29.4-.3-12.2,7.8-23.7,16.6-24.2,34.1ZM320.9,233.6c-1.9,11.3,6.8,18.8,14.4,26.7,1,1,4.2.9,5.9.1,17.3-7.9,22.5-30.3,10.2-44.8-4.6-5.4-10.2-10.1-16-14.2-9.5-6.6-19.9-6.2-29.7-.5-2.3,1.3-3.7,4.4-5.5,6.6,2,1.3,3.9,2.9,6,3.7,12.2,5,14.9,8.7,14.7,22.2ZM369.7,331.4c-.6.2-1.2.4-1.8.6-.6,2.8-1.6,5.6-1.6,8.3-.4,17,1.2,33.5,8.2,49.4,9,20.6,17.1,41.5,25.8,62.2,1.2,2.8,3,5.2,4.5,7.9.5-.2,1-.3,1.6-.5,0-3.5.5-7.1,0-10.5-1.9-10.8-4.2-21.6-6.4-32.4-2.5-12.3-6.7-24.6-7.3-37-.8-14.8-6.7-26.9-14.3-38.8-2.2-3.5-5.6-6.2-8.5-9.3ZM273.4,118.9c.3,0,.7,0,1,0,.7-4.2,1.4-8.4,2.3-12.6,2-10.2,3.4-20.4.3-30.7-2.6-8.7-7.5-14.8-16.6-17.7-14.4-4.6-28.4-4.5-42.6.5-6.2,2.2-10.5,6-13.3,12-7.7,16.4-1.8,32.5,1.3,48.7.8-3.9.8-7.8,1.3-11.7.5-3.9,1.1-7.9,2.1-11.7,1.2-4.4,3.1-8.7,4.1-13.1,1.2-5.3,2.9-7.4,8.2-7.4,12.3,0,24.6,0,36.8,0,4.9,0,7.3,2.5,7.9,7.2.4,2.8.1,6.1,1.5,8.3,4.8,7.1,4.9,15,5,23,0,1.8.4,3.6.7,5.4ZM73.8,459c.8.3,1.5.5,2.3.8,1.6-2.9,3.6-5.7,4.8-8.8,8.4-21,16.3-42.3,25.1-63.2,6.3-15,7.8-30.6,7.5-46.5,0-3-1.5-5.9-2.3-8.9-2.7,2-6.2,3.4-7.9,6-7.9,11.9-15.9,23.9-15.6,39.2,0,4.6-1,9.2-1.9,13.8-3.6,18.8-7.5,37.6-11,56.4-.7,3.6-.6,7.4-.8,11.1ZM288.6,817.9c.7,0,1.3,0,2,.1,11.1-24.5,17.1-50.2,19.9-77,2.8-26.7,3-53.2-.7-79.8-1.1,1.6-1.6,3.3-1.9,5-3.7,21-7.4,42.1-10.9,63.1-4.5,26.8-9.3,53.6-9,81,0,2.5.4,5,.7,7.5ZM170.9,661.3c-5.6,53.7-3,106.4,19.8,156.6,1.2-1.7,1.8-3.3,1.8-5,.3-51.6-13.8-101.1-21.6-151.6ZM388.2,481.3c1,6.2,1.7,12.5,2.9,18.7,1.9,9,7.6,12.5,16.8,10.6,7.9-1.6,14.5-5.6,20.4-11,6-5.5,7.2-11.6,2.7-18.3-6.6-9.9-17.9-18.7-33.2-13-8,3-9.4,4.5-9.6,13ZM91.5,481.2c0-4.9-.8-9-5.5-11.6-12.2-6.8-32.4,0-38.1,12.7-3.3,7.5-1.9,12.2,4.5,17.4,6.6,5.3,13.5,9.9,22.1,11.1,7.9,1.1,12.2-1.7,13.8-9.4,1.4-6.7,2.3-13.5,3.4-20.2ZM274,698.6c-.5,0-1.1-.2-1.6-.3-1.7,16.7-3.7,33.4-4.8,50.1-.4,5.2.9,10.6,2.3,15.7,2.7,10.3,5.8,20.5,8.9,30.7,1.1,3.6,2.7,7,4.3,11.4.5-1.5.8-2,.8-2.5,1.8-20.8,3.4-41.6,5.6-62.3,1.1-10.7-1.3-20.1-6.8-29.1-2.9-4.6-5.7-9.2-8.6-13.9ZM197,805.5c.4,0,.7,0,1.1,0,.7-2.7,1.5-5.4,2.2-8.1,2.6-9.5,4.6-19.2,7.9-28.4,2.9-8.4,4.8-16.7,3.9-25.5-1.2-12.1-2.8-24.2-4.3-36.2-.4-3-1-6-1.7-10.3-3.8,7.3-6.9,13.3-10.2,19.2-4,7.2-5.6,14.8-4.8,23.1,1.3,12.8,2.3,25.6,3.4,38.4.8,9.2,1.6,18.5,2.4,27.7ZM301,446.5c-7.8,17.4-16,34.7-23.3,52.4-4.3,10.4-7.7,21.3-11,32.2-5.5,18.6-9.5,37.6-8.2,57.2.4,6,1.7,11.9,2.5,17.8.5,0,.9,0,1.4-.1,8.4-54.2,26.1-106,38.6-159.4ZM217.6,607.4c.8-2.6,1.2-3.8,1.5-5.1,4.1-17.8,2.2-35.5-1.6-53.1-7.6-35.2-22.1-67.8-36.8-100.3-.1-.3-.6-.5-1.5-1.2,14.1,52.9,28.7,105,38.4,159.6ZM305.5,374.4c-6.4,5-11.5,9.5-17.1,13.3-3.2,2.1-4.5,4.5-4.9,8.1-1.5,14.3-.6,29-5.9,42.8-1,2.6.7,4.2,3,3.4,3.2-1.1,6.6-2.5,9-4.8,5.7-5.5,11-11.6,16.3-17.6,1.3-1.5,2.2-3.8,2.2-5.7-.1-8.8-.5-17.7-1-26.5-.2-4.1-1-8.2-1.6-13ZM175.6,375c-.3,1-.8,1.8-.8,2.6-.8,12.5-1.7,24.9-2.3,37.4,0,1.2.6,2.7,1.4,3.6,6,6.7,12.1,13.4,18.3,19.9,1.3,1.4,3.3,2.3,5.1,3,1.3.5,3.3.7,4.1,0,.7-.6.6-2.7.4-4-.8-5.4-2.1-10.8-2.7-16.2-.9-8.4-1.2-17-2.1-25.4-.2-2.2-.9-5-2.4-6.2-6-5-12.3-9.5-19-14.5ZM276.8,332.7c1.6-8.8,4-16.6,4.1-24.5,0-5.9-2.5-11.8-9.3-14.5-6.3-2.5-12.3-5.9-18.5-8.7-5.1-2.3-8.4-1-9.1,4.5-.9,6.7-1,13.6-.9,20.4,0,1.8,1.5,4.2,3,5.2,7.2,4.7,14.7,9.1,22.2,13.4,2.4,1.4,4.9,2.5,8.6,4.3ZM203.2,332c1.4-.4,2.1-.4,2.7-.7,9.5-5.5,19-11,28.5-16.7,1-.6,2-2.2,1.9-3.3-.2-7.8-.2-15.6-1.1-23.3-.5-3.9-3.8-5.4-7.7-3.5-7.4,3.5-14.9,6.8-22,10.8-2.3,1.3-4.4,4.2-5.1,6.8-2.6,10,0,19.7,2.7,29.9ZM367,313.6c-.5-4.4-.7-9.9-1.7-15.3-1.9-10.6-7-19.7-14.3-27.5-4-4.3-8.4-3.4-10.4,2.1-1.3,3.5-2.2,7.4-2.1,11.1.4,13.1,4.9,25.2,11.8,36.1,2.2,3.4,6.8,5.7,10.7,7.5,3.5,1.6,6.2,0,6.1-4.4,0-2.8,0-5.7,0-9.6ZM112.6,315c0,2.7,0,5.3,0,8,.2,4.6,2.2,6.5,6.3,4.6,4.1-2,8.8-4.8,11-8.5,4-6.8,7-14.4,9.1-22,1.6-5.9,1.7-12.4,1.5-18.7-.1-4-1.1-8.9-6.1-9.9-4.7-.9-7,3.2-9.4,6.3-9.2,11.8-12.6,25.5-12.5,40.2ZM298.9,436.4c-.5-.4-1-.7-1.5-1.1-7.2,8-15.1,15.4-21.3,24.1-10.7,14.8-17.7,31.6-22.6,49.3-1.7,6.1.3,10.8,3.7,15.3,2.7,3.6,4.6,3.3,6.2-.9,1.8-4.7,3.4-9.4,5.1-14.1,3.6-9.9,6.9-19.9,11-29.5,5.5-12.8,11.8-25.3,17.7-38,.8-1.6,1.2-3.4,1.7-5.1ZM181.7,436.5c.9,2.4,1.8,4.8,2.7,7.1,7.2,17.1,14.6,34,21.5,51.2,3.7,9.1,6.7,18.5,10.1,27.8,1.7,4.7,3.8,5,6.8.9,3.3-4.4,4.9-9.1,3.3-14.9-5-17.9-12.5-34.5-22.8-49.9-5.8-8.6-12.5-16.3-21.6-22.2ZM324.3,253.5c-.9,1.2-1.5,1.7-1.8,2.4-3.1,9.6-5.4,19.3-2.2,29.4,1.5,4.6,2.8,9.3,4.3,13.8,5,14.6,11.1,28.6,20.9,40.7,1.2,1.5,4.1,1.6,6.2,2.4.6-2.4,1.3-4.8,1.7-7.2.1-.7-.6-1.5-.9-2.3-10.9-24.4-21.8-48.7-26.6-75.2-.2-1.2-.9-2.4-1.6-4.1ZM155.1,254c-.5,1.5-1.3,2.9-1.5,4.5-3.8,21.2-11.7,40.9-20.3,60.5-2.3,5.3-5.1,10.5-6.8,16.1-.6,2.1,1.1,5,1.8,7.5,2-.8,4.2-1.3,5.8-2.6,1.6-1.3,2.8-3.3,4-5.1,10.8-16.1,17.2-34.2,22-52.8,2.5-9.7-.4-18.9-5-28ZM277.1,661.7c-.7,8.3,2.5,16.5,9.6,23.1,4.6,4.3,10.6,3.7,12.8-2.1,3.5-9.3,6-19,8.1-28.7,1-4.9-2.2-7.8-7.3-8-3.5-.1-7,.1-10.5.4-12.1,1-12.7,1.6-12.6,15.2ZM166.5,685.4c-.7-.2-1.5-.3-2.2-.5-.7,2.7-1.8,5.4-1.9,8.2-.7,16.8-1.7,33.7-1.5,50.5.2,12.1,1.5,24.3,3.6,36.3,2,11.3,5.7,22.2,8.5,33.4,1.8,7.3,4,14.5,2.3,22.2-.2,1.1.3,2.4.5,3.6,2.3-1.7,3.6-3.6,4.4-5.6,3.4-8.1,2.4-16.3.6-24.6-4.7-21.7-9.2-43.4-14-65.1-3.3-15.1-3.6-30.3-1.1-45.5.7-4.2.5-8.5.8-12.7ZM185.9,646.1c-12-.5-14.9,2.8-12,14.5,1.7,7.1,3.9,14.1,6.6,20.9,2.8,7,9.1,8.1,14.2,2.5,2.4-2.6,4.9-5.9,5.5-9.2,1.4-6.8,1.7-13.8,2.1-20.7.3-4.6-2.2-7-6.9-7.1-3.2-.1-6.3-.6-9.4-.9ZM258.4,387.6c3.8-.3,8.5-.3,13.1-1.2,2-.4,4.8-2.5,5.1-4.2.8-5.5.8-11.2.7-16.9,0-1-1.3-2.6-2.2-2.8-9.7-1.6-19.3-3.2-29.1-4.3-1.2-.1-3.8,2.4-3.8,3.7-.3,7,0,14,.3,21,0,3.2,1.6,4.8,5.1,4.6,3.3-.2,6.7,0,10.9,0ZM221.4,387.6c3.6,0,6.8-.2,9.9,0,4.2.4,5.8-1.7,5.9-5.4.2-6.5.3-13,.4-19.5,0-3.3-1.6-5-4.9-4.6-6.3.8-12.6,1.4-18.7,2.6-13.4,2.7-13.4,2.9-11.9,16.9.1,1,.2,2,.3,3,.4,3.9,2.4,6,6.5,6.1,4.3.2,8.6.6,12.5.8ZM237.1,338.9h0c0-4.2.2-8.4,0-12.5-.4-4.8-2.9-6.1-7.1-3.9-5.2,2.7-10.2,5.8-15.5,8.1-9.5,4.1-12.1,11.8-11.5,21.1,0,1.3,1.8,3.5,2.9,3.5,8.8.3,17.6.4,26.4.3,3.4,0,5-2.2,4.9-5.7,0-3.7,0-7.3,0-11ZM303.4,838.9c.5,0,.9-.1,1.4-.2.2-.8.6-1.6.5-2.2-1.9-10.1,1.1-19.6,3.8-29,9.8-34.5,11.7-69.6,9.3-105.1-.4-5.8-1.7-11.4-2.5-17.2-.6,0-1.3.2-1.9.3,0,1.6.2,3.1.2,4.7.3,14.7,1.9,29.5.4,43.9-1.8,17.3-6,34.4-9.4,51.6-2,9.8-4.7,19.5-6.6,29.3-1.6,8.6-.3,16.7,4.7,23.9ZM242.5,338.3s0,0,0,0c0,3.7,0,7.3,0,11-.1,4,1.6,6.5,5.7,6.5,8.3,0,16.6,0,24.9-.3,1.2,0,3.2-1.4,3.5-2.6,2-7.2-1.7-16.3-8.3-20.2-6.1-3.6-12.5-6.9-18.9-10.2-3.9-2-6.5-.6-6.8,3.9-.3,4,0,8,0,12ZM282,881c4-3,7.4-5.7,10.8-8.2,3.5-2.6,7.3-4.8,10.4-7.7,1.5-1.3,2.7-4.2,2.3-6-1.2-6.9-2.8-13.7-4.9-20.4-2.2-7.1-7.7-8.3-12.3-2.6-5.7,7.2-10.5,15.1-11.2,24.6-.5,7.2-.8,14.7,4.7,20.3ZM156,536.5l-1.9.2c-.2,1.6-.6,3.2-.5,4.8.8,11.8,1.2,23.7,2.9,35.4,1.5,10.8,3.8,21.7,7.1,32.2,3,9.2,7.9,17.8,12,26.7.6,1.4,1.7,2.6,2.6,3.8.5,0,1.1-.1,1.6-.2.5-2.6,1.9-5.4,1.4-7.8-1.2-6.9-2.6-13.7-4.7-20.3-7-21.7-14.5-43.2-17.9-65.9-.4-3-1.7-5.8-2.6-8.8ZM198.7,881.1c.7-1.7,1.9-3.7,2.4-5.8,3.7-13.9.4-26.4-7.9-37.7-1.7-2.3-5.7-4.9-8-4.4-2.4.5-4.7,4.4-5.7,7.2-1.9,5.5-2.8,11.3-4.3,16.9-.9,3.5-.3,6.3,2.6,8.5,3.3,2.5,6.8,4.7,10.2,7.2,3.3,2.4,6.5,5,10.6,8.1ZM395.7,459.2c.7-.4,1.4-.7,2-1.1-.7-2.6-1.1-5.3-2-7.8-2-5.1-4.2-10.1-6.3-15.1-5.5-13.6-11.2-27.1-16.4-40.8-3.9-10.2-7-20.8-10.4-31.2-.9-2.8-1.4-5.9-2.8-8.5-.8-1.4-3.1-2.5-4.8-2.6-.9,0-2.5,2.4-2.7,3.8-.4,2.9-.5,6,0,8.9,1.7,12.1,6.4,23,12.9,33.3,3.4,5.3,6.6,10.9,9.2,16.6,5.7,12.4,10.8,25.1,16.4,37.6,1.1,2.5,3.4,4.6,5.1,6.8ZM83.2,458.2l2.1.8c2-4,4.3-7.8,6-11.9,7.7-18.3,15.1-36.7,25.8-53.6,4.3-6.8,6.8-14.8,9.1-22.6,1.4-4.7,1.2-9.9,1.2-14.8,0-1.4-1.8-4.1-2.5-4-1.9.3-4.4,1.3-5.2,2.8-1.5,2.9-2,6.3-3,9.5-2.5,8.1-4.5,16.4-7.5,24.3-8.2,21.3-16.8,42.5-25.1,63.8-.7,1.8-.6,3.9-.9,5.9ZM301.1,640.3c13.9-14.4,30.2-88.6,23-105.2-1.4,4.4-2.7,7.5-3.3,10.8-3.9,23.1-9.7,45.7-17.7,67.7-2.2,6-2.9,12.6-3.8,19-.3,2.1,1,4.5,1.8,7.8ZM189.9,884.4c.2-4.7-8.4-10.2-11.8-8.4-.4.2-.7.7-1,1-6,7.7-12.1,15.4-18,23.1-3.2,4.1-3,6.1,2.1,7.6,7,2.1,14.2,3.3,21.4,4.6.7.1,2.5-1.5,2.5-2.3.2-9.1,8.7-16.7,4.9-25.8ZM289.8,889.4c0,.3,0,.7,0,1,1.9,6.8,3.8,13.7,5.9,20.5.2.7,1.8,1.7,2.6,1.5,6.8-1.4,13.7-2.6,20.3-4.7,4.7-1.5,4.9-3.4,2-7.4-5.6-7.6-11.2-15.3-16.9-22.8-.8-1-2.8-1.7-4.1-1.4-7.5,1.4-9.9,4.6-9.9,13.3ZM274.3,570.1c-6.7,15.4-10,32.3-8,50.1.7,6,1,11.9,1.7,17.9.2,1.5.9,3.9,1.9,4.1,1.4.4,3.6-.3,4.8-1.4,4.4-3.8,4.6-9,4.1-14.3-1.5-19.1-3-38.1-4.4-56.5ZM204.9,569.3c-.5,0-1,0-1.5.1,0,11.2.3,22.3-.1,33.5-.3,8.2-1.8,16.3-2.5,24.4-.5,5.1,0,10.1,4.3,13.7,1.1.9,3.2,1.8,4.4,1.3,1.1-.4,1.9-2.5,2.1-4,.7-5.3.8-10.6,1.5-15.9,2.3-18.5-.6-36.2-8.1-53.1ZM269.8,654c-6.2,9.1,12.3,59,24.2,66.3,0-2.5.5-4.7,0-6.5-2.2-6.8-4.3-13.7-7.3-20.1-5.2-11.3-12.1-21.8-14.1-34.4-.3-1.6-1.6-3.1-2.7-5.3ZM238.9,188.6c.5,0,1.1,0,1.6,0,4.5-10.5,8.9-21,13.1-30.9h-27.7c4.2,10.1,8.6,20.5,13,30.9ZM209.5,653.6c-1.3,3.2-2.2,5.4-3.1,7.6-3.6,9.5-7,19-10.6,28.4-2.9,7.8-6.2,15.4-9,23.2-.8,2.1-.3,4.6-.5,7,.5.1,1,.3,1.5.4,1.3-1.6,2.8-3.1,3.8-4.8,8.8-15.7,15.3-32.5,20.3-49.8,1-3.6,1.4-7.5-2.5-12ZM246.9,206.3c9.3-16.9,18.2-32.7,16.3-52.3-10.3,6.3-22,41.9-16.3,52.3ZM232.6,206.1c6-10.4-6.7-48.2-16.3-51.7-1.7,19.3,7,34.9,16.3,51.7ZM285.7,384.4c14.3-1.9,24.1-19.6,18.4-33.3-2.7,2.3-5.3,4.6-8,6.8q-11.9,10-10.7,25.6c0,.2,0,.3.3.9ZM176.1,350.7c-3.4,17.8,5.3,32.6,19.5,33.6,0-4.7.2-9.3,0-14,0-1.7-.8-3.8-2-4.8-5.5-5-11.3-9.7-17.5-14.8ZM253.6,570.4c.5,0,.9,0,1.4,0,1.7-9.8,3.3-19.6,5-29.4,1.3-7.2-4.4-18.1-12.2-22,.5,17.7,2.1,34.7,5.8,51.4ZM230.4,518c-4.1,5.6-7.7,10.3-11.1,15.1-.5.7-.6,2-.5,2.9,1.9,11.6,3.9,23.2,6,35.2,3.8-6.6,8.1-45.1,5.6-53.2ZM284.5,363c.5.2,1.1.5,1.6.7,5.1-4.5,10.2-8.9,15.2-13.4,5.9-5.3,5.6-11.8,4.1-19-6.7,4.8-13,9.3-19.2,14-.9.7-1.6,2.2-1.7,3.4-.2,4.8,0,9.5,0,14.3ZM175.4,331.6c-3.6,11.8,4.8,25.1,20.8,31.8,0-4.5.1-8.7,0-12.8,0-1.7-.3-4.2-1.4-5.1-6.2-4.9-12.8-9.4-19.3-14ZM348.7,361.4c-5.7,2.7-4.2,6.9-2.3,10.9,12.7,26.9,25.5,53.9,38.3,80.8,1.3,2.8,2.9,5.4,4.3,8.1.4-.2.8-.4,1.2-.6-6.7-17.8-12.1-36.3-22.7-52.4-9.3-14.1-16.1-28.7-18.1-45.5,0-.4-.5-.8-.8-1.3ZM130.5,360.9c-.5,2.9-.9,5.2-1.3,7.4-2,11.3-5.4,22.3-12,31.6-12.4,17.4-19,37.4-26.5,57-.5,1.2-.6,2.5-1,3.7,3.2-3.9,5.3-8,7.3-12.2,8.5-17.6,17.1-35.1,25.5-52.7,4.1-8.6,7.7-17.4,11.6-26.1,1.7-3.7.5-6.4-3.6-8.8ZM267.1,180.1c0,3.6,0,6,0,8.5.3,13.6,1.5,14.9,15.1,13.7,4.4-.4,8.7-1.6,14.2-2.6-10.3-6.9-19.2-12.8-29.3-19.5ZM184.6,199.6c8.2,2.4,15.7,3.4,23.4,2.6,1-.1,2.3-1.1,2.7-1.9,2.4-6.3,2.4-12.8,1.2-19.8-9.2,6.5-17.6,12.4-27.3,19.2ZM40.8,548.5c.6.5,1.3.9,1.9,1.4,1.7-1.7,4.1-3,5.1-5,4.7-9.5,9.1-19.2,13.6-28.8,1-2.2,1.9-4.2-1.4-5.1-2.3-.6-4.9-1.7-6.3,1.8-3.8,9.8-7.8,19.4-11.6,29.2-.8,2.1-1,4.4-1.5,6.6ZM436.8,550c.5-.4,1.1-.8,1.6-1.2,0-.8.4-1.7.1-2.4-4-11.4-7.9-22.9-12.3-34.2-.4-1-4.2-.9-6.4-.8-.4,0-1.3,3.1-.8,4.2,4,9.7,8,19.3,12.5,28.8,1,2.2,3.4,3.7,5.2,5.5ZM195.4,299.2c-.5-.2-1-.5-1.5-.7-4.4,3.9-8.9,7.8-13.2,11.9-.7.7-1,2.9-.5,3.4,4.4,4.1,9,7.9,13.6,11.8.5-.4,1-.8,1.6-1.1v-25.2ZM286.1,342.2c4.5-3,8.7-5.6,12.7-8.5,7.5-5.3,7.7-7.3,2.3-15.5-3.3,2.1-6.6,4.3-9.9,6.4-6.4,4.2-7.9,8.5-5.2,17.5ZM286.6,298.4l-2,.9c0,7.4,0,14.9,0,22.3,0,2.5,1.4,4.1,3.8,2.3,4-2.9,7.8-6.1,11.5-9.5.7-.6.8-3.1.1-3.8-4.3-4.2-8.9-8.2-13.4-12.2ZM194.5,342.5c2.9-12.3-1.3-18.3-16.9-24.6-.2,4.3-2.1,9.7-.3,11.6,4.6,5,10.9,8.4,17.2,12.9ZM28.8,536.5c.6.3,1.2.6,1.8.9,2.8-3.7,5.7-7.4,8.5-11.1,3.7-4.9,7.2-9.9,10.8-14.9,1.2-1.6,2.2-3.3,3.2-5-1.9-1.1-3.8-3-5.7-3.1-1.5,0-3.6,1.8-4.5,3.4-4.2,7.3-8.3,14.8-12.1,22.4-1.2,2.3-1.4,5.1-2.1,7.6ZM448.9,537.2c.5-.2,1.1-.4,1.6-.6-.3-2-.1-4.3-1-6-4.4-8.7-9.1-17.3-13.8-25.9-1.9-3.6-4.8-1.9-6.6-.2-1,1-1.3,4.1-.5,5.3,4.7,7,9.8,13.8,14.8,20.6,1.7,2.4,3.7,4.6,5.5,6.9ZM285.6,883.3c-2.5,4.7-4.9,8.3-6.4,12.3-.8,1.9-.3,4.6.2,6.7.7,2.8,1.5,5.9,3.2,8,1.7,2,4.7,2.8,7.1,4.1.6-1.9,2-4,1.7-5.8-.7-5.7-1.9-11.4-3.2-17.1-.6-2.7-1.7-5.2-2.8-8.2ZM195.7,883.6c-.8,1.1-1.6,1.8-1.8,2.7-1.8,8.1-3.7,16.1-5.2,24.3-.5,2.8,1,4.3,4.2,3.6,4.1-.9,9.7-12.6,8-17.7-1.4-4.2-3.3-8.2-5.2-12.8ZM164.2,287.8c-.1,1-1,2.9-.4,4.1,3,5.7,6.2,11.3,9.6,16.7.4.7,2.7,1.1,3.3.6,3.4-2.7,6.6-5.7,9.7-8.6-7.7-4.4-14.8-8.5-22.3-12.8ZM315.3,288.7c-7,3.9-13.9,7.7-21.4,11.8,3.1,2.9,6.1,5.8,9.3,8.4.8.6,2.6.7,3.5.2,4.5-2.8,9.6-16.1,8.6-20.4ZM60.2,547.1c.3.7,1,2.1,1.6,3.4,1.2-1.3,3.3-2.4,3.6-3.9,2.1-9.4,3.9-18.9,5.8-28.3.5-2.2.4-4.4-2.4-4.2-1.4.1-3.6,1.8-3.8,3-1.8,9.6-3.2,19.4-4.8,30ZM418.1,551.1c.5-.2,1-.4,1.5-.5.2-1.5.6-3.1.4-4.6-1.3-9.5-2.9-19.1-4.3-28.6-.4-2.5-1.5-4.4-4.1-3.2-1.2.6-2.4,3-2.1,4.3,1.7,9.5,3.6,18.9,5.7,28.3.4,1.6,1.9,2.9,2.9,4.3ZM435.2,476.8c-.4.2-.8.4-1.2.6,1.5,4.5,2.7,9.2,4.6,13.6,2.5,5.7,6.7,10,12.6,12.2,1.5.6,3.6-.4,5.4-.6-.8-2-1.1-5.1-2.5-5.8-5.6-2.7-9-7.2-12.3-12.1-1.9-2.9-4.5-5.3-6.7-7.9ZM22.1,502.9c11.2,2.9,22.1-12,22.6-26.4-2.4,2.6-4.8,4.8-6.5,7.4-3.6,5.3-7.2,10.3-13.2,13.2-1.5.7-1.9,3.6-2.9,5.8ZM167.6,275.9c-1.3,6,0,11.1,3.8,13.2,4.2,2.3,8.8,3.9,13.3,5.5,1,.4,3.4-.4,3.6-1.1.4-1.1-.1-3.3-1-3.9-6.4-4.6-13-9-19.8-13.6ZM313.1,275.8c-7,4.8-13.7,9.3-20.1,14.1-.8.6-.9,2.8-.6,4,.1.5,2.4,1,3.4.7,3.5-1,7-2.2,10.3-3.7,6.7-3.1,8.4-6.8,7.1-15ZM172.2,327.2c5.9-9.3,1.9-21.4-7.7-23.2,0,8.6,3.1,15.9,7.7,23.2ZM308.2,326.9c5.3-6.9,7.8-14.3,6.5-23.4-10.6,9.4-12,14.3-6.5,23.4ZM227.5,205.5c-4-9.1-7.6-17.1-11.4-25.6-4.2,12.1-.7,20.3,11.4,25.6ZM263.6,179.8c-3.8,8.7-7.4,16.8-11.3,25.7,11.9-5.3,15.3-13.3,11.3-25.7ZM396.7,512.9c2.2,9-1.4,18.4,4,26.8,1.1-1.7,1.7-3.3,1.7-5,.2-5.8.1-11.6.4-17.4.2-4.1-2.1-4.6-6.1-4.4ZM83.8,512.9c-5.8.6-6,.6-6,4.7,0,5.8.2,11.6.4,17.4,0,1.6.8,3.2,1.2,4.8,5.8-8.5,2.5-17.8,4.4-27ZM291.9,823.6c-8-1.2-14.3,8.7-11.5,17.5,3.8-5.8,7.5-11.4,11.5-17.5ZM188.8,823.9c3.6,5.5,7.3,10.9,11.2,16.7.8-12.1-4.1-19.3-11.2-16.7Z"/>
        <path class="cls-1" d="M274,206.6c11.9-1,22.4,2.4,31.6,9.9,4.6,3.7,8.3,8.2,8.7,14.1.6,9.2,1.8,18.8.2,27.7-3.6,20.7-14.8,29.8-39.9,29.6-6.1,0-12.4-2.4-18-5-7-3.3-11.1-9.4-11.6-17.5-.5-8.1-1.3-16.3-1.5-24.4-.1-4.5.4-9,1.3-13.4,3.4-16.4,9-20.8,25.7-21,1.2,0,2.3,0,3.5,0Z"/>
        <path class="cls-1" d="M206.6,206.7c2,0,4,0,6,0,12.8.7,17.6,4.5,21.2,17.1,3.5,12.2,2.5,24.5,1.2,36.8-1.9,17.9-10.7,26.8-28.7,27.4-22.2.8-34.6-7.3-40.2-26.7-3.5-11.9-3.8-23.1,1.1-34.4,4.8-11.1,14.5-16.2,25.4-19.2,4.4-1.2,9.3-1,13.9-1.4,0,.1,0,.3,0,.4Z"/>
        <path class="cls-1" d="M172,449c5.7,17.9,10.8,34.9,16.5,51.7,12.4,36.5,15.9,73.8,10.9,112-.6,4.8-1.5,9.6-2.9,14.2-.9,2.8-3.1,5.2-4.8,7.8-2-2.3-4.8-4.2-5.8-6.8-3.9-10.8-7.6-21.7-10.8-32.7-3.3-11.4-6.1-22.9-8.8-34.4-3.7-15.7-8-31.3-10.2-47.2-2.4-17,1.7-33.5,7.7-49.4,1.9-5,5.1-9.6,8.1-15.1Z"/>
        <path class="cls-1" d="M309.4,449.5c2.6,6.2,5.7,12.3,7.8,18.7,7.2,21,9.1,42.4,3.6,64.1-7.1,28.1-14.3,56.2-21.8,84.3-1.4,5.4-4,10.6-6.7,15.6-2,3.8-4.7,3.7-6.5-.2-1.6-3.6-2.5-7.6-3.6-11.4-5.2-19.1-5.3-38.7-3.6-58.1,1.3-14.5,4.3-29,8.1-43,6.4-23.3,14.1-46.2,21.2-69.3.4-.2.9-.3,1.3-.5Z"/>
        <path class="cls-1" d="M243.2,482.1c-.3-5.3-.7-10.2-.8-15.2-.3-22.5-.4-45-.8-67.5,0-4,1.2-6.7,5.2-7,8.8-.7,17.6-1.1,26.4-1.3,1.1,0,3.3,2.5,3.2,3.7-1.9,24.1-4.6,48.2-14.2,70.7-3.4,8.1-8.4,14.8-19,16.5Z"/>
        <path class="cls-1" d="M236.2,482.1c-9.1-1.7-14.1-6.9-17.6-14-7.7-15.7-10.6-32.6-13-49.6-1.1-7.6-1.7-15.2-2.5-22.9-.3-2.7.3-4.8,3.4-4.7,8.6.3,17.3.6,25.9,1.3,3.8.3,5.7,2.6,5.6,6.8-.4,24.7-.6,49.3-.9,74,0,2.9-.5,5.9-.8,9.1Z"/>
        <path class="cls-1" d="M121.4,234.8c.6-17.4,12-26.3,24.2-34.1,9.5-6.1,19.7-5,29.4.3,1.3.7,2.6,1.6,3.6,2.7,2.7,3.1,2.2,5-1.6,6.7-3.8,1.7-7.5,3.6-11.3,5.4-5,2.3-7.1,6.3-7.2,11.5,0,2.7,0,5.3,0,8,.4,11.4-7.7,18-14.5,25.1-.9,1-4.3.8-5.9-.1-10.3-5.7-16.3-14.4-16.8-25.6Z"/>
        <path class="cls-1" d="M320.9,233.6c.2-13.5-2.5-17.2-14.7-22.2-2.2-.9-4-2.5-6-3.7,1.8-2.2,3.1-5.2,5.5-6.6,9.9-5.8,20.2-6.1,29.7.5,5.8,4,11.5,8.8,16,14.2,12.3,14.5,7,36.9-10.2,44.8-1.7.8-4.9.9-5.9-.1-7.5-8-16.3-15.5-14.4-26.7Z"/>
        <path class="cls-1" d="M369.7,331.4c2.9,3.1,6.3,5.8,8.5,9.3,7.5,11.8,13.4,24,14.3,38.8.7,12.4,4.8,24.7,7.3,37,2.2,10.8,4.5,21.5,6.4,32.4.6,3.4,0,7,0,10.5-.5.2-1,.3-1.6.5-1.5-2.6-3.4-5.1-4.5-7.9-8.6-20.7-16.8-41.6-25.8-62.2-6.9-15.9-8.6-32.4-8.2-49.4,0-2.8,1.1-5.6,1.6-8.3.6-.2,1.2-.4,1.8-.6Z"/>
        <path class="cls-1" d="M273.4,118.9c-.2-1.8-.6-3.6-.7-5.4-.1-8-.2-15.9-5-23-1.4-2.1-1.2-5.5-1.5-8.3-.6-4.7-3-7.2-7.9-7.2-12.3,0-24.6,0-36.8,0-5.3,0-7,2.1-8.2,7.4-1,4.5-3,8.7-4.1,13.1-1,3.8-1.7,7.7-2.1,11.7-.5,3.9-.5,7.8-1.3,11.7-3.1-16.2-9-32.2-1.3-48.7,2.8-5.9,7.1-9.8,13.3-12,14.2-5,28.3-5.1,42.6-.5,9.1,2.9,14,9,16.6,17.7,3.1,10.3,1.7,20.5-.3,30.7-.8,4.2-1.5,8.4-2.3,12.6-.3,0-.7,0-1,0Z"/>
        <path class="cls-1" d="M73.8,459c.3-3.7.1-7.5.8-11.1,3.6-18.8,7.4-37.6,11-56.4.9-4.6,2-9.2,1.9-13.8-.2-15.3,7.7-27.3,15.6-39.2,1.7-2.6,5.2-4,7.9-6,.8,3,2.3,5.9,2.3,8.9.3,15.9-1.2,31.5-7.5,46.5-8.7,20.9-16.7,42.2-25.1,63.2-1.2,3.1-3.2,5.9-4.8,8.8-.8-.3-1.5-.5-2.3-.8Z"/>
        <path class="cls-1" d="M288.6,817.9c-.2-2.5-.7-5-.7-7.5-.2-27.4,4.5-54.2,9-81,3.5-21.1,7.3-42.1,10.9-63.1.3-1.7.8-3.4,1.9-5,3.7,26.6,3.5,53.1.7,79.8-2.8,26.8-8.8,52.6-19.9,77-.7,0-1.3,0-2-.1Z"/>
        <path class="cls-1" d="M170.9,661.3c7.8,50.5,22,100,21.6,151.6,0,1.7-.6,3.3-1.8,5-22.8-50.2-25.4-102.9-19.8-156.6Z"/>
        <path class="cls-1" d="M388.2,481.3c.2-8.6,1.6-10.1,9.6-13,15.3-5.7,26.7,3.1,33.2,13,4.5,6.8,3.2,12.9-2.7,18.3-5.8,5.4-12.5,9.4-20.4,11-9.2,1.9-14.9-1.6-16.8-10.6-1.3-6.2-2-12.5-2.9-18.7Z"/>
        <path class="cls-1" d="M91.5,481.2c-1.1,6.7-2,13.5-3.4,20.2-1.6,7.7-5.9,10.5-13.8,9.4-8.6-1.2-15.5-5.7-22.1-11.1-6.4-5.2-7.8-10-4.5-17.4,5.7-12.8,25.9-19.5,38.1-12.7,4.7,2.6,5.5,6.7,5.5,11.6Z"/>
        <path class="cls-1" d="M274,698.6c2.9,4.6,5.8,9.2,8.6,13.9,5.5,8.9,8,18.4,6.8,29.1-2.2,20.7-3.7,41.5-5.6,62.3,0,.5-.3.9-.8,2.5-1.7-4.4-3.2-7.8-4.3-11.4-3.1-10.2-6.2-20.4-8.9-30.7-1.3-5.1-2.6-10.6-2.3-15.7,1.2-16.7,3.2-33.4,4.8-50.1.5,0,1.1.2,1.6.3Z"/>
        <path class="cls-1" d="M197,805.5c-.8-9.2-1.6-18.5-2.4-27.7-1.1-12.8-2.1-25.6-3.4-38.4-.8-8.3.8-15.9,4.8-23.1,3.3-5.9,6.4-12,10.2-19.2.7,4.3,1.3,7.3,1.7,10.3,1.5,12.1,3.2,24.1,4.3,36.2.8,8.7-1,17.1-3.9,25.5-3.3,9.2-5.3,18.9-7.9,28.4-.7,2.7-1.5,5.4-2.2,8.1-.4,0-.7,0-1.1,0Z"/>
        <path class="cls-1" d="M301,446.5c-12.5,53.4-30.2,105.2-38.6,159.4-.5,0-.9,0-1.4.1-.9-5.9-2.1-11.8-2.5-17.8-1.3-19.6,2.7-38.6,8.2-57.2,3.2-10.9,6.6-21.8,11-32.2,7.3-17.6,15.5-34.9,23.3-52.4Z"/>
        <path class="cls-1" d="M217.6,607.4c-9.7-54.7-24.3-106.8-38.4-159.6.9.7,1.4.8,1.5,1.2,14.7,32.6,29.3,65.2,36.8,100.3,3.8,17.6,5.7,35.3,1.6,53.1-.3,1.3-.7,2.5-1.5,5.1Z"/>
        <path class="cls-1" d="M305.5,374.4c.6,4.9,1.3,8.9,1.6,13,.5,8.8.9,17.6,1,26.5,0,1.9-.9,4.2-2.2,5.7-5.2,6-10.5,12.1-16.3,17.6-2.4,2.3-5.8,3.7-9,4.8-2.3.8-4.1-.8-3-3.4,5.3-13.8,4.4-28.5,5.9-42.8.4-3.5,1.7-6,4.9-8.1,5.6-3.8,10.8-8.3,17.1-13.3Z"/>
        <path class="cls-1" d="M175.6,375c6.7,5,13.1,9.5,19,14.5,1.5,1.3,2.1,4,2.4,6.2.9,8.5,1.2,17,2.1,25.4.6,5.4,1.8,10.8,2.7,16.2.2,1.4.4,3.4-.4,4-.9.7-2.9.5-4.1,0-1.8-.7-3.8-1.6-5.1-3-6.2-6.5-12.3-13.2-18.3-19.9-.8-.9-1.4-2.4-1.4-3.6.7-12.5,1.5-24.9,2.3-37.4,0-.8.5-1.6.8-2.6Z"/>
        <path class="cls-1" d="M276.8,332.7c-3.6-1.8-6.2-2.9-8.6-4.3-7.5-4.4-14.9-8.7-22.2-13.4-1.5-1-3-3.4-3-5.2,0-6.8,0-13.6.9-20.4.7-5.5,4-6.8,9.1-4.5,6.2,2.8,12.2,6.2,18.5,8.7,6.9,2.7,9.4,8.6,9.3,14.5,0,7.9-2.5,15.8-4.1,24.5Z"/>
        <path class="cls-1" d="M203.2,332c-2.8-10.1-5.4-19.8-2.7-29.9.7-2.6,2.8-5.5,5.1-6.8,7.1-4,14.6-7.3,22-10.8,3.9-1.8,7.2-.4,7.7,3.5.9,7.7,1,15.5,1.1,23.3,0,1.1-1,2.7-1.9,3.3-9.4,5.7-19,11.2-28.5,16.7-.5.3-1.3.3-2.7.7Z"/>
        <path class="cls-1" d="M367,313.6c0,3.9,0,6.8,0,9.6.1,4.5-2.6,6-6.1,4.4-3.9-1.8-8.5-4.1-10.7-7.5-6.9-10.9-11.4-23-11.8-36.1-.1-3.7.8-7.6,2.1-11.1,2-5.5,6.4-6.4,10.4-2.1,7.3,7.8,12.4,16.9,14.3,27.5,1,5.4,1.2,10.9,1.7,15.3Z"/>
        <path class="cls-1" d="M112.6,315c-.1-14.7,3.2-28.4,12.5-40.2,2.4-3.1,4.6-7.3,9.4-6.3,5,1,6,5.9,6.1,9.9.2,6.2.1,12.7-1.5,18.7-2.1,7.6-5.1,15.2-9.1,22-2.2,3.8-6.9,6.5-11,8.5-4.1,2-6.1,0-6.3-4.6,0-2.7,0-5.3,0-8Z"/>
        <path class="cls-1" d="M298.9,436.4c-.6,1.7-1,3.5-1.7,5.1-5.9,12.7-12.2,25.1-17.7,38-4.1,9.6-7.4,19.6-11,29.5-1.7,4.7-3.3,9.4-5.1,14.1-1.6,4.2-3.5,4.5-6.2.9-3.4-4.5-5.4-9.2-3.7-15.3,4.9-17.7,11.9-34.4,22.6-49.3,6.2-8.6,14.1-16.1,21.3-24.1.5.4,1,.7,1.5,1.1Z"/>
        <path class="cls-1" d="M181.7,436.5c9.1,5.9,15.8,13.6,21.6,22.2,10.3,15.4,17.9,32,22.8,49.9,1.6,5.9,0,10.5-3.3,14.9-3,4-5,3.7-6.8-.9-3.4-9.2-6.4-18.7-10.1-27.8-7-17.1-14.3-34.1-21.5-51.2-1-2.4-1.8-4.8-2.7-7.1Z"/>
        <path class="cls-1" d="M324.3,253.5c.7,1.7,1.3,2.9,1.6,4.1,4.8,26.5,15.7,50.9,26.6,75.2.3.8,1.1,1.6.9,2.3-.4,2.4-1.1,4.8-1.7,7.2-2.1-.8-5-.9-6.2-2.4-9.8-12-15.9-26.1-20.9-40.7-1.6-4.6-2.9-9.2-4.3-13.8-3.2-10.1-.9-19.8,2.2-29.4.2-.7.9-1.3,1.8-2.4Z"/>
        <path class="cls-1" d="M155.1,254c4.6,9.1,7.5,18.3,5,28-4.8,18.6-11.2,36.6-22,52.8-1.2,1.8-2.3,3.8-4,5.1-1.6,1.3-3.8,1.8-5.8,2.6-.7-2.5-2.5-5.4-1.8-7.5,1.7-5.5,4.5-10.7,6.8-16.1,8.6-19.6,16.5-39.3,20.3-60.5.3-1.5,1-3,1.5-4.5Z"/>
        <path class="cls-1" d="M277.1,661.7c0-13.6.5-14.2,12.6-15.2,3.5-.3,7-.5,10.5-.4,5.1.2,8.3,3.1,7.3,8-2.1,9.7-4.6,19.4-8.1,28.7-2.1,5.8-8.2,6.4-12.8,2.1-7.1-6.6-10.3-14.9-9.6-23.1Z"/>
        <path class="cls-1" d="M166.5,685.4c-.2,4.2,0,8.6-.8,12.7-2.4,15.3-2.2,30.4,1.1,45.5,4.8,21.7,9.3,43.4,14,65.1,1.8,8.3,2.8,16.5-.6,24.6-.9,2.1-2.1,3.9-4.4,5.6-.2-1.2-.8-2.5-.5-3.6,1.7-7.7-.5-14.9-2.3-22.2-2.8-11.1-6.5-22.1-8.5-33.4-2.1-11.9-3.4-24.2-3.6-36.3-.3-16.8.8-33.6,1.5-50.5.1-2.7,1.3-5.4,1.9-8.2.7.2,1.5.3,2.2.5Z"/>
        <path class="cls-1" d="M185.9,646.1c3.1.3,6.3.8,9.4.9,4.7.2,7.2,2.5,6.9,7.1-.4,6.9-.7,13.9-2.1,20.7-.7,3.3-3.1,6.6-5.5,9.2-5.1,5.5-11.4,4.4-14.2-2.5-2.7-6.8-4.9-13.8-6.6-20.9-2.8-11.7,0-15,12-14.5Z"/>
        <path class="cls-1" d="M258.4,387.6c-4.2,0-7.5-.2-10.9,0-3.4.2-5-1.5-5.1-4.6-.2-7-.5-14-.3-21,0-1.4,2.7-3.9,3.8-3.7,9.7,1.1,19.4,2.7,29.1,4.3.9.2,2.2,1.8,2.2,2.8,0,5.6,0,11.3-.7,16.9-.3,1.7-3.1,3.8-5.1,4.2-4.5.9-9.3.9-13.1,1.2Z"/>
        <path class="cls-1" d="M221.4,387.6c-3.9-.3-8.2-.7-12.5-.8-4.1-.2-6-2.3-6.5-6.1-.1-1-.2-2-.3-3-1.5-14-1.5-14.2,11.9-16.9,6.2-1.3,12.5-1.9,18.7-2.6,3.4-.4,5,1.3,4.9,4.6-.1,6.5-.2,13-.4,19.5,0,3.8-1.7,5.8-5.9,5.4-3.1-.3-6.3,0-9.9,0Z"/>
        <path class="cls-1" d="M237.1,338.9c0,3.7,0,7.3,0,11,0,3.4-1.5,5.6-4.9,5.7-8.8.1-17.6,0-26.4-.3-1,0-2.8-2.2-2.9-3.5-.6-9.3,2-17,11.5-21.1,5.3-2.3,10.3-5.4,15.5-8.1,4.2-2.2,6.8-.9,7.1,3.9.3,4.1,0,8.3,0,12.5h0Z"/>
        <path class="cls-1" d="M303.4,838.9c-5-7.2-6.4-15.4-4.7-23.9,1.9-9.8,4.6-19.5,6.6-29.3,3.4-17.2,7.7-34.3,9.4-51.6,1.5-14.5-.2-29.3-.4-43.9,0-1.6-.1-3.1-.2-4.7.6,0,1.3-.2,1.9-.3.9,5.7,2.1,11.4,2.5,17.2,2.3,35.5.4,70.6-9.3,105.1-2.7,9.4-5.7,18.9-3.8,29,.1.7-.3,1.5-.5,2.2-.5,0-.9.1-1.4.2Z"/>
        <path class="cls-1" d="M242.5,338.3c0-4-.2-8,0-12,.3-4.5,2.9-5.9,6.8-3.9,6.4,3.3,12.7,6.6,18.9,10.2,6.6,3.9,10.3,13,8.3,20.2-.3,1.1-2.2,2.5-3.5,2.6-8.3.3-16.6.4-24.9.3-4.2,0-5.8-2.5-5.7-6.5,0-3.7,0-7.3,0-11,0,0,0,0,0,0Z"/>
        <path class="cls-1" d="M282,881c-5.5-5.6-5.2-13.1-4.7-20.3.6-9.5,5.4-17.4,11.2-24.6,4.5-5.7,10.1-4.5,12.3,2.6,2.1,6.7,3.6,13.5,4.9,20.4.3,1.9-.9,4.7-2.3,6-3.1,2.9-6.9,5.1-10.4,7.7-3.4,2.5-6.8,5.2-10.8,8.2Z"/>
        <path class="cls-1" d="M156,536.5c.9,2.9,2.2,5.8,2.6,8.8,3.4,22.7,11,44.2,17.9,65.9,2.1,6.6,3.6,13.5,4.7,20.3.4,2.4-.9,5.2-1.4,7.8-.5,0-1.1.1-1.6.2-.9-1.3-2-2.4-2.6-3.8-4.1-8.9-9-17.5-12-26.7-3.3-10.4-5.6-21.3-7.1-32.2-1.7-11.7-2-23.6-2.9-35.4-.1-1.6.3-3.2.5-4.8l1.9-.2Z"/>
        <path class="cls-1" d="M198.7,881.1c-4.1-3.1-7.3-5.7-10.6-8.1-3.4-2.5-6.9-4.7-10.2-7.2-2.9-2.1-3.5-5-2.6-8.5,1.5-5.6,2.4-11.4,4.3-16.9,1-2.9,3.3-6.7,5.7-7.2,2.3-.5,6.3,2,8,4.4,8.3,11.3,11.6,23.8,7.9,37.7-.6,2.1-1.7,4.1-2.4,5.8Z"/>
        <path class="cls-1" d="M395.7,459.2c-1.7-2.3-4-4.3-5.1-6.8-5.6-12.5-10.7-25.2-16.4-37.6-2.6-5.7-5.8-11.3-9.2-16.6-6.5-10.3-11.2-21.2-12.9-33.3-.4-2.9-.4-6,0-8.9.2-1.5,1.8-3.8,2.7-3.8,1.7,0,4,1.2,4.8,2.6,1.4,2.6,1.9,5.6,2.8,8.5,3.4,10.4,6.5,20.9,10.4,31.2,5.2,13.7,10.9,27.2,16.4,40.8,2.1,5.1,4.3,10,6.3,15.1,1,2.5,1.4,5.2,2,7.8-.7.4-1.4.7-2,1.1Z"/>
        <path class="cls-1" d="M83.2,458.2c.3-2,.2-4.1.9-5.9,8.3-21.3,17-42.4,25.1-63.8,3-7.9,5.1-16.2,7.5-24.3,1-3.2,1.5-6.6,3-9.5.8-1.5,3.3-2.5,5.2-2.8.6-.1,2.5,2.6,2.5,4,0,5,.2,10.2-1.2,14.8-2.4,7.8-4.8,15.8-9.1,22.6-10.7,16.9-18.1,35.3-25.8,53.6-1.7,4.1-4,8-6,11.9l-2.1-.8Z"/>
        <path class="cls-1" d="M301.1,640.3c-.8-3.2-2.1-5.6-1.8-7.8.9-6.4,1.7-13,3.8-19,8-22,13.8-44.6,17.7-67.7.5-3.3,1.9-6.4,3.3-10.8,7.2,16.6-9.1,90.8-23,105.2Z"/>
        <path class="cls-1" d="M189.9,884.4c3.8,9-4.7,16.6-4.9,25.8,0,.8-1.8,2.4-2.5,2.3-7.2-1.3-14.4-2.5-21.4-4.6-5-1.5-5.3-3.5-2.1-7.6,6-7.7,12-15.4,18-23.1.3-.4.6-.8,1-1,3.5-1.8,12,3.8,11.8,8.4Z"/>
        <path class="cls-1" d="M289.8,889.4c0-8.7,2.3-12,9.9-13.3,1.3-.2,3.3.5,4.1,1.4,5.8,7.5,11.3,15.2,16.9,22.8,2.9,3.9,2.7,5.9-2,7.4-6.6,2.1-13.5,3.3-20.3,4.7-.8.2-2.4-.8-2.6-1.5-2.1-6.8-4-13.6-5.9-20.5,0-.3,0-.7,0-1Z"/>
        <path class="cls-1" d="M274.3,570.1c1.4,18.4,2.9,37.4,4.4,56.5.4,5.3.2,10.5-4.1,14.3-1.2,1-3.4,1.7-4.8,1.4-.9-.2-1.7-2.6-1.9-4.1-.7-5.9-1-11.9-1.7-17.9-2-17.8,1.3-34.8,8-50.1Z"/>
        <path class="cls-1" d="M204.9,569.3c7.5,16.9,10.5,34.6,8.1,53.1-.7,5.3-.8,10.6-1.5,15.9-.2,1.5-1,3.6-2.1,4-1.1.5-3.3-.4-4.4-1.3-4.2-3.6-4.8-8.6-4.3-13.7.8-8.1,2.2-16.2,2.5-24.4.4-11.1.1-22.3.1-33.5.5,0,1,0,1.5-.1Z"/>
        <path class="cls-1" d="M269.8,654c1.2,2.2,2.5,3.6,2.7,5.3,1.9,12.6,8.9,23.1,14.1,34.4,3,6.5,5.1,13.3,7.3,20.1.6,1.8,0,4,0,6.5-11.9-7.3-30.4-57.2-24.2-66.3Z"/>
        <path class="cls-1" d="M238.9,188.6c-4.4-10.4-8.7-20.8-13-30.9h27.7c-4.2,9.9-8.7,20.4-13.1,30.9-.5,0-1.1,0-1.6,0Z"/>
        <path class="cls-1" d="M209.5,653.6c3.9,4.5,3.5,8.4,2.5,12-5,17.3-11.5,34-20.3,49.8-1,1.8-2.5,3.2-3.8,4.8-.5-.1-1-.3-1.5-.4.1-2.3-.3-4.8.5-7,2.8-7.8,6-15.5,9-23.2,3.6-9.5,7.1-19,10.6-28.4.8-2.2,1.8-4.4,3.1-7.6Z"/>
        <path class="cls-1" d="M246.9,206.3c-5.8-10.4,6-46,16.3-52.3,1.9,19.7-7,35.4-16.3,52.3Z"/>
        <path class="cls-1" d="M232.6,206.1c-9.3-16.7-18-32.4-16.3-51.7,9.6,3.5,22.3,41.3,16.3,51.7Z"/>
        <path class="cls-1" d="M285.7,384.4c-.2-.6-.3-.8-.3-.9q-1.1-15.6,10.7-25.6c2.7-2.2,5.3-4.5,8-6.8,5.7,13.8-4.1,31.4-18.4,33.3Z"/>
        <path class="cls-1" d="M176.1,350.7c6.1,5.1,11.9,9.8,17.5,14.8,1.2,1.1,1.9,3.2,2,4.8.3,4.6,0,9.3,0,14-14.3-1-22.9-15.8-19.5-33.6Z"/>
        <path class="cls-1" d="M253.6,570.4c-3.6-16.8-5.2-33.8-5.8-51.4,7.8,3.9,13.4,14.8,12.2,22-1.7,9.8-3.4,19.6-5,29.4-.5,0-.9,0-1.4,0Z"/>
        <path class="cls-1" d="M230.4,518c2.6,8.1-1.8,46.5-5.6,53.2-2.1-12-4.1-23.6-6-35.2-.2-.9,0-2.2.5-2.9,3.4-4.8,7-9.5,11.1-15.1Z"/>
        <path class="cls-1" d="M284.5,363c0-4.8-.1-9.6,0-14.3,0-1.2.8-2.7,1.7-3.4,6.2-4.7,12.5-9.1,19.2-14,1.4,7.2,1.8,13.7-4.1,19-5.1,4.5-10.1,8.9-15.2,13.4-.5-.2-1.1-.5-1.6-.7Z"/>
        <path class="cls-1" d="M175.4,331.6c6.5,4.7,13,9.1,19.3,14,1.1.9,1.4,3.3,1.4,5.1.2,4.1,0,8.2,0,12.8-15.9-6.7-24.4-20.1-20.8-31.8Z"/>
        <path class="cls-1" d="M348.7,361.4c.3.5.7.9.8,1.3,2,16.8,8.8,31.4,18.1,45.5,10.5,16,16,34.5,22.7,52.4-.4.2-.8.4-1.2.6-1.4-2.7-3-5.4-4.3-8.1-12.8-26.9-25.6-53.8-38.3-80.8-1.9-4-3.5-8.2,2.3-10.9Z"/>
        <path class="cls-1" d="M130.5,360.9c4.1,2.4,5.3,5.1,3.6,8.8-3.9,8.7-7.5,17.5-11.6,26.1-8.4,17.6-17,35.1-25.5,52.7-2,4.2-4.1,8.3-7.3,12.2.3-1.2.5-2.5,1-3.7,7.5-19.6,14.1-39.6,26.5-57,6.6-9.3,10-20.3,12-31.6.4-2.3.8-4.5,1.3-7.4Z"/>
        <path class="cls-1" d="M267.1,180.1c10.1,6.7,19,12.7,29.3,19.5-5.5,1-9.8,2.2-14.2,2.6-13.5,1.2-14.8,0-15.1-13.7,0-2.4,0-4.9,0-8.5Z"/>
        <path class="cls-1" d="M184.6,199.6c9.6-6.8,18.1-12.8,27.3-19.2,1.2,7.1,1.2,13.5-1.2,19.8-.3.9-1.7,1.8-2.7,1.9-7.7.8-15.2-.2-23.4-2.6Z"/>
        <path class="cls-1" d="M40.8,548.5c.5-2.2.7-4.5,1.5-6.6,3.8-9.8,7.8-19.4,11.6-29.2,1.4-3.5,3.9-2.4,6.3-1.8,3.2.9,2.4,2.9,1.4,5.1-4.5,9.6-8.9,19.3-13.6,28.8-1,2-3.4,3.4-5.1,5-.6-.5-1.3-.9-1.9-1.4Z"/>
        <path class="cls-1" d="M436.8,550c-1.8-1.8-4.2-3.4-5.2-5.5-4.4-9.5-8.5-19.1-12.5-28.8-.5-1.2.4-4.2.8-4.2,2.2-.1,6-.2,6.4.8,4.4,11.3,8.3,22.8,12.3,34.2.2.7,0,1.6-.1,2.4-.5.4-1.1.8-1.6,1.2Z"/>
        <path class="cls-1" d="M195.4,299.2v25.2c-.5.4-1,.8-1.6,1.1-4.5-3.9-9.2-7.8-13.6-11.8-.5-.5-.2-2.7.5-3.4,4.3-4.1,8.8-8,13.2-11.9.5.2,1,.5,1.5.7Z"/>
        <path class="cls-1" d="M286.1,342.2c-2.7-9-1.2-13.3,5.2-17.5,3.3-2.2,6.6-4.3,9.9-6.4,5.4,8.1,5.1,10.1-2.3,15.5-4,2.9-8.2,5.5-12.7,8.5Z"/>
        <path class="cls-1" d="M286.6,298.4c4.5,4,9.1,8,13.4,12.2.6.6.6,3.1-.1,3.8-3.6,3.4-7.5,6.5-11.5,9.5-2.4,1.8-3.8.2-3.8-2.3,0-7.4,0-14.9,0-22.3l2-.9Z"/>
        <path class="cls-1" d="M194.5,342.5c-6.3-4.5-12.6-7.9-17.2-12.9-1.8-2,0-7.4.3-11.6,15.6,6.2,19.8,12.3,16.9,24.6Z"/>
        <path class="cls-1" d="M28.8,536.5c.7-2.5.9-5.3,2.1-7.6,3.8-7.6,7.9-15,12.1-22.4.9-1.6,3-3.5,4.5-3.4,2,.1,3.8,2,5.7,3.1-1.1,1.7-2.1,3.4-3.2,5-3.6,5-7.2,10-10.8,14.9-2.8,3.8-5.7,7.4-8.5,11.1-.6-.3-1.2-.6-1.8-.9Z"/>
        <path class="cls-1" d="M448.9,537.2c-1.8-2.3-3.8-4.5-5.5-6.9-5-6.8-10.1-13.5-14.8-20.6-.8-1.2-.5-4.4.5-5.3,1.8-1.7,4.7-3.3,6.6.2,4.7,8.6,9.4,17.2,13.8,25.9.9,1.7.7,4,1,6-.5.2-1.1.4-1.6.6Z"/>
        <path class="cls-1" d="M285.6,883.3c1,3,2.2,5.5,2.8,8.2,1.3,5.7,2.4,11.3,3.2,17.1.2,1.8-1.1,3.9-1.7,5.8-2.4-1.3-5.5-2.1-7.1-4.1-1.8-2.1-2.5-5.2-3.2-8-.5-2.2-1-4.8-.2-6.7,1.5-3.9,3.9-7.5,6.4-12.3Z"/>
        <path class="cls-1" d="M195.7,883.6c1.9,4.6,3.8,8.6,5.2,12.8,1.7,5.1-3.8,16.9-8,17.7-3.2.7-4.7-.8-4.2-3.6,1.5-8.1,3.4-16.2,5.2-24.3.2-.8,1-1.5,1.8-2.7Z"/>
        <path class="cls-1" d="M164.2,287.8c7.6,4.3,14.6,8.4,22.3,12.8-3.2,2.8-6.3,5.9-9.7,8.6-.6.5-2.9.1-3.3-.6-3.4-5.5-6.7-11-9.6-16.7-.6-1.2.3-3.1.4-4.1Z"/>
        <path class="cls-1" d="M315.3,288.7c1,4.3-4.1,17.6-8.6,20.4-.8.5-2.7.4-3.5-.2-3.2-2.6-6.1-5.5-9.3-8.4,7.4-4.1,14.4-8,21.4-11.8Z"/>
        <path class="cls-1" d="M60.2,547.1c1.7-10.6,3.1-20.3,4.8-30,.2-1.2,2.4-2.9,3.8-3,2.8-.2,2.9,1.9,2.4,4.2-1.9,9.5-3.7,18.9-5.8,28.3-.3,1.5-2.4,2.6-3.6,3.9-.6-1.4-1.3-2.7-1.6-3.4Z"/>
        <path class="cls-1" d="M418.1,551.1c-1-1.4-2.5-2.7-2.9-4.3-2.1-9.4-4-18.8-5.7-28.3-.2-1.3,1-3.7,2.1-4.3,2.7-1.3,3.8.6,4.1,3.2,1.4,9.5,2.9,19.1,4.3,28.6.2,1.5-.3,3.1-.4,4.6-.5.2-1,.4-1.5.5Z"/>
        <path class="cls-1" d="M435.2,476.8c2.3,2.6,4.8,5,6.7,7.9,3.3,4.9,6.7,9.4,12.3,12.1,1.4.7,1.7,3.8,2.5,5.8-1.8.2-3.9,1.2-5.4.6-5.9-2.2-10.1-6.5-12.6-12.2-1.9-4.4-3.1-9-4.6-13.6.4-.2.8-.4,1.2-.6Z"/>
        <path class="cls-1" d="M22.1,502.9c1-2.2,1.5-5.1,2.9-5.8,6-2.9,9.6-7.9,13.2-13.2,1.7-2.6,4.1-4.7,6.5-7.4-.5,14.4-11.4,29.3-22.6,26.4Z"/>
        <path class="cls-1" d="M167.6,275.9c6.8,4.6,13.4,9,19.8,13.6.9.6,1.4,2.8,1,3.9-.2.7-2.6,1.5-3.6,1.1-4.5-1.6-9.1-3.2-13.3-5.5-3.9-2.1-5.2-7.2-3.8-13.2Z"/>
        <path class="cls-1" d="M313.1,275.8c1.4,8.2-.3,11.9-7.1,15-3.3,1.5-6.8,2.7-10.3,3.7-1,.3-3.3-.2-3.4-.7-.3-1.3-.2-3.4.6-4,6.5-4.8,13.1-9.2,20.1-14.1Z"/>
        <path class="cls-1" d="M172.2,327.2c-4.6-7.3-7.8-14.6-7.7-23.2,9.6,1.9,13.7,13.9,7.7,23.2Z"/>
        <path class="cls-1" d="M308.2,326.9c-5.5-9.1-4.2-14,6.5-23.4,1.3,9.1-1.2,16.5-6.5,23.4Z"/>
        <path class="cls-1" d="M227.5,205.5c-12.1-5.3-15.6-13.5-11.4-25.6,3.8,8.5,7.4,16.5,11.4,25.6Z"/>
        <path class="cls-1" d="M263.6,179.8c4,12.4.6,20.4-11.3,25.7,3.9-9,7.5-17.1,11.3-25.7Z"/>
        <path class="cls-1" d="M396.7,512.9c4-.2,6.3.3,6.1,4.4-.2,5.8-.2,11.6-.4,17.4,0,1.7-.7,3.4-1.7,5-5.4-8.4-1.8-17.8-4-26.8Z"/>
        <path class="cls-1" d="M83.8,512.9c-1.9,9.2,1.4,18.5-4.4,27-.4-1.6-1.1-3.2-1.2-4.8-.3-5.8-.4-11.6-.4-17.4,0-4.1.1-4.1,6-4.7Z"/>
        <path class="cls-1" d="M291.9,823.6c-4,6.1-7.7,11.7-11.5,17.5-2.8-8.8,3.5-18.7,11.5-17.5Z"/>
        <path class="cls-1" d="M188.8,823.9c7.1-2.5,12,4.6,11.2,16.7-3.9-5.8-7.5-11.3-11.2-16.7Z"/>
      </g>
    </g>
  </g>
</svg>