<?xml version="1.0" encoding="UTF-8"?>
<svg id="Camada_1" xmlns="http://www.w3.org/2000/svg" version="1.1" viewBox="0 0 1000 1000">
  <!-- Generator: Adobe Illustrator 29.2.1, SVG Export Plug-In . SVG Version: 2.1.0 Build 116)  -->
  <defs>
    <style>
      .st0 {
        fill: #525151;
      }

      .st1 {
        fill: #fff;
      }

      .st1, .st2 {
        display: none;
      }

      .st3 {
        fill: #3b9431;
      }

      .st4 {
        fill: #525252;
      }
    </style>
  </defs>
  <rect class="st0" x="1178.61" width="315.87" height="257.67"/>
  <rect class="st3" x="1178.61" y="315.38" width="315.87" height="266.03"/>
  <g class="st2">
    <path class="st3" d="M345.65,61.29c34.14-5.37,86.79,19.16,116.22,36.55,13.25,7.83,23.67,13.44,25.62,30.48,2.46,21.49,2.71,84.76-.19,105.79-1.52,11.02-10.42,24.59-21.24,28.63-44.11,7.81-93.93,36.67-136.38,44.37-38.8,7.03-49.85-24.68-73.01-43.55-7.06-5.75-20.43-13.58-28.94-16.77-9.77-3.66-31.89-4.01-31.19-16.47.27-4.89,22.51-35.37,26.77-44.1,7.37-15.12,10.18-31.38,18.59-45.82,16.89-29.04,70.22-73.82,103.75-79.1Z"/>
    <path class="st3" d="M628.32,61.37c42.09-5.08,87.12,27.16,113.72,57.57,20.94,23.94,21.79,41.06,34.55,67.26,4.72,9.68,25.22,36.39,26.42,42.34,2.9,14.36-19.35,13.99-29.36,17.63-44.47,16.17-53.85,66.33-103.43,60.92-41.72-18.19-93.86-26.55-134.92-43.75-11.05-4.63-20.34-15.46-22.38-27.49-3.43-20.19-2.6-83.86-.58-105.55,1.02-10.92,5.09-19.02,13.92-25.56,19.36-14.32,78.56-40.55,102.06-43.39Z"/>
    <path class="st0" d="M319.18,58.7c-53.06,8.18-91.16,61.94-111.13,108.1-4.22,9.76-6.1,21.59-10.42,31.13-12.88,28.43-54.28,67.52-79.01,87.22-1.93,1.54-14.23,12.03-15.52,10.43l-8.41-79.9C87.09,94.58,169.32,5.54,293.27,46.18c8.01,2.63,19.94,6.95,25.9,12.52Z"/>
    <path class="st0" d="M896.8,295.58c-1.29,1.6-13.59-8.89-15.52-10.43-24.28-19.34-66.4-59.4-79.01-87.22-4.32-9.54-6.18-21.4-10.42-31.13-20.21-46.33-57.72-99.74-111.13-108.1-2.51-1.96,21.86-10.95,24.5-11.84,47.59-16.13,86.88-16.84,130.65,9.43,83.58,50.16,72.46,155.6,60.93,239.29Z"/>
    <path class="st0" d="M819.35,262.76c3.68-.83,7.45-1.12,10.94.66l61.19,44.78c11.74,38.81,44.57,90.72,48.72,129.97,2.06,19.54-4.09,78.92-8.95,98.59-5.35,21.65-24.39,13.02-36.53,2.99-40.68-33.58-87.38-145.36-91.47-197.34-.99-12.62-1.91-53.29.51-64.05,1.27-5.65,9.93-14.32,15.6-15.6Z"/>
    <path class="st0" d="M171.05,262.73c10.62-3.23,23.77,7.01,25.42,17.39,5.52,34.83-1.92,79.11-11.79,112.64-13.32,45.23-42.76,116.69-79.49,147-13.32,10.99-31.85,18.41-36.93-4.67-4.03-18.32-7.94-55.09-8.89-74.22-2.55-51.29,33.2-103.35,48.17-151.48l63.52-46.65Z"/>
    <path class="st0" d="M484.91,980.76c-5.81,5.84-14.34,1.76-18.66-4.24-9.8-13.63-27.09-53.24-33.8-70.09-17.8-44.68-28.08-96.14-30.25-144.29-.84-18.61-4.83-65.52,11.83-75.61,9.47-5.74,50.23-6.26,61.9-4.35,5.07.83,10.61,3.78,11.51,9.27l.13,278.47c-.27,3.24-.35,8.51-2.66,10.83Z"/>
    <path class="st0" d="M522.21,682.51c10.56-2.32,53.17-1.5,62.3,3.3,18.45,9.71,13.99,55.05,13.2,74.27-2.32,56.06-14.7,111.18-37.13,162.34-5.68,12.95-19.48,43.84-26.93,54.11-7.94,10.95-18.89,8.39-21.34-4.5v-276.58c-.91-6.69,3.63-11.56,9.9-12.94Z"/>
    <path class="st0" d="M472.46,285.55c5.81-2.11,13.94,5.72,14.97,11.12,2.15,11.28,1.55,62.19.09,74.8-.45,3.94-1.25,7.5-4.11,10.43-5.23,5.35-46.21,12.18-57.26,15.46-19.19,5.7-36.76,15.14-55.63,20.45-20.45-9.89-48.48-64.33-36.94-83.93,4.22-7.17,13.92-6.39,20.48-8.61,39.42-13.39,79.01-26.25,118.4-39.72Z"/>
    <path class="st0" d="M522.22,285.56l141.97,46.3c14.45,14.78-6.51,54.59-17.07,68.3-4.57,5.95-15.3,19.23-23.02,17.69-14.47-6.36-29.01-13.61-44.08-18.45-12.37-3.97-60.86-12.07-65.67-19.52-1.52-2.35-1.69-3.61-2.04-6.27-1.55-11.87-1.92-68.32.15-79.02.99-5.12,5.07-7.42,9.76-9.03Z"/>
    <path class="st0" d="M416.28,528.78c8.17-1.64,53.79-1.99,61.81-.44,7.58,1.46,8.89,8.81,9.49,15.44,2.32,25.56,2.86,85.31-.05,110.27-.48,4.12-2.31,10.53-6.28,12.42-3.88,1.85-56.49,1.99-63.26.92-10.46-1.66-16.97-11.76-17.88-21.6-1.93-20.94-2.78-80.03.23-99.7,1.28-8.4,7.49-15.62,15.93-17.32Z"/>
    <path class="st0" d="M520.09,528.71c5.6-1.68,54.36-1.41,61.8-.27,12.03,1.84,16.81,10.25,17.9,21.58,2.13,22.21,2.51,76.05-.06,97.81-.82,6.91-6.63,15.53-13.05,18.12-5.84,2.36-63.19,2.84-68.04.54s-5.89-9.64-6.33-14.45c-2.33-25.61-2.86-85.24.05-110.27.55-4.71,2.66-11.54,7.72-13.06Z"/>
    <path class="st0" d="M283.25,678.19c3.66-1.04,5.05-.07,7.99,1.68,4.81,2.87,29.17,30.41,34.11,36.54,27.66,34.33,48.66,80.12,51.98,124.63,1.58,21.2,4.6,61.82-23.9,32.21-24.07-25.01-75.87-82.34-79.74-115.57-1.5-12.84.15-60.98,4.09-72.34,1.11-3.18,1.65-6.07,5.47-7.15Z"/>
    <path class="st0" d="M711.3,678.21c4.82-1.35,8.93.73,10.44,5.44,3.59,32.49,10.3,66.94-2.62,98.11-8.46,20.41-55.46,73.63-72.65,91.49-38.41,39.91-21.79-50.86-17.1-69.04,8.31-32.22,24.31-62.14,45.18-87.8,3.91-4.81,34.2-37.49,36.75-38.2Z"/>
    <path class="st0" d="M468.32,406.29c9.2-.96,15.77-1.59,19.11,8.83-2.08,25.66,2.99,55.97.09,81.02-2.25,19.4-20.04,11.23-32.14,11.31s-29.01,2.35-41.64,2.32c-15.52-.04-21.91-3.85-29.72-16.16-6.57-10.35-10.57-20.11-8.58-32.71,4.18-26.4,68.89-52.1,92.9-54.61Z"/>
    <path class="st0" d="M520.14,406.14c21.57-6.38,98.96,28.75,104,53.03,2.9,13.96-6.81,41.96-20.26,47.35-2.83,1.13-12.66,3.09-15.73,3.15-12.44.22-29.18-2.19-41.54-2.22-12.44-.03-31.93,8.44-34.22-11.32-1.86-16.03-2.12-63.38-.07-79.1.59-4.53,3.07-9.48,7.83-10.89Z"/>
    <path class="st0" d="M649.55,550.12c1.55-13.77,9.84-31.08,17.84-42.42,3.76-5.34,34.92-41.09,38.24-42.81s6.26.74,6.26,2.12v72.72c0,8.1-12.08,29.5-17.64,36.39-3.53,4.38-36.98,34.68-39.56,35.27-2.03.46-5.14-2.35-5.14-3.09,0-17.83-1.91-41.2,0-58.18Z"/>
    <path class="st0" d="M288.01,467.01c.66-2.34,3.43-3.58,6.26-2.12,3.33,1.72,34.46,37.46,38.24,42.81,6.93,9.83,17.84,30.64,17.84,42.42v58.18c0,.74-3.11,3.55-5.14,3.09-2.58-.59-36.06-30.99-39.56-35.27-5.56-6.8-17.64-28.37-17.64-36.39v-72.72Z"/>
    <path class="st0" d="M703.01,592.99c12.84-1.96,9.88,35.2,8.7,44.22-2.21,16.89-33.53,55.12-47.5,64.69-9.88,6.77-13.77,1.82-14.78-8.29-1.46-14.6-.96-39.95,5.29-53.13,3.85-8.12,33.6-37.91,41.58-43.59,2-1.42,4.24-3.52,6.71-3.9Z"/>
    <path class="st0" d="M293.63,592.99c4.01-.99,7.05,1.81,9.96,3.9,7.26,5.2,37.33,35.04,40.94,42.15,6.32,12.43,8.29,45.14,5.75,58.54-1.65,8.68-8.08,8.8-14.6,4.32-7.67-5.28-38.66-40.62-42.47-48.94-6.02-13.16-6.78-34.53-5.32-48.94.43-4.28.43-9.73,5.74-11.03Z"/>
    <path class="st0" d="M952.91,433.76c-1.08-10.68-6.65-26.97-10.35-37.44-3.49-9.87-16.33-31.85-16.73-39.41-.26-4.92,2.98-3.89,6.3-2.11,14.63,7.87,32.98,43.76,37.99,59.66,12.2,38.74,16.56,79.36-12.05,111.74-1.76.78-5.17-2.47-5.17-3.11,0-27.63,2.69-62.79,0-89.35Z"/>
    <path class="st0" d="M46.98,523.11c-.32,1.11-3.38,3.72-5.17,3.11-28.3-32.44-24.24-73.02-12.05-111.74,5.01-15.9,23.36-51.79,37.99-59.66,3.32-1.79,6.56-2.81,6.3,2.11-.4,7.57-13.24,29.53-16.73,39.41-3.39,9.59-10.35,30.2-10.35,39.52v87.27Z"/>
    <path class="st0" d="M799.15,395.32c3.65-.7,4.19.9,5.78,3.57,5.44,9.16,11.16,32.34,16.1,44.15,8.08,19.3,17.28,38.15,25.93,57.19-1.61,2.97-5.41.36-7.39-.92-10.77-7.02-40.42-57.65-40.42-69.7v-34.28Z"/>
    <path class="st0" d="M200.74,395.32v34.28c0,11.76-29.76,62.75-40.42,69.7-1.98,1.29-5.78,3.89-7.39.92,8.65-19.04,17.85-37.89,25.93-57.19,4.95-11.81,10.66-35,16.1-44.15,1.59-2.67,2.13-4.27,5.78-3.57Z"/>
  </g>
  <path class="st3" d="M143.33-686.74c39.93-.23,103.28,50.86,121.55,84.84,8.72,16.23,12.23,34.72,21.85,52.28,3.91,7.14,21.66,30.6,22.3,35.08,2.02,14.12-16.28,12.63-25.99,16.21-10.19,3.76-17.72,7.39-26.74,13.5-26.11,17.7-42.3,57.46-80.81,50.71-42.91-7.52-94.31-37.55-139.04-45.25-12.13-5.13-21.98-18.13-23.77-31.3-2.85-20.92-2.6-82.22-.19-103.6,2.67-23.74,22.13-31.65,40.94-41.66,22.84-12.15,64.37-30.67,89.9-30.81Z"/>
  <path class="st3" d="M-146.76-686.87c27.41-1.46,94.87,27.91,117.61,44.36,7.93,5.74,15.05,13.77,16.28,23.96,2.59,21.56,2.69,88.76-.24,109.99-4.3,31.25-33.29,31.16-56.5,38.81-29.93,9.86-77.75,30.61-106.31,35.62-41.31,7.25-62.26-46.41-99.67-61.5-10.54-4.25-35.74-4.96-33.51-18.64.9-5.49,21.64-32.84,26.18-41.72,8.22-16.08,11.06-32.89,19.72-48.05,18.85-33.02,77.57-80.77,116.44-82.84Z"/>
  <path class="st0" d="M404.29-445.89c-30.23-23.31-65.34-51.95-86.42-84.05-14.43-21.96-18.58-47.52-31.06-70.6-20-37-58.49-82.71-102.77-86.81,7.55-8.19,23.29-12.16,34.39-15.36,51.65-14.92,93.35-11.46,136.99,20.86,71.42,52.9,60.33,158.31,48.87,235.97Z"/>
  <path class="st0" d="M-184.47-691.54c.52,5.64.08,3.43-3.19,4.17-52.73,11.93-90,62.55-110.09,110.22-4.38,10.39-5.69,21.39-10.54,31.82-11.48,24.71-65.72,80.54-88.96,95.3-2.61,1.66-4.12,2.68-7.48,2.04l-8.56-83.56c.78-63.09,12.22-122.49,69.32-157.48,55.26-33.85,101.71-23.75,159.5-2.5Z"/>
  <path class="st0" d="M399.47-434.71c17.43,53.33,52.47,103.71,49.29,161.42-.95,17.23-4.67,58.19-8.93,73.67-6.98,25.35-33.99,6.46-45.14-4.73-36.72-36.83-80.65-140.34-85.67-191.78-1.31-13.39-1.97-55.21.47-67.27,1.93-9.52,14.95-21.83,24.82-17.42l65.16,46.1Z"/>
  <path class="st0" d="M-333.33-481.59c9.94-2.76,22.75,9.69,23.94,19.78,9.09,76.87-28.84,195.96-81.56,253.17-12.9,14-43.43,38.44-49.67,5.13-3.72-19.88-7.79-55.8-8.69-76.02-2.24-50.13,34.51-106.32,49.94-153.55l66.04-48.5Z"/>
  <path class="st0" d="M22.5-456.16l147.7,48.48c6.62,7.95,2.56,22.69-.02,31.59-3.57,12.33-27.17,57.08-41.77,54.81-31.02-19.59-68.29-21.55-101.1-32.47-9.42-3.14-13.56-3.63-14.86-14.79-1.8-15.43-1.83-56.7,0-72.1.82-6.9,3.91-12.07,10.06-15.52Z"/>
  <path class="st0" d="M-166.94-409.28l144.02-46.82c2.15.33,6.79,3.04,8.03,4.77,6.07,8.48-.18,73.58,1.51,88.66-1.69,3.95-5.08,6.43-8.94,8.01-13.6,5.56-36.17,7.48-51.54,12-9.25,2.72-53.18,21.86-56.15,21.41-10.01-1.53-27.92-30.73-32.21-39.94-5.53-11.88-15.31-37.52-4.73-48.09Z"/>
  <path class="st0" d="M24.59-210.34c8.62-1.93,44.89-1.56,54.43-.27,15.82,2.15,23.78,12.83,24.55,28.4,1.16,23.42,1.34,58.91.07,82.48-1.02,18.94-6.18,31.12-26.47,33.03-10.34.97-43.85,1.61-52.98-.13-4.69-.89-8.81-5.91-11.26-9.92l-.48-118.21c.15-7.02,5.15-13.82,12.15-15.39Z"/>
  <path class="st0" d="M-81.27-210.3c9.58-1.74,44.78-1.9,54.46-.37,5.62.89,10.84,4.8,13.45,9.85l.48,120.32c-.15,4.9-2.19,10-6.9,12.16-5.59,2.56-53.73,2.68-61.84,1.43-6.78-1.05-17.26-7.86-19.31-14.58l-.81-109.05c1.57-10.25,10.53-17.96,20.47-19.77Z"/>
  <path class="st0" d="M20.35-333.18c22.08-6.45,100.73,28.38,106.06,51.88,3.47,15.3-7.03,46.34-22.79,50.44-10.28,2.67-67.54,2.66-79.59,1.11-7.12-.91-10.75-4.6-11.65-11.65-1.95-15.19-1.98-65.56,0-80.7.6-4.61,3.11-9.67,7.97-11.08Z"/>
  <path class="st0" d="M-15.55-331.01c2.78,2.77,2.46,9.37,2.71,13.18,1.39,20.5,1.7,54.03,0,74.3-.99,11.8-1.96,12.77-13.76,13.76-12.03,1.01-70.99,1.53-78.97-1.69-9.27-3.74-21.35-27.87-21.88-37.52-1.08-20.02,16.02-31.6,31.28-40.94,13.23-8.1,68.79-32.89,80.62-21.1Z"/>
  <path class="st0" d="M-121.53-794.86c28.38-7.28,29.47,27.45,36.55,47.21,7.65,21.34,31.96,53.44-11.36,49.47-30.75-2.82-99.52-15.05-128.81-23.66-13.72-4.03-17.02-11.38-4.51-20.19,29.57-20.8,76.61-33.08,108.13-52.82Z"/>
  <path class="st0" d="M234.32-739.75c9.22,17.2-8.12,17.22-20.23,19.98-32.73,7.45-87.82,19.42-120.08,21.8-38.65,2.86-16.44-27.49-10-45.99,9.85-28.27,8.16-61.49,46.4-47.53,34.04,12.44,69.44,38.4,103.91,51.73Z"/>
  <path class="st0" d="M-152.71-126.08c-3,.23-5.62.23-8.43-1.1-1.9-.9-28.94-24.41-31.86-27.44-27.26-28.21-26.35-73.03-23.35-110.29.51-6.33.51-11.77,8.64-8.43,13.07,18.89,35.31,35.65,45.56,56.11,1.94,3.87,9.45,23.75,9.45,26.56v64.6Z"/>
  <path class="st0" d="M215.81-274.33v77.3c0,4.51-8.13,22.22-11.01,27.11-4.76,8.05-38.31,41.49-45.48,43.52s-6.76-4.37-7.15-9.1c-4.88-58.89,5.8-85.08,45.61-126.15,4.89-5.05,10.62-13.32,18.03-12.68Z"/>
  <path class="st0" d="M-77.52-848.25c2.41.02,27.2,32.63,30.32,37.42,22.43,34.52,28.15,84.93,44.44,123,.69,16.64-11.58,20.99-22.5,7.54-23.93-29.49-54.25-93.34-57.53-130.97-.52-5.99-2.04-37.04,5.26-36.99Z"/>
  <path class="st0" d="M82.37-846.19c2.7,2.74.6,35.06-.24,41.07-4.99,35.58-32.64,94.59-55.19,122.72-10.25,12.78-20.85,15.02-24.64-3.34,14.71-34.87,21.11-79.32,37.7-112.8,3.64-7.34,27.48-41.05,32.89-45.47,2.35-1.92,8.22-3.45,9.48-2.18Z"/>
  <path class="st0" d="M-210.5-142.73c2.76-.76,4.4-.42,6.92.75,1.43.67,20.36,18.25,23.37,21.16,12.59,12.15,25.39,23.71,27.51,42.38.75,6.61.9,41.51-1.06,45.54-3.99,8.2-11.2,3.55-15.97-.98-18.72-17.81-43.99-43.74-46.48-70-.78-8.17-2.68-36.53,5.71-38.85Z"/>
  <path class="st0" d="M206.77-142.74c6.37-.97,8.42,3.72,9.15,9.15,1.88,14.13.54,39-5.4,51.98-3.43,7.51-36.4,45.16-43.29,49.88-23.28,15.96-15.39-45.96-11.1-57.68,4.83-13.2,32.13-41.04,43.81-49.36,2.04-1.45,4.33-3.59,6.84-3.97Z"/>
  <path class="st0" d="M461.49-212.91v-94.25c0-26.22-23.89-54.1-27.44-74.25-2.28-12.96,14.38,1.83,16.83,4.37,27.46,28.51,47.77,101.85,32.86,138.72-2.82,6.97-14.39,31.42-22.25,25.4Z"/>
  <path class="st0" d="M-461.93-213.97c-.32,1.13-3.45,3.79-5.27,3.17-3.62-.76-16.42-27.58-18.11-32.74-11.33-34.52,6.71-99.01,29.78-127.11,2.57-3.13,21.02-24.09,23.26-12.7.43,2.18-16.53,32.76-19.13,40.14-3.97,11.31-10.53,33.14-10.53,44.53v84.72Z"/>
  <path class="st0" d="M304.76-344.22h6.32s42.34,104.86,42.34,104.86c-3.42,4.17-2.26,2.61-5.29,1.13-12.31-6.05-43.37-60.31-43.37-73.16v-32.83Z"/>
  <path class="st0" d="M-305.2-344.22v34.95c0,11.88-31.36,66.41-42.33,72.05-3.69,1.9-4.02.4-6.34-2.15,9.92-18.12,18.38-37.17,26.36-56.21,5.04-12.04,10.87-35.67,16.42-45,1.62-2.72,2.17-4.36,5.89-3.64Z"/>
  <path class="st1" d="M671.79,167.09c-6.06-3.11-14.68-4.42-19.86-9.93-1.01-1.07-5.78-10.4-7.8-12.64,3.92-3.61,20.97-23.57,24.41-22.96l22.97,22.97-19.72,22.57Z"/>
  <path class="st3" d="M512.04,417.85c-1.55-8.66-3.09-23.19-6.19-37.11-10.52-46.08-16.39-92.47-11.44-139.79,3.4-30,19.17-51.96,40.82-70.2,5.88-4.95,18.87-4.64,27.52-2.16,47.32,13.92,90,36.8,126.8,69.28,40.82,35.87,43.92,97.73,8.97,141.03-14.23,17.63-26.6,36.8-40.82,54.43-10.21,12.68-23.5,21.03-40.82,22.89-8.66.93-16.7,5.57-25.05,7.73-10.52,2.78-21.03,6.8-31.55,6.49-34.64-.62-53.19-10.52-48.25-52.27v-.31Z"/>
  <path class="st3" d="M483.9,287.34c-5.88,33.09-12.06,65.87-17.01,98.97-2.47,15.77-3.4,31.85-4.33,47.63-.93,21.03-8.66,31.55-29.69,34.95-9.9,1.55-20.72,1.24-30.62-.62-20.1-4.33-39.9-9.9-59.69-15.77-6.19-1.86-12.06-6.19-17.01-10.52-38.97-35.87-64.95-78.55-71.13-132.06-2.78-25.05,4.02-47.01,22.27-64.95,40.2-39.28,89.69-61.85,142.57-78.24,12.06-3.71,20.72.93,29.69,10.82,28.45,31.85,34.64,69.28,34.95,110.1v-.31Z"/>
  <path class="st4" d="M719.87,934.33c-22.27-26.29-33.4-54.74-44.53-83.5-32.78-83.81-42.68-171.02-42.99-260.09,0-21.65-1.86-43.3-3.4-64.95-2.47-37.11,19.17-63.09,41.44-88.45,6.8-7.73,12.68-.93,14.23,6.19,2.78,12.68,5.57,25.36,5.88,38.04,1.55,70.2,1.86,140.72,3.09,210.92.62,32.47.93,65.26,4.64,97.42,4.95,42.37,13.3,84.43,20.1,126.8.62,4.64.93,9.59,1.55,17.32v.31Z"/>
  <path class="st4" d="M256.59,931.85c4.33-32.78,9.9-64.95,12.68-97.11,4.64-54.43,9.28-109.17,11.44-163.91,2.47-64.64,1.86-129.27,3.4-193.91,0-11.13,2.47-22.58,5.26-33.71,2.47-9.9,10.52-13.3,16.7-4.02,15.15,23.19,28.76,47.32,42.99,71.13.93,1.55.31,4.02,0,6.19-3.71,54.43-8.04,108.86-11.44,163.29-5.57,84.43-31.85,162.98-68.66,238.44-2.16,4.02-4.95,8.04-7.42,11.75-.31.62-1.86.62-4.64,1.55l-.31.31Z"/>
  <path class="st4" d="M375.96,501.97c28.14,48.86,42.37,98.97,27.83,157.11-14.23,56.91-21.96,115.36-31.85,173.5-4.02,23.5-6.49,47.01-9.9,70.51-.93,5.88-2.47,11.75-3.71,17.63-1.55,0-2.78.31-4.33.62-3.4-10.82-9.9-21.65-9.9-32.47-.62-64.95-1.86-130.2.93-195.15,2.47-54.12,10.52-107.62,17.01-161.44,1.24-10.52,5.88-20.41,8.97-30.62,1.86,0,3.71,0,5.26.31h-.31Z"/>
  <path class="st4" d="M609.77,501.97c3.71,25.36,8.66,50.41,10.82,75.77,8.97,98.35,16.39,197,11.13,295.97-.62,12.37-3.09,24.74-4.95,36.8-.62,3.4-2.47,6.49-7.42,10.21-1.86-8.97-4.64-17.94-5.88-26.91-7.42-52.88-13.61-105.77-22.27-158.34-4.64-27.83-12.68-55.36-19.48-82.88-13.61-55.36,1.24-104.53,29.69-150.92h8.04l.31.31Z"/>
  <path class="st4" d="M716.16,763.61c1.24-19.79,3.71-39.9,3.09-59.69-1.24-36.8-4.64-73.3-7.11-109.79-4.64-64.95,3.09-128.04,28.14-188.34,1.24-3.4,3.09-6.49,4.95-9.59.62-1.24,2.16-1.86,3.71-2.78,16.39,32.47-7.42,326.59-32.47,370.19h-.31Z"/>
  <path class="st4" d="M259.68,766.08c-23.19-41.75-47.32-328.44-31.24-374.83,3.4,6.19,6.49,10.82,8.66,15.46,25.98,61.85,32.78,126.8,27.52,193.29-4.02,52.58-11.44,105.15-4.02,157.73,0,2.16-.62,4.64-1.24,8.35h.31Z"/>
  <path class="st4" d="M260.92,232.91c.62-4.64.31-9.9,2.16-14.23,10.21-23.19,20.1-46.39,31.55-68.66,8.04-15.77,22.89-22.89,40.2-20.41,20.41,2.78,40.51,7.11,60.62,11.75,6.19,1.55,11.75,6.8,17.32,13.3-58.76,10.82-102.99,47.32-148.76,80.72-.93-.93-2.16-1.55-3.09-2.47h0Z"/>
  <path class="st4" d="M716.77,237.55c-52.88-30.31-92.47-73.91-152.47-80.1v-4.64c4.95-3.71,9.59-8.35,15.15-10.52,8.35-3.71,17.63-6.19,26.6-8.04,51.34-12.06,64.02-6.19,87.83,40.2,7.11,13.92,13.61,28.45,19.79,43.3,2.16,4.95,1.86,10.52,3.4,20.1l-.31-.31Z"/>
  <path class="st3" d="M544.2,645.78c-2.78-10.21-6.19-20.41-8.66-30.93-7.73-32.47-15.46-64.95-22.89-97.42-1.24-5.88-.93-12.37-1.24-18.56-.31-10.21,4.33-15.77,14.84-15.15,18.87.93,37.42,2.47,59.38,3.71-33.4,50.1-48.86,101.13-37.11,158.34h-4.33Z"/>
  <path class="st3" d="M432.87,646.71c-1.55-26.29,0-54.43-5.88-80.72-5.88-25.98-19.17-50.41-30.62-78.55,17.32-1.24,36.18-3.4,55.36-3.09,12.06,0,12.06,11.44,10.82,20.1-4.33,28.45-8.66,57.21-14.23,85.36-4.02,19.79-10.52,39.28-15.46,56.91Z"/>
  <path class="st4" d="M594,946.39c-2.16-8.97-4.95-17.63-6.19-26.6-4.02-28.14-6.8-56.29-11.13-84.43-5.88-38.66-11.44-77.32-18.87-115.97-4.64-23.5-9.59-46.39-2.47-69.58,32.16,95.56,38.97,195.46,38.35,296.59h.31Z"/>
  <path class="st4" d="M423.59,649.18c0,15.77,3.71,32.47-.62,46.7-19.79,66.49-21.34,135.77-30.31,203.81-2.16,16.7-6.49,33.09-10.82,49.17,1.86-101.13,6.49-201.95,41.75-299.68Z"/>
</svg>