<?xml version="1.0" encoding="UTF-8"?>
<svg xmlns="http://www.w3.org/2000/svg" version="1.1" viewBox="0 0 471.7 1000">
  <defs>
    <style>
      .cls-1 {
        fill: #67b232;
      }

      .cls-2 {
        fill: #515151;
      }

      .cls-3 {
        display: none;
      }
    </style>
  </defs>
  <!-- Generator: Adobe Illustrator 28.6.0, SVG Export Plug-In . SVG Version: 1.2.0 Build 709)  -->
  <g>
    <g id="Camada_1">
      <g class="cls-3">
        <path class="cls-2" d="M274,206.6c-1.2,0-2.3,0-3.5,0-16.7.2-22.3,4.7-25.7,21-.9,4.4-1.4,8.9-1.3,13.4.2,8.2,1,16.3,1.5,24.4.5,8.1,4.5,14.2,11.6,17.5,5.6,2.6,12,5,18,5,25.1.2,36.3-8.9,39.9-29.6,1.6-9,.4-18.5-.2-27.7-.4-5.9-4.2-10.4-8.7-14.1-9.2-7.5-19.7-10.9-31.6-9.9ZM206.6,206.7c0-.1,0-.3,0-.4-4.6.4-9.5.2-13.9,1.4-10.9,3-20.6,8.1-25.4,19.2-4.9,11.3-4.6,22.5-1.1,34.4,5.6,19.4,17.9,27.5,40.2,26.7,18-.6,26.8-9.5,28.7-27.4,1.3-12.3,2.3-24.6-1.2-36.8-3.7-12.6-8.4-16.4-21.2-17.1-2-.1-4,0-6,0ZM172,449c-3,5.5-6.2,10.1-8.1,15.1-6,15.9-10.1,32.5-7.7,49.4,2.3,15.9,6.6,31.5,10.2,47.2,2.7,11.5,5.5,23,8.8,34.4,3.2,11,6.9,21.9,10.8,32.7,1,2.6,3.8,4.6,5.8,6.8,1.6-2.6,3.9-5,4.8-7.8,1.5-4.6,2.3-9.4,2.9-14.2,5-38.2,1.5-75.5-10.9-112-5.7-16.8-10.9-33.9-16.5-51.7ZM309.4,449.5c-.4.2-.9.3-1.3.5-7.1,23.1-14.8,46-21.2,69.3-3.8,14.1-6.9,28.6-8.1,43-1.7,19.4-1.6,39,3.6,58.1,1.1,3.8,2,7.8,3.6,11.4,1.8,3.9,4.4,4.1,6.5.2,2.6-5,5.2-10.2,6.7-15.6,7.5-28,14.7-56.1,21.8-84.3,5.5-21.7,3.6-43.1-3.6-64.1-2.2-6.4-5.2-12.4-7.8-18.7ZM243.2,482.1c10.6-1.7,15.6-8.4,19-16.5,9.6-22.6,12.3-46.6,14.2-70.7,0-1.2-2.1-3.8-3.2-3.7-8.8.1-17.6.6-26.4,1.3-4,.3-5.3,3.1-5.2,7,.4,22.5.5,45,.8,67.5,0,5,.5,9.9.8,15.2ZM236.2,482.1c.3-3.2.8-6.1.8-9.1.3-24.7.5-49.3.9-74,0-4.2-1.8-6.5-5.6-6.8-8.6-.6-17.3-1-25.9-1.3-3.2-.1-3.8,2-3.4,4.7.9,7.6,1.4,15.3,2.5,22.9,2.5,17,5.4,33.9,13,49.6,3.5,7.1,8.4,12.3,17.6,14ZM121.4,234.8c.5,11.2,6.5,19.9,16.8,25.6,1.6.9,5,1.1,5.9.1,6.8-7.2,14.9-13.8,14.5-25.1,0-2.7-.1-5.3,0-8,.1-5.2,2.3-9.3,7.2-11.5,3.8-1.7,7.5-3.6,11.3-5.4,3.8-1.7,4.3-3.7,1.6-6.7-1-1.1-2.3-2-3.6-2.7-9.7-5.3-19.9-6.4-29.4-.3-12.2,7.8-23.7,16.6-24.2,34.1ZM320.9,233.6c-1.9,11.3,6.8,18.8,14.4,26.7,1,1,4.2.9,5.9.1,17.3-7.9,22.5-30.3,10.2-44.8-4.6-5.4-10.2-10.1-16-14.2-9.5-6.6-19.9-6.2-29.7-.5-2.3,1.3-3.7,4.4-5.5,6.6,2,1.3,3.9,2.9,6,3.7,12.2,5,14.9,8.7,14.7,22.2ZM369.7,331.4c-.6.2-1.2.4-1.8.6-.6,2.8-1.6,5.6-1.6,8.3-.4,17,1.2,33.5,8.2,49.4,9,20.6,17.1,41.5,25.8,62.2,1.2,2.8,3,5.2,4.5,7.9.5-.2,1-.3,1.6-.5,0-3.5.5-7.1,0-10.5-1.9-10.8-4.2-21.6-6.4-32.4-2.5-12.3-6.7-24.6-7.3-37-.8-14.8-6.7-26.9-14.3-38.8-2.2-3.5-5.6-6.2-8.5-9.3ZM273.4,118.9c.3,0,.7,0,1,0,.7-4.2,1.4-8.4,2.3-12.6,2-10.2,3.4-20.4.3-30.7-2.6-8.7-7.5-14.8-16.6-17.7-14.4-4.6-28.4-4.5-42.6.5-6.2,2.2-10.5,6-13.3,12-7.7,16.4-1.8,32.5,1.3,48.7.8-3.9.8-7.8,1.3-11.7.5-3.9,1.1-7.9,2.1-11.7,1.2-4.4,3.1-8.7,4.1-13.1,1.2-5.3,2.9-7.4,8.2-7.4,12.3,0,24.6,0,36.8,0,4.9,0,7.3,2.5,7.9,7.2.4,2.8.1,6.1,1.5,8.3,4.8,7.1,4.9,15,5,23,0,1.8.4,3.6.7,5.4ZM73.8,459c.8.3,1.5.5,2.3.8,1.6-2.9,3.6-5.7,4.8-8.8,8.4-21,16.3-42.3,25.1-63.2,6.3-15,7.8-30.6,7.5-46.5,0-3-1.5-5.9-2.3-8.9-2.7,2-6.2,3.4-7.9,6-7.9,11.9-15.9,23.9-15.6,39.2,0,4.6-1,9.2-1.9,13.8-3.6,18.8-7.5,37.6-11,56.4-.7,3.6-.6,7.4-.8,11.1ZM288.6,817.9c.7,0,1.3,0,2,.1,11.1-24.5,17.1-50.2,19.9-77,2.8-26.7,3-53.2-.7-79.8-1.1,1.6-1.6,3.3-1.9,5-3.7,21-7.4,42.1-10.9,63.1-4.5,26.8-9.3,53.6-9,81,0,2.5.4,5,.7,7.5ZM170.9,661.3c-5.6,53.7-3,106.4,19.8,156.6,1.2-1.7,1.8-3.3,1.8-5,.3-51.6-13.8-101.1-21.6-151.6ZM388.2,481.3c1,6.2,1.7,12.5,2.9,18.7,1.9,9,7.6,12.5,16.8,10.6,7.9-1.6,14.5-5.6,20.4-11,6-5.5,7.2-11.6,2.7-18.3-6.6-9.9-17.9-18.7-33.2-13-8,3-9.4,4.5-9.6,13ZM91.5,481.2c0-4.9-.8-9-5.5-11.6-12.2-6.8-32.4,0-38.1,12.7-3.3,7.5-1.9,12.2,4.5,17.4,6.6,5.3,13.5,9.9,22.1,11.1,7.9,1.1,12.2-1.7,13.8-9.4,1.4-6.7,2.3-13.5,3.4-20.2ZM274,698.6c-.5,0-1.1-.2-1.6-.3-1.7,16.7-3.7,33.4-4.8,50.1-.4,5.2.9,10.6,2.3,15.7,2.7,10.3,5.8,20.5,8.9,30.7,1.1,3.6,2.7,7,4.3,11.4.5-1.5.8-2,.8-2.5,1.8-20.8,3.4-41.6,5.6-62.3,1.1-10.7-1.3-20.1-6.8-29.1-2.9-4.6-5.7-9.2-8.6-13.9ZM197,805.5c.4,0,.7,0,1.1,0,.7-2.7,1.5-5.4,2.2-8.1,2.6-9.5,4.6-19.2,7.9-28.4,2.9-8.4,4.8-16.7,3.9-25.5-1.2-12.1-2.8-24.2-4.3-36.2-.4-3-1-6-1.7-10.3-3.8,7.3-6.9,13.3-10.2,19.2-4,7.2-5.6,14.8-4.8,23.1,1.3,12.8,2.3,25.6,3.4,38.4.8,9.2,1.6,18.5,2.4,27.7ZM301,446.5c-7.8,17.4-16,34.7-23.3,52.4-4.3,10.4-7.7,21.3-11,32.2-5.5,18.6-9.5,37.6-8.2,57.2.4,6,1.7,11.9,2.5,17.8.5,0,.9,0,1.4-.1,8.4-54.2,26.1-106,38.6-159.4ZM217.6,607.4c.8-2.6,1.2-3.8,1.5-5.1,4.1-17.8,2.2-35.5-1.6-53.1-7.6-35.2-22.1-67.8-36.8-100.3-.1-.3-.6-.5-1.5-1.2,14.1,52.9,28.7,105,38.4,159.6ZM305.5,374.4c-6.4,5-11.5,9.5-17.1,13.3-3.2,2.1-4.5,4.5-4.9,8.1-1.5,14.3-.6,29-5.9,42.8-1,2.6.7,4.2,3,3.4,3.2-1.1,6.6-2.5,9-4.8,5.7-5.5,11-11.6,16.3-17.6,1.3-1.5,2.2-3.8,2.2-5.7-.1-8.8-.5-17.7-1-26.5-.2-4.1-1-8.2-1.6-13ZM175.6,375c-.3,1-.8,1.8-.8,2.6-.8,12.5-1.7,24.9-2.3,37.4,0,1.2.6,2.7,1.4,3.6,6,6.7,12.1,13.4,18.3,19.9,1.3,1.4,3.3,2.3,5.1,3,1.3.5,3.3.7,4.1,0,.7-.6.6-2.7.4-4-.8-5.4-2.1-10.8-2.7-16.2-.9-8.4-1.2-17-2.1-25.4-.2-2.2-.9-5-2.4-6.2-6-5-12.3-9.5-19-14.5ZM276.8,332.7c1.6-8.8,4-16.6,4.1-24.5,0-5.9-2.5-11.8-9.3-14.5-6.3-2.5-12.3-5.9-18.5-8.7-5.1-2.3-8.4-1-9.1,4.5-.9,6.7-1,13.6-.9,20.4,0,1.8,1.5,4.2,3,5.2,7.2,4.7,14.7,9.1,22.2,13.4,2.4,1.4,4.9,2.5,8.6,4.3ZM203.2,332c1.4-.4,2.1-.4,2.7-.7,9.5-5.5,19-11,28.5-16.7,1-.6,2-2.2,1.9-3.3-.2-7.8-.2-15.6-1.1-23.3-.5-3.9-3.8-5.4-7.7-3.5-7.4,3.5-14.9,6.8-22,10.8-2.3,1.3-4.4,4.2-5.1,6.8-2.6,10,0,19.7,2.7,29.9ZM367,313.6c-.5-4.4-.7-9.9-1.7-15.3-1.9-10.6-7-19.7-14.3-27.5-4-4.3-8.4-3.4-10.4,2.1-1.3,3.5-2.2,7.4-2.1,11.1.4,13.1,4.9,25.2,11.8,36.1,2.2,3.4,6.8,5.7,10.7,7.5,3.5,1.6,6.2,0,6.1-4.4,0-2.8,0-5.7,0-9.6ZM112.6,315c0,2.7,0,5.3,0,8,.2,4.6,2.2,6.5,6.3,4.6,4.1-2,8.8-4.8,11-8.5,4-6.8,7-14.4,9.1-22,1.6-5.9,1.7-12.4,1.5-18.7-.1-4-1.1-8.9-6.1-9.9-4.7-.9-7,3.2-9.4,6.3-9.2,11.8-12.6,25.5-12.5,40.2ZM298.9,436.4c-.5-.4-1-.7-1.5-1.1-7.2,8-15.1,15.4-21.3,24.1-10.7,14.8-17.7,31.6-22.6,49.3-1.7,6.1.3,10.8,3.7,15.3,2.7,3.6,4.6,3.3,6.2-.9,1.8-4.7,3.4-9.4,5.1-14.1,3.6-9.9,6.9-19.9,11-29.5,5.5-12.8,11.8-25.3,17.7-38,.8-1.6,1.2-3.4,1.7-5.1ZM181.7,436.5c.9,2.4,1.8,4.8,2.7,7.1,7.2,17.1,14.6,34,21.5,51.2,3.7,9.1,6.7,18.5,10.1,27.8,1.7,4.7,3.8,5,6.8.9,3.3-4.4,4.9-9.1,3.3-14.9-5-17.9-12.5-34.5-22.8-49.9-5.8-8.6-12.5-16.3-21.6-22.2ZM324.3,253.5c-.9,1.2-1.5,1.7-1.8,2.4-3.1,9.6-5.4,19.3-2.2,29.4,1.5,4.6,2.8,9.3,4.3,13.8,5,14.6,11.1,28.6,20.9,40.7,1.2,1.5,4.1,1.6,6.2,2.4.6-2.4,1.3-4.8,1.7-7.2.1-.7-.6-1.5-.9-2.3-10.9-24.4-21.8-48.7-26.6-75.2-.2-1.2-.9-2.4-1.6-4.1ZM155.1,254c-.5,1.5-1.3,2.9-1.5,4.5-3.8,21.2-11.7,40.9-20.3,60.5-2.3,5.3-5.1,10.5-6.8,16.1-.6,2.1,1.1,5,1.8,7.5,2-.8,4.2-1.3,5.8-2.6,1.6-1.3,2.8-3.3,4-5.1,10.8-16.1,17.2-34.2,22-52.8,2.5-9.7-.4-18.9-5-28ZM277.1,661.7c-.7,8.3,2.5,16.5,9.6,23.1,4.6,4.3,10.6,3.7,12.8-2.1,3.5-9.3,6-19,8.1-28.7,1-4.9-2.2-7.8-7.3-8-3.5-.1-7,.1-10.5.4-12.1,1-12.7,1.6-12.6,15.2ZM166.5,685.4c-.7-.2-1.5-.3-2.2-.5-.7,2.7-1.8,5.4-1.9,8.2-.7,16.8-1.7,33.7-1.5,50.5.2,12.1,1.5,24.3,3.6,36.3,2,11.3,5.7,22.2,8.5,33.4,1.8,7.3,4,14.5,2.3,22.2-.2,1.1.3,2.4.5,3.6,2.3-1.7,3.6-3.6,4.4-5.6,3.4-8.1,2.4-16.3.6-24.6-4.7-21.7-9.2-43.4-14-65.1-3.3-15.1-3.6-30.3-1.1-45.5.7-4.2.5-8.5.8-12.7ZM185.9,646.1c-12-.5-14.9,2.8-12,14.5,1.7,7.1,3.9,14.1,6.6,20.9,2.8,7,9.1,8.1,14.2,2.5,2.4-2.6,4.9-5.9,5.5-9.2,1.4-6.8,1.7-13.8,2.1-20.7.3-4.6-2.2-7-6.9-7.1-3.2-.1-6.3-.6-9.4-.9ZM258.4,387.6c3.8-.3,8.5-.3,13.1-1.2,2-.4,4.8-2.5,5.1-4.2.8-5.5.8-11.2.7-16.9,0-1-1.3-2.6-2.2-2.8-9.7-1.6-19.3-3.2-29.1-4.3-1.2-.1-3.8,2.4-3.8,3.7-.3,7,0,14,.3,21,0,3.2,1.6,4.8,5.1,4.6,3.3-.2,6.7,0,10.9,0ZM221.4,387.6c3.6,0,6.8-.2,9.9,0,4.2.4,5.8-1.7,5.9-5.4.2-6.5.3-13,.4-19.5,0-3.3-1.6-5-4.9-4.6-6.3.8-12.6,1.4-18.7,2.6-13.4,2.7-13.4,2.9-11.9,16.9.1,1,.2,2,.3,3,.4,3.9,2.4,6,6.5,6.1,4.3.2,8.6.6,12.5.8ZM237.1,338.9h0c0-4.2.2-8.4,0-12.5-.4-4.8-2.9-6.1-7.1-3.9-5.2,2.7-10.2,5.8-15.5,8.1-9.5,4.1-12.1,11.8-11.5,21.1,0,1.3,1.8,3.5,2.9,3.5,8.8.3,17.6.4,26.4.3,3.4,0,5-2.2,4.9-5.7,0-3.7,0-7.3,0-11ZM303.4,838.9c.5,0,.9-.1,1.4-.2.2-.8.6-1.6.5-2.2-1.9-10.1,1.1-19.6,3.8-29,9.8-34.5,11.7-69.6,9.3-105.1-.4-5.8-1.7-11.4-2.5-17.2-.6,0-1.3.2-1.9.3,0,1.6.2,3.1.2,4.7.3,14.7,1.9,29.5.4,43.9-1.8,17.3-6,34.4-9.4,51.6-2,9.8-4.7,19.5-6.6,29.3-1.6,8.6-.3,16.7,4.7,23.9ZM242.5,338.3s0,0,0,0c0,3.7,0,7.3,0,11-.1,4,1.6,6.5,5.7,6.5,8.3,0,16.6,0,24.9-.3,1.2,0,3.2-1.4,3.5-2.6,2-7.2-1.7-16.3-8.3-20.2-6.1-3.6-12.5-6.9-18.9-10.2-3.9-2-6.5-.6-6.8,3.9-.3,4,0,8,0,12ZM282,881c4-3,7.4-5.7,10.8-8.2,3.5-2.6,7.3-4.8,10.4-7.7,1.5-1.3,2.7-4.2,2.3-6-1.2-6.9-2.8-13.7-4.9-20.4-2.2-7.1-7.7-8.3-12.3-2.6-5.7,7.2-10.5,15.1-11.2,24.6-.5,7.2-.8,14.7,4.7,20.3ZM156,536.5l-1.9.2c-.2,1.6-.6,3.2-.5,4.8.8,11.8,1.2,23.7,2.9,35.4,1.5,10.8,3.8,21.7,7.1,32.2,3,9.2,7.9,17.8,12,26.7.6,1.4,1.7,2.6,2.6,3.8.5,0,1.1-.1,1.6-.2.5-2.6,1.9-5.4,1.4-7.8-1.2-6.9-2.6-13.7-4.7-20.3-7-21.7-14.5-43.2-17.9-65.9-.4-3-1.7-5.8-2.6-8.8ZM198.7,881.1c.7-1.7,1.9-3.7,2.4-5.8,3.7-13.9.4-26.4-7.9-37.7-1.7-2.3-5.7-4.9-8-4.4-2.4.5-4.7,4.4-5.7,7.2-1.9,5.5-2.8,11.3-4.3,16.9-.9,3.5-.3,6.3,2.6,8.5,3.3,2.5,6.8,4.7,10.2,7.2,3.3,2.4,6.5,5,10.6,8.1ZM395.7,459.2c.7-.4,1.4-.7,2-1.1-.7-2.6-1.1-5.3-2-7.8-2-5.1-4.2-10.1-6.3-15.1-5.5-13.6-11.2-27.1-16.4-40.8-3.9-10.2-7-20.8-10.4-31.2-.9-2.8-1.4-5.9-2.8-8.5-.8-1.4-3.1-2.5-4.8-2.6-.9,0-2.5,2.4-2.7,3.8-.4,2.9-.5,6,0,8.9,1.7,12.1,6.4,23,12.9,33.3,3.4,5.3,6.6,10.9,9.2,16.6,5.7,12.4,10.8,25.1,16.4,37.6,1.1,2.5,3.4,4.6,5.1,6.8ZM83.2,458.2l2.1.8c2-4,4.3-7.8,6-11.9,7.7-18.3,15.1-36.7,25.8-53.6,4.3-6.8,6.8-14.8,9.1-22.6,1.4-4.7,1.2-9.9,1.2-14.8,0-1.4-1.8-4.1-2.5-4-1.9.3-4.4,1.3-5.2,2.8-1.5,2.9-2,6.3-3,9.5-2.5,8.1-4.5,16.4-7.5,24.3-8.2,21.3-16.8,42.5-25.1,63.8-.7,1.8-.6,3.9-.9,5.9ZM301.1,640.3c13.9-14.4,30.2-88.6,23-105.2-1.4,4.4-2.7,7.5-3.3,10.8-3.9,23.1-9.7,45.7-17.7,67.7-2.2,6-2.9,12.6-3.8,19-.3,2.1,1,4.5,1.8,7.8ZM189.9,884.4c.2-4.7-8.4-10.2-11.8-8.4-.4.2-.7.7-1,1-6,7.7-12.1,15.4-18,23.1-3.2,4.1-3,6.1,2.1,7.6,7,2.1,14.2,3.3,21.4,4.6.7.1,2.5-1.5,2.5-2.3.2-9.1,8.7-16.7,4.9-25.8ZM289.8,889.4c0,.3,0,.7,0,1,1.9,6.8,3.8,13.7,5.9,20.5.2.7,1.8,1.7,2.6,1.5,6.8-1.4,13.7-2.6,20.3-4.7,4.7-1.5,4.9-3.4,2-7.4-5.6-7.6-11.2-15.3-16.9-22.8-.8-1-2.8-1.7-4.1-1.4-7.5,1.4-9.9,4.6-9.9,13.3ZM274.3,570.1c-6.7,15.4-10,32.3-8,50.1.7,6,1,11.9,1.7,17.9.2,1.5.9,3.9,1.9,4.1,1.4.4,3.6-.3,4.8-1.4,4.4-3.8,4.6-9,4.1-14.3-1.5-19.1-3-38.1-4.4-56.5ZM204.9,569.3c-.5,0-1,0-1.5.1,0,11.2.3,22.3-.1,33.5-.3,8.2-1.8,16.3-2.5,24.4-.5,5.1,0,10.1,4.3,13.7,1.1.9,3.2,1.8,4.4,1.3,1.1-.4,1.9-2.5,2.1-4,.7-5.3.8-10.6,1.5-15.9,2.3-18.5-.6-36.2-8.1-53.1ZM269.8,654c-6.2,9.1,12.3,59,24.2,66.3,0-2.5.5-4.7,0-6.5-2.2-6.8-4.3-13.7-7.3-20.1-5.2-11.3-12.1-21.8-14.1-34.4-.3-1.6-1.6-3.1-2.7-5.3ZM238.9,188.6c.5,0,1.1,0,1.6,0,4.5-10.5,8.9-21,13.1-30.9h-27.7c4.2,10.1,8.6,20.5,13,30.9ZM209.5,653.6c-1.3,3.2-2.2,5.4-3.1,7.6-3.6,9.5-7,19-10.6,28.4-2.9,7.8-6.2,15.4-9,23.2-.8,2.1-.3,4.6-.5,7,.5.1,1,.3,1.5.4,1.3-1.6,2.8-3.1,3.8-4.8,8.8-15.7,15.3-32.5,20.3-49.8,1-3.6,1.4-7.5-2.5-12ZM246.9,206.3c9.3-16.9,18.2-32.7,16.3-52.3-10.3,6.3-22,41.9-16.3,52.3ZM232.6,206.1c6-10.4-6.7-48.2-16.3-51.7-1.7,19.3,7,34.9,16.3,51.7ZM285.7,384.4c14.3-1.9,24.1-19.6,18.4-33.3-2.7,2.3-5.3,4.6-8,6.8q-11.9,10-10.7,25.6c0,.2,0,.3.3.9ZM176.1,350.7c-3.4,17.8,5.3,32.6,19.5,33.6,0-4.7.2-9.3,0-14,0-1.7-.8-3.8-2-4.8-5.5-5-11.3-9.7-17.5-14.8ZM253.6,570.4c.5,0,.9,0,1.4,0,1.7-9.8,3.3-19.6,5-29.4,1.3-7.2-4.4-18.1-12.2-22,.5,17.7,2.1,34.7,5.8,51.4ZM230.4,518c-4.1,5.6-7.7,10.3-11.1,15.1-.5.7-.6,2-.5,2.9,1.9,11.6,3.9,23.2,6,35.2,3.8-6.6,8.1-45.1,5.6-53.2ZM284.5,363c.5.2,1.1.5,1.6.7,5.1-4.5,10.2-8.9,15.2-13.4,5.9-5.3,5.6-11.8,4.1-19-6.7,4.8-13,9.3-19.2,14-.9.7-1.6,2.2-1.7,3.4-.2,4.8,0,9.5,0,14.3ZM175.4,331.6c-3.6,11.8,4.8,25.1,20.8,31.8,0-4.5.1-8.7,0-12.8,0-1.7-.3-4.2-1.4-5.1-6.2-4.9-12.8-9.4-19.3-14ZM348.7,361.4c-5.7,2.7-4.2,6.9-2.3,10.9,12.7,26.9,25.5,53.9,38.3,80.8,1.3,2.8,2.9,5.4,4.3,8.1.4-.2.8-.4,1.2-.6-6.7-17.8-12.1-36.3-22.7-52.4-9.3-14.1-16.1-28.7-18.1-45.5,0-.4-.5-.8-.8-1.3ZM130.5,360.9c-.5,2.9-.9,5.2-1.3,7.4-2,11.3-5.4,22.3-12,31.6-12.4,17.4-19,37.4-26.5,57-.5,1.2-.6,2.5-1,3.7,3.2-3.9,5.3-8,7.3-12.2,8.5-17.6,17.1-35.1,25.5-52.7,4.1-8.6,7.7-17.4,11.6-26.1,1.7-3.7.5-6.4-3.6-8.8ZM267.1,180.1c0,3.6,0,6,0,8.5.3,13.6,1.5,14.9,15.1,13.7,4.4-.4,8.7-1.6,14.2-2.6-10.3-6.9-19.2-12.8-29.3-19.5ZM184.6,199.6c8.2,2.4,15.7,3.4,23.4,2.6,1-.1,2.3-1.1,2.7-1.9,2.4-6.3,2.4-12.8,1.2-19.8-9.2,6.5-17.6,12.4-27.3,19.2ZM40.8,548.5c.6.5,1.3.9,1.9,1.4,1.7-1.7,4.1-3,5.1-5,4.7-9.5,9.1-19.2,13.6-28.8,1-2.2,1.9-4.2-1.4-5.1-2.3-.6-4.9-1.7-6.3,1.8-3.8,9.8-7.8,19.4-11.6,29.2-.8,2.1-1,4.4-1.5,6.6ZM436.8,550c.5-.4,1.1-.8,1.6-1.2,0-.8.4-1.7.1-2.4-4-11.4-7.9-22.9-12.3-34.2-.4-1-4.2-.9-6.4-.8-.4,0-1.3,3.1-.8,4.2,4,9.7,8,19.3,12.5,28.8,1,2.2,3.4,3.7,5.2,5.5ZM195.4,299.2c-.5-.2-1-.5-1.5-.7-4.4,3.9-8.9,7.8-13.2,11.9-.7.7-1,2.9-.5,3.4,4.4,4.1,9,7.9,13.6,11.8.5-.4,1-.8,1.6-1.1v-25.2ZM286.1,342.2c4.5-3,8.7-5.6,12.7-8.5,7.5-5.3,7.7-7.3,2.3-15.5-3.3,2.1-6.6,4.3-9.9,6.4-6.4,4.2-7.9,8.5-5.2,17.5ZM286.6,298.4l-2,.9c0,7.4,0,14.9,0,22.3,0,2.5,1.4,4.1,3.8,2.3,4-2.9,7.8-6.1,11.5-9.5.7-.6.8-3.1.1-3.8-4.3-4.2-8.9-8.2-13.4-12.2ZM194.5,342.5c2.9-12.3-1.3-18.3-16.9-24.6-.2,4.3-2.1,9.7-.3,11.6,4.6,5,10.9,8.4,17.2,12.9ZM28.8,536.5c.6.3,1.2.6,1.8.9,2.8-3.7,5.7-7.4,8.5-11.1,3.7-4.9,7.2-9.9,10.8-14.9,1.2-1.6,2.2-3.3,3.2-5-1.9-1.1-3.8-3-5.7-3.1-1.5,0-3.6,1.8-4.5,3.4-4.2,7.3-8.3,14.8-12.1,22.4-1.2,2.3-1.4,5.1-2.1,7.6ZM448.9,537.2c.5-.2,1.1-.4,1.6-.6-.3-2-.1-4.3-1-6-4.4-8.7-9.1-17.3-13.8-25.9-1.9-3.6-4.8-1.9-6.6-.2-1,1-1.3,4.1-.5,5.3,4.7,7,9.8,13.8,14.8,20.6,1.7,2.4,3.7,4.6,5.5,6.9ZM285.6,883.3c-2.5,4.7-4.9,8.3-6.4,12.3-.8,1.9-.3,4.6.2,6.7.7,2.8,1.5,5.9,3.2,8,1.7,2,4.7,2.8,7.1,4.1.6-1.9,2-4,1.7-5.8-.7-5.7-1.9-11.4-3.2-17.1-.6-2.7-1.7-5.2-2.8-8.2ZM195.7,883.6c-.8,1.1-1.6,1.8-1.8,2.7-1.8,8.1-3.7,16.1-5.2,24.3-.5,2.8,1,4.3,4.2,3.6,4.1-.9,9.7-12.6,8-17.7-1.4-4.2-3.3-8.2-5.2-12.8ZM164.2,287.8c-.1,1-1,2.9-.4,4.1,3,5.7,6.2,11.3,9.6,16.7.4.7,2.7,1.1,3.3.6,3.4-2.7,6.6-5.7,9.7-8.6-7.7-4.4-14.8-8.5-22.3-12.8ZM315.3,288.7c-7,3.9-13.9,7.7-21.4,11.8,3.1,2.9,6.1,5.8,9.3,8.4.8.6,2.6.7,3.5.2,4.5-2.8,9.6-16.1,8.6-20.4ZM60.2,547.1c.3.7,1,2.1,1.6,3.4,1.2-1.3,3.3-2.4,3.6-3.9,2.1-9.4,3.9-18.9,5.8-28.3.5-2.2.4-4.4-2.4-4.2-1.4.1-3.6,1.8-3.8,3-1.8,9.6-3.2,19.4-4.8,30ZM418.1,551.1c.5-.2,1-.4,1.5-.5.2-1.5.6-3.1.4-4.6-1.3-9.5-2.9-19.1-4.3-28.6-.4-2.5-1.5-4.4-4.1-3.2-1.2.6-2.4,3-2.1,4.3,1.7,9.5,3.6,18.9,5.7,28.3.4,1.6,1.9,2.9,2.9,4.3ZM435.2,476.8c-.4.2-.8.4-1.2.6,1.5,4.5,2.7,9.2,4.6,13.6,2.5,5.7,6.7,10,12.6,12.2,1.5.6,3.6-.4,5.4-.6-.8-2-1.1-5.1-2.5-5.8-5.6-2.7-9-7.2-12.3-12.1-1.9-2.9-4.5-5.3-6.7-7.9ZM22.1,502.9c11.2,2.9,22.1-12,22.6-26.4-2.4,2.6-4.8,4.8-6.5,7.4-3.6,5.3-7.2,10.3-13.2,13.2-1.5.7-1.9,3.6-2.9,5.8ZM167.6,275.9c-1.3,6,0,11.1,3.8,13.2,4.2,2.3,8.8,3.9,13.3,5.5,1,.4,3.4-.4,3.6-1.1.4-1.1-.1-3.3-1-3.9-6.4-4.6-13-9-19.8-13.6ZM313.1,275.8c-7,4.8-13.7,9.3-20.1,14.1-.8.6-.9,2.8-.6,4,.1.5,2.4,1,3.4.7,3.5-1,7-2.2,10.3-3.7,6.7-3.1,8.4-6.8,7.1-15ZM172.2,327.2c5.9-9.3,1.9-21.4-7.7-23.2,0,8.6,3.1,15.9,7.7,23.2ZM308.2,326.9c5.3-6.9,7.8-14.3,6.5-23.4-10.6,9.4-12,14.3-6.5,23.4ZM227.5,205.5c-4-9.1-7.6-17.1-11.4-25.6-4.2,12.1-.7,20.3,11.4,25.6ZM263.6,179.8c-3.8,8.7-7.4,16.8-11.3,25.7,11.9-5.3,15.3-13.3,11.3-25.7ZM396.7,512.9c2.2,9-1.4,18.4,4,26.8,1.1-1.7,1.7-3.3,1.7-5,.2-5.8.1-11.6.4-17.4.2-4.1-2.1-4.6-6.1-4.4ZM83.8,512.9c-5.8.6-6,.6-6,4.7,0,5.8.2,11.6.4,17.4,0,1.6.8,3.2,1.2,4.8,5.8-8.5,2.5-17.8,4.4-27ZM291.9,823.6c-8-1.2-14.3,8.7-11.5,17.5,3.8-5.8,7.5-11.4,11.5-17.5ZM188.8,823.9c3.6,5.5,7.3,10.9,11.2,16.7.8-12.1-4.1-19.3-11.2-16.7Z"/>
        <path class="cls-2" d="M274,206.6c11.9-1,22.4,2.4,31.6,9.9,4.6,3.7,8.3,8.2,8.7,14.1.6,9.2,1.8,18.8.2,27.7-3.6,20.7-14.8,29.8-39.9,29.6-6.1,0-12.4-2.4-18-5-7-3.3-11.1-9.4-11.6-17.5-.5-8.1-1.3-16.3-1.5-24.4-.1-4.5.4-9,1.3-13.4,3.4-16.4,9-20.8,25.7-21,1.2,0,2.3,0,3.5,0Z"/>
        <path class="cls-2" d="M206.6,206.7c2,0,4,0,6,0,12.8.7,17.6,4.5,21.2,17.1,3.5,12.2,2.5,24.5,1.2,36.8-1.9,17.9-10.7,26.8-28.7,27.4-22.2.8-34.6-7.3-40.2-26.7-3.5-11.9-3.8-23.1,1.1-34.4,4.8-11.1,14.5-16.2,25.4-19.2,4.4-1.2,9.3-1,13.9-1.4,0,.1,0,.3,0,.4Z"/>
        <path class="cls-2" d="M172,449c5.7,17.9,10.8,34.9,16.5,51.7,12.4,36.5,15.9,73.8,10.9,112-.6,4.8-1.5,9.6-2.9,14.2-.9,2.8-3.1,5.2-4.8,7.8-2-2.3-4.8-4.2-5.8-6.8-3.9-10.8-7.6-21.7-10.8-32.7-3.3-11.4-6.1-22.9-8.8-34.4-3.7-15.7-8-31.3-10.2-47.2-2.4-17,1.7-33.5,7.7-49.4,1.9-5,5.1-9.6,8.1-15.1Z"/>
        <path class="cls-2" d="M309.4,449.5c2.6,6.2,5.7,12.3,7.8,18.7,7.2,21,9.1,42.4,3.6,64.1-7.1,28.1-14.3,56.2-21.8,84.3-1.4,5.4-4,10.6-6.7,15.6-2,3.8-4.7,3.7-6.5-.2-1.6-3.6-2.5-7.6-3.6-11.4-5.2-19.1-5.3-38.7-3.6-58.1,1.3-14.5,4.3-29,8.1-43,6.4-23.3,14.1-46.2,21.2-69.3.4-.2.9-.3,1.3-.5Z"/>
        <path class="cls-2" d="M243.2,482.1c-.3-5.3-.7-10.2-.8-15.2-.3-22.5-.4-45-.8-67.5,0-4,1.2-6.7,5.2-7,8.8-.7,17.6-1.1,26.4-1.3,1.1,0,3.3,2.5,3.2,3.7-1.9,24.1-4.6,48.2-14.2,70.7-3.4,8.1-8.4,14.8-19,16.5Z"/>
        <path class="cls-2" d="M236.2,482.1c-9.1-1.7-14.1-6.9-17.6-14-7.7-15.7-10.6-32.6-13-49.6-1.1-7.6-1.7-15.2-2.5-22.9-.3-2.7.3-4.8,3.4-4.7,8.6.3,17.3.6,25.9,1.3,3.8.3,5.7,2.6,5.6,6.8-.4,24.7-.6,49.3-.9,74,0,2.9-.5,5.9-.8,9.1Z"/>
        <path class="cls-2" d="M121.4,234.8c.6-17.4,12-26.3,24.2-34.1,9.5-6.1,19.7-5,29.4.3,1.3.7,2.6,1.6,3.6,2.7,2.7,3.1,2.2,5-1.6,6.7-3.8,1.7-7.5,3.6-11.3,5.4-5,2.3-7.1,6.3-7.2,11.5,0,2.7,0,5.3,0,8,.4,11.4-7.7,18-14.5,25.1-.9,1-4.3.8-5.9-.1-10.3-5.7-16.3-14.4-16.8-25.6Z"/>
        <path class="cls-2" d="M320.9,233.6c.2-13.5-2.5-17.2-14.7-22.2-2.2-.9-4-2.5-6-3.7,1.8-2.2,3.1-5.2,5.5-6.6,9.9-5.8,20.2-6.1,29.7.5,5.8,4,11.5,8.8,16,14.2,12.3,14.5,7,36.9-10.2,44.8-1.7.8-4.9.9-5.9-.1-7.5-8-16.3-15.5-14.4-26.7Z"/>
        <path class="cls-2" d="M369.7,331.4c2.9,3.1,6.3,5.8,8.5,9.3,7.5,11.8,13.4,24,14.3,38.8.7,12.4,4.8,24.7,7.3,37,2.2,10.8,4.5,21.5,6.4,32.4.6,3.4,0,7,0,10.5-.5.2-1,.3-1.6.5-1.5-2.6-3.4-5.1-4.5-7.9-8.6-20.7-16.8-41.6-25.8-62.2-6.9-15.9-8.6-32.4-8.2-49.4,0-2.8,1.1-5.6,1.6-8.3.6-.2,1.2-.4,1.8-.6Z"/>
        <path class="cls-2" d="M273.4,118.9c-.2-1.8-.6-3.6-.7-5.4-.1-8-.2-15.9-5-23-1.4-2.1-1.2-5.5-1.5-8.3-.6-4.7-3-7.2-7.9-7.2-12.3,0-24.6,0-36.8,0-5.3,0-7,2.1-8.2,7.4-1,4.5-3,8.7-4.1,13.1-1,3.8-1.7,7.7-2.1,11.7-.5,3.9-.5,7.8-1.3,11.7-3.1-16.2-9-32.2-1.3-48.7,2.8-5.9,7.1-9.8,13.3-12,14.2-5,28.3-5.1,42.6-.5,9.1,2.9,14,9,16.6,17.7,3.1,10.3,1.7,20.5-.3,30.7-.8,4.2-1.5,8.4-2.3,12.6-.3,0-.7,0-1,0Z"/>
        <path class="cls-2" d="M73.8,459c.3-3.7.1-7.5.8-11.1,3.6-18.8,7.4-37.6,11-56.4.9-4.6,2-9.2,1.9-13.8-.2-15.3,7.7-27.3,15.6-39.2,1.7-2.6,5.2-4,7.9-6,.8,3,2.3,5.9,2.3,8.9.3,15.9-1.2,31.5-7.5,46.5-8.7,20.9-16.7,42.2-25.1,63.2-1.2,3.1-3.2,5.9-4.8,8.8-.8-.3-1.5-.5-2.3-.8Z"/>
        <path class="cls-2" d="M288.6,817.9c-.2-2.5-.7-5-.7-7.5-.2-27.4,4.5-54.2,9-81,3.5-21.1,7.3-42.1,10.9-63.1.3-1.7.8-3.4,1.9-5,3.7,26.6,3.5,53.1.7,79.8-2.8,26.8-8.8,52.6-19.9,77-.7,0-1.3,0-2-.1Z"/>
        <path class="cls-2" d="M170.9,661.3c7.8,50.5,22,100,21.6,151.6,0,1.7-.6,3.3-1.8,5-22.8-50.2-25.4-102.9-19.8-156.6Z"/>
        <path class="cls-2" d="M388.2,481.3c.2-8.6,1.6-10.1,9.6-13,15.3-5.7,26.7,3.1,33.2,13,4.5,6.8,3.2,12.9-2.7,18.3-5.8,5.4-12.5,9.4-20.4,11-9.2,1.9-14.9-1.6-16.8-10.6-1.3-6.2-2-12.5-2.9-18.7Z"/>
        <path class="cls-2" d="M91.5,481.2c-1.1,6.7-2,13.5-3.4,20.2-1.6,7.7-5.9,10.5-13.8,9.4-8.6-1.2-15.5-5.7-22.1-11.1-6.4-5.2-7.8-10-4.5-17.4,5.7-12.8,25.9-19.5,38.1-12.7,4.7,2.6,5.5,6.7,5.5,11.6Z"/>
        <path class="cls-2" d="M274,698.6c2.9,4.6,5.8,9.2,8.6,13.9,5.5,8.9,8,18.4,6.8,29.1-2.2,20.7-3.7,41.5-5.6,62.3,0,.5-.3.9-.8,2.5-1.7-4.4-3.2-7.8-4.3-11.4-3.1-10.2-6.2-20.4-8.9-30.7-1.3-5.1-2.6-10.6-2.3-15.7,1.2-16.7,3.2-33.4,4.8-50.1.5,0,1.1.2,1.6.3Z"/>
        <path class="cls-2" d="M197,805.5c-.8-9.2-1.6-18.5-2.4-27.7-1.1-12.8-2.1-25.6-3.4-38.4-.8-8.3.8-15.9,4.8-23.1,3.3-5.9,6.4-12,10.2-19.2.7,4.3,1.3,7.3,1.7,10.3,1.5,12.1,3.2,24.1,4.3,36.2.8,8.7-1,17.1-3.9,25.5-3.3,9.2-5.3,18.9-7.9,28.4-.7,2.7-1.5,5.4-2.2,8.1-.4,0-.7,0-1.1,0Z"/>
        <path class="cls-2" d="M301,446.5c-12.5,53.4-30.2,105.2-38.6,159.4-.5,0-.9,0-1.4.1-.9-5.9-2.1-11.8-2.5-17.8-1.3-19.6,2.7-38.6,8.2-57.2,3.2-10.9,6.6-21.8,11-32.2,7.3-17.6,15.5-34.9,23.3-52.4Z"/>
        <path class="cls-2" d="M217.6,607.4c-9.7-54.7-24.3-106.8-38.4-159.6.9.7,1.4.8,1.5,1.2,14.7,32.6,29.3,65.2,36.8,100.3,3.8,17.6,5.7,35.3,1.6,53.1-.3,1.3-.7,2.5-1.5,5.1Z"/>
        <path class="cls-2" d="M305.5,374.4c.6,4.9,1.3,8.9,1.6,13,.5,8.8.9,17.6,1,26.5,0,1.9-.9,4.2-2.2,5.7-5.2,6-10.5,12.1-16.3,17.6-2.4,2.3-5.8,3.7-9,4.8-2.3.8-4.1-.8-3-3.4,5.3-13.8,4.4-28.5,5.9-42.8.4-3.5,1.7-6,4.9-8.1,5.6-3.8,10.8-8.3,17.1-13.3Z"/>
        <path class="cls-2" d="M175.6,375c6.7,5,13.1,9.5,19,14.5,1.5,1.3,2.1,4,2.4,6.2.9,8.5,1.2,17,2.1,25.4.6,5.4,1.8,10.8,2.7,16.2.2,1.4.4,3.4-.4,4-.9.7-2.9.5-4.1,0-1.8-.7-3.8-1.6-5.1-3-6.2-6.5-12.3-13.2-18.3-19.9-.8-.9-1.4-2.4-1.4-3.6.7-12.5,1.5-24.9,2.3-37.4,0-.8.5-1.6.8-2.6Z"/>
        <path class="cls-2" d="M276.8,332.7c-3.6-1.8-6.2-2.9-8.6-4.3-7.5-4.4-14.9-8.7-22.2-13.4-1.5-1-3-3.4-3-5.2,0-6.8,0-13.6.9-20.4.7-5.5,4-6.8,9.1-4.5,6.2,2.8,12.2,6.2,18.5,8.7,6.9,2.7,9.4,8.6,9.3,14.5,0,7.9-2.5,15.8-4.1,24.5Z"/>
        <path class="cls-2" d="M203.2,332c-2.8-10.1-5.4-19.8-2.7-29.9.7-2.6,2.8-5.5,5.1-6.8,7.1-4,14.6-7.3,22-10.8,3.9-1.8,7.2-.4,7.7,3.5.9,7.7,1,15.5,1.1,23.3,0,1.1-1,2.7-1.9,3.3-9.4,5.7-19,11.2-28.5,16.7-.5.3-1.3.3-2.7.7Z"/>
        <path class="cls-2" d="M367,313.6c0,3.9,0,6.8,0,9.6.1,4.5-2.6,6-6.1,4.4-3.9-1.8-8.5-4.1-10.7-7.5-6.9-10.9-11.4-23-11.8-36.1-.1-3.7.8-7.6,2.1-11.1,2-5.5,6.4-6.4,10.4-2.1,7.3,7.8,12.4,16.9,14.3,27.5,1,5.4,1.2,10.9,1.7,15.3Z"/>
        <path class="cls-2" d="M112.6,315c-.1-14.7,3.2-28.4,12.5-40.2,2.4-3.1,4.6-7.3,9.4-6.3,5,1,6,5.9,6.1,9.9.2,6.2.1,12.7-1.5,18.7-2.1,7.6-5.1,15.2-9.1,22-2.2,3.8-6.9,6.5-11,8.5-4.1,2-6.1,0-6.3-4.6,0-2.7,0-5.3,0-8Z"/>
        <path class="cls-2" d="M298.9,436.4c-.6,1.7-1,3.5-1.7,5.1-5.9,12.7-12.2,25.1-17.7,38-4.1,9.6-7.4,19.6-11,29.5-1.7,4.7-3.3,9.4-5.1,14.1-1.6,4.2-3.5,4.5-6.2.9-3.4-4.5-5.4-9.2-3.7-15.3,4.9-17.7,11.9-34.4,22.6-49.3,6.2-8.6,14.1-16.1,21.3-24.1.5.4,1,.7,1.5,1.1Z"/>
        <path class="cls-2" d="M181.7,436.5c9.1,5.9,15.8,13.6,21.6,22.2,10.3,15.4,17.9,32,22.8,49.9,1.6,5.9,0,10.5-3.3,14.9-3,4-5,3.7-6.8-.9-3.4-9.2-6.4-18.7-10.1-27.8-7-17.1-14.3-34.1-21.5-51.2-1-2.4-1.8-4.8-2.7-7.1Z"/>
        <path class="cls-2" d="M324.3,253.5c.7,1.7,1.3,2.9,1.6,4.1,4.8,26.5,15.7,50.9,26.6,75.2.3.8,1.1,1.6.9,2.3-.4,2.4-1.1,4.8-1.7,7.2-2.1-.8-5-.9-6.2-2.4-9.8-12-15.9-26.1-20.9-40.7-1.6-4.6-2.9-9.2-4.3-13.8-3.2-10.1-.9-19.8,2.2-29.4.2-.7.9-1.3,1.8-2.4Z"/>
        <path class="cls-2" d="M155.1,254c4.6,9.1,7.5,18.3,5,28-4.8,18.6-11.2,36.6-22,52.8-1.2,1.8-2.3,3.8-4,5.1-1.6,1.3-3.8,1.8-5.8,2.6-.7-2.5-2.5-5.4-1.8-7.5,1.7-5.5,4.5-10.7,6.8-16.1,8.6-19.6,16.5-39.3,20.3-60.5.3-1.5,1-3,1.5-4.5Z"/>
        <path class="cls-2" d="M277.1,661.7c0-13.6.5-14.2,12.6-15.2,3.5-.3,7-.5,10.5-.4,5.1.2,8.3,3.1,7.3,8-2.1,9.7-4.6,19.4-8.1,28.7-2.1,5.8-8.2,6.4-12.8,2.1-7.1-6.6-10.3-14.9-9.6-23.1Z"/>
        <path class="cls-2" d="M166.5,685.4c-.2,4.2,0,8.6-.8,12.7-2.4,15.3-2.2,30.4,1.1,45.5,4.8,21.7,9.3,43.4,14,65.1,1.8,8.3,2.8,16.5-.6,24.6-.9,2.1-2.1,3.9-4.4,5.6-.2-1.2-.8-2.5-.5-3.6,1.7-7.7-.5-14.9-2.3-22.2-2.8-11.1-6.5-22.1-8.5-33.4-2.1-11.9-3.4-24.2-3.6-36.3-.3-16.8.8-33.6,1.5-50.5.1-2.7,1.3-5.4,1.9-8.2.7.2,1.5.3,2.2.5Z"/>
        <path class="cls-2" d="M185.9,646.1c3.1.3,6.3.8,9.4.9,4.7.2,7.2,2.5,6.9,7.1-.4,6.9-.7,13.9-2.1,20.7-.7,3.3-3.1,6.6-5.5,9.2-5.1,5.5-11.4,4.4-14.2-2.5-2.7-6.8-4.9-13.8-6.6-20.9-2.8-11.7,0-15,12-14.5Z"/>
        <path class="cls-2" d="M258.4,387.6c-4.2,0-7.5-.2-10.9,0-3.4.2-5-1.5-5.1-4.6-.2-7-.5-14-.3-21,0-1.4,2.7-3.9,3.8-3.7,9.7,1.1,19.4,2.7,29.1,4.3.9.2,2.2,1.8,2.2,2.8,0,5.6,0,11.3-.7,16.9-.3,1.7-3.1,3.8-5.1,4.2-4.5.9-9.3.9-13.1,1.2Z"/>
        <path class="cls-2" d="M221.4,387.6c-3.9-.3-8.2-.7-12.5-.8-4.1-.2-6-2.3-6.5-6.1-.1-1-.2-2-.3-3-1.5-14-1.5-14.2,11.9-16.9,6.2-1.3,12.5-1.9,18.7-2.6,3.4-.4,5,1.3,4.9,4.6-.1,6.5-.2,13-.4,19.5,0,3.8-1.7,5.8-5.9,5.4-3.1-.3-6.3,0-9.9,0Z"/>
        <path class="cls-2" d="M237.1,338.9c0,3.7,0,7.3,0,11,0,3.4-1.5,5.6-4.9,5.7-8.8.1-17.6,0-26.4-.3-1,0-2.8-2.2-2.9-3.5-.6-9.3,2-17,11.5-21.1,5.3-2.3,10.3-5.4,15.5-8.1,4.2-2.2,6.8-.9,7.1,3.9.3,4.1,0,8.3,0,12.5h0Z"/>
        <path class="cls-2" d="M303.4,838.9c-5-7.2-6.4-15.4-4.7-23.9,1.9-9.8,4.6-19.5,6.6-29.3,3.4-17.2,7.7-34.3,9.4-51.6,1.5-14.5-.2-29.3-.4-43.9,0-1.6-.1-3.1-.2-4.7.6,0,1.3-.2,1.9-.3.9,5.7,2.1,11.4,2.5,17.2,2.3,35.5.4,70.6-9.3,105.1-2.7,9.4-5.7,18.9-3.8,29,.1.7-.3,1.5-.5,2.2-.5,0-.9.1-1.4.2Z"/>
        <path class="cls-2" d="M242.5,338.3c0-4-.2-8,0-12,.3-4.5,2.9-5.9,6.8-3.9,6.4,3.3,12.7,6.6,18.9,10.2,6.6,3.9,10.3,13,8.3,20.2-.3,1.1-2.2,2.5-3.5,2.6-8.3.3-16.6.4-24.9.3-4.2,0-5.8-2.5-5.7-6.5,0-3.7,0-7.3,0-11,0,0,0,0,0,0Z"/>
        <path class="cls-2" d="M282,881c-5.5-5.6-5.2-13.1-4.7-20.3.6-9.5,5.4-17.4,11.2-24.6,4.5-5.7,10.1-4.5,12.3,2.6,2.1,6.7,3.6,13.5,4.9,20.4.3,1.9-.9,4.7-2.3,6-3.1,2.9-6.9,5.1-10.4,7.7-3.4,2.5-6.8,5.2-10.8,8.2Z"/>
        <path class="cls-2" d="M156,536.5c.9,2.9,2.2,5.8,2.6,8.8,3.4,22.7,11,44.2,17.9,65.9,2.1,6.6,3.6,13.5,4.7,20.3.4,2.4-.9,5.2-1.4,7.8-.5,0-1.1.1-1.6.2-.9-1.3-2-2.4-2.6-3.8-4.1-8.9-9-17.5-12-26.7-3.3-10.4-5.6-21.3-7.1-32.2-1.7-11.7-2-23.6-2.9-35.4-.1-1.6.3-3.2.5-4.8l1.9-.2Z"/>
        <path class="cls-2" d="M198.7,881.1c-4.1-3.1-7.3-5.7-10.6-8.1-3.4-2.5-6.9-4.7-10.2-7.2-2.9-2.1-3.5-5-2.6-8.5,1.5-5.6,2.4-11.4,4.3-16.9,1-2.9,3.3-6.7,5.7-7.2,2.3-.5,6.3,2,8,4.4,8.3,11.3,11.6,23.8,7.9,37.7-.6,2.1-1.7,4.1-2.4,5.8Z"/>
        <path class="cls-2" d="M395.7,459.2c-1.7-2.3-4-4.3-5.1-6.8-5.6-12.5-10.7-25.2-16.4-37.6-2.6-5.7-5.8-11.3-9.2-16.6-6.5-10.3-11.2-21.2-12.9-33.3-.4-2.9-.4-6,0-8.9.2-1.5,1.8-3.8,2.7-3.8,1.7,0,4,1.2,4.8,2.6,1.4,2.6,1.9,5.6,2.8,8.5,3.4,10.4,6.5,20.9,10.4,31.2,5.2,13.7,10.9,27.2,16.4,40.8,2.1,5.1,4.3,10,6.3,15.1,1,2.5,1.4,5.2,2,7.8-.7.4-1.4.7-2,1.1Z"/>
        <path class="cls-2" d="M83.2,458.2c.3-2,.2-4.1.9-5.9,8.3-21.3,17-42.4,25.1-63.8,3-7.9,5.1-16.2,7.5-24.3,1-3.2,1.5-6.6,3-9.5.8-1.5,3.3-2.5,5.2-2.8.6-.1,2.5,2.6,2.5,4,0,5,.2,10.2-1.2,14.8-2.4,7.8-4.8,15.8-9.1,22.6-10.7,16.9-18.1,35.3-25.8,53.6-1.7,4.1-4,8-6,11.9l-2.1-.8Z"/>
        <path class="cls-2" d="M301.1,640.3c-.8-3.2-2.1-5.6-1.8-7.8.9-6.4,1.7-13,3.8-19,8-22,13.8-44.6,17.7-67.7.5-3.3,1.9-6.4,3.3-10.8,7.2,16.6-9.1,90.8-23,105.2Z"/>
        <path class="cls-2" d="M189.9,884.4c3.8,9-4.7,16.6-4.9,25.8,0,.8-1.8,2.4-2.5,2.3-7.2-1.3-14.4-2.5-21.4-4.6-5-1.5-5.3-3.5-2.1-7.6,6-7.7,12-15.4,18-23.1.3-.4.6-.8,1-1,3.5-1.8,12,3.8,11.8,8.4Z"/>
        <path class="cls-2" d="M289.8,889.4c0-8.7,2.3-12,9.9-13.3,1.3-.2,3.3.5,4.1,1.4,5.8,7.5,11.3,15.2,16.9,22.8,2.9,3.9,2.7,5.9-2,7.4-6.6,2.1-13.5,3.3-20.3,4.7-.8.2-2.4-.8-2.6-1.5-2.1-6.8-4-13.6-5.9-20.5,0-.3,0-.7,0-1Z"/>
        <path class="cls-2" d="M274.3,570.1c1.4,18.4,2.9,37.4,4.4,56.5.4,5.3.2,10.5-4.1,14.3-1.2,1-3.4,1.7-4.8,1.4-.9-.2-1.7-2.6-1.9-4.1-.7-5.9-1-11.9-1.7-17.9-2-17.8,1.3-34.8,8-50.1Z"/>
        <path class="cls-2" d="M204.9,569.3c7.5,16.9,10.5,34.6,8.1,53.1-.7,5.3-.8,10.6-1.5,15.9-.2,1.5-1,3.6-2.1,4-1.1.5-3.3-.4-4.4-1.3-4.2-3.6-4.8-8.6-4.3-13.7.8-8.1,2.2-16.2,2.5-24.4.4-11.1.1-22.3.1-33.5.5,0,1,0,1.5-.1Z"/>
        <path class="cls-2" d="M269.8,654c1.2,2.2,2.5,3.6,2.7,5.3,1.9,12.6,8.9,23.1,14.1,34.4,3,6.5,5.1,13.3,7.3,20.1.6,1.8,0,4,0,6.5-11.9-7.3-30.4-57.2-24.2-66.3Z"/>
        <path class="cls-2" d="M238.9,188.6c-4.4-10.4-8.7-20.8-13-30.9h27.7c-4.2,9.9-8.7,20.4-13.1,30.9-.5,0-1.1,0-1.6,0Z"/>
        <path class="cls-2" d="M209.5,653.6c3.9,4.5,3.5,8.4,2.5,12-5,17.3-11.5,34-20.3,49.8-1,1.8-2.5,3.2-3.8,4.8-.5-.1-1-.3-1.5-.4.1-2.3-.3-4.8.5-7,2.8-7.8,6-15.5,9-23.2,3.6-9.5,7.1-19,10.6-28.4.8-2.2,1.8-4.4,3.1-7.6Z"/>
        <path class="cls-2" d="M246.9,206.3c-5.8-10.4,6-46,16.3-52.3,1.9,19.7-7,35.4-16.3,52.3Z"/>
        <path class="cls-2" d="M232.6,206.1c-9.3-16.7-18-32.4-16.3-51.7,9.6,3.5,22.3,41.3,16.3,51.7Z"/>
        <path class="cls-2" d="M285.7,384.4c-.2-.6-.3-.8-.3-.9q-1.1-15.6,10.7-25.6c2.7-2.2,5.3-4.5,8-6.8,5.7,13.8-4.1,31.4-18.4,33.3Z"/>
        <path class="cls-2" d="M176.1,350.7c6.1,5.1,11.9,9.8,17.5,14.8,1.2,1.1,1.9,3.2,2,4.8.3,4.6,0,9.3,0,14-14.3-1-22.9-15.8-19.5-33.6Z"/>
        <path class="cls-2" d="M253.6,570.4c-3.6-16.8-5.2-33.8-5.8-51.4,7.8,3.9,13.4,14.8,12.2,22-1.7,9.8-3.4,19.6-5,29.4-.5,0-.9,0-1.4,0Z"/>
        <path class="cls-2" d="M230.4,518c2.6,8.1-1.8,46.5-5.6,53.2-2.1-12-4.1-23.6-6-35.2-.2-.9,0-2.2.5-2.9,3.4-4.8,7-9.5,11.1-15.1Z"/>
        <path class="cls-2" d="M284.5,363c0-4.8-.1-9.6,0-14.3,0-1.2.8-2.7,1.7-3.4,6.2-4.7,12.5-9.1,19.2-14,1.4,7.2,1.8,13.7-4.1,19-5.1,4.5-10.1,8.9-15.2,13.4-.5-.2-1.1-.5-1.6-.7Z"/>
        <path class="cls-2" d="M175.4,331.6c6.5,4.7,13,9.1,19.3,14,1.1.9,1.4,3.3,1.4,5.1.2,4.1,0,8.2,0,12.8-15.9-6.7-24.4-20.1-20.8-31.8Z"/>
        <path class="cls-2" d="M348.7,361.4c.3.5.7.9.8,1.3,2,16.8,8.8,31.4,18.1,45.5,10.5,16,16,34.5,22.7,52.4-.4.2-.8.4-1.2.6-1.4-2.7-3-5.4-4.3-8.1-12.8-26.9-25.6-53.8-38.3-80.8-1.9-4-3.5-8.2,2.3-10.9Z"/>
        <path class="cls-2" d="M130.5,360.9c4.1,2.4,5.3,5.1,3.6,8.8-3.9,8.7-7.5,17.5-11.6,26.1-8.4,17.6-17,35.1-25.5,52.7-2,4.2-4.1,8.3-7.3,12.2.3-1.2.5-2.5,1-3.7,7.5-19.6,14.1-39.6,26.5-57,6.6-9.3,10-20.3,12-31.6.4-2.3.8-4.5,1.3-7.4Z"/>
        <path class="cls-2" d="M267.1,180.1c10.1,6.7,19,12.7,29.3,19.5-5.5,1-9.8,2.2-14.2,2.6-13.5,1.2-14.8,0-15.1-13.7,0-2.4,0-4.9,0-8.5Z"/>
        <path class="cls-2" d="M184.6,199.6c9.6-6.8,18.1-12.8,27.3-19.2,1.2,7.1,1.2,13.5-1.2,19.8-.3.9-1.7,1.8-2.7,1.9-7.7.8-15.2-.2-23.4-2.6Z"/>
        <path class="cls-2" d="M40.8,548.5c.5-2.2.7-4.5,1.5-6.6,3.8-9.8,7.8-19.4,11.6-29.2,1.4-3.5,3.9-2.4,6.3-1.8,3.2.9,2.4,2.9,1.4,5.1-4.5,9.6-8.9,19.3-13.6,28.8-1,2-3.4,3.4-5.1,5-.6-.5-1.3-.9-1.9-1.4Z"/>
        <path class="cls-2" d="M436.8,550c-1.8-1.8-4.2-3.4-5.2-5.5-4.4-9.5-8.5-19.1-12.5-28.8-.5-1.2.4-4.2.8-4.2,2.2-.1,6-.2,6.4.8,4.4,11.3,8.3,22.8,12.3,34.2.2.7,0,1.6-.1,2.4-.5.4-1.1.8-1.6,1.2Z"/>
        <path class="cls-2" d="M195.4,299.2v25.2c-.5.4-1,.8-1.6,1.1-4.5-3.9-9.2-7.8-13.6-11.8-.5-.5-.2-2.7.5-3.4,4.3-4.1,8.8-8,13.2-11.9.5.2,1,.5,1.5.7Z"/>
        <path class="cls-2" d="M286.1,342.2c-2.7-9-1.2-13.3,5.2-17.5,3.3-2.2,6.6-4.3,9.9-6.4,5.4,8.1,5.1,10.1-2.3,15.5-4,2.9-8.2,5.5-12.7,8.5Z"/>
        <path class="cls-2" d="M286.6,298.4c4.5,4,9.1,8,13.4,12.2.6.6.6,3.1-.1,3.8-3.6,3.4-7.5,6.5-11.5,9.5-2.4,1.8-3.8.2-3.8-2.3,0-7.4,0-14.9,0-22.3l2-.9Z"/>
        <path class="cls-2" d="M194.5,342.5c-6.3-4.5-12.6-7.9-17.2-12.9-1.8-2,0-7.4.3-11.6,15.6,6.2,19.8,12.3,16.9,24.6Z"/>
        <path class="cls-2" d="M28.8,536.5c.7-2.5.9-5.3,2.1-7.6,3.8-7.6,7.9-15,12.1-22.4.9-1.6,3-3.5,4.5-3.4,2,.1,3.8,2,5.7,3.1-1.1,1.7-2.1,3.4-3.2,5-3.6,5-7.2,10-10.8,14.9-2.8,3.8-5.7,7.4-8.5,11.1-.6-.3-1.2-.6-1.8-.9Z"/>
        <path class="cls-2" d="M448.9,537.2c-1.8-2.3-3.8-4.5-5.5-6.9-5-6.8-10.1-13.5-14.8-20.6-.8-1.2-.5-4.4.5-5.3,1.8-1.7,4.7-3.3,6.6.2,4.7,8.6,9.4,17.2,13.8,25.9.9,1.7.7,4,1,6-.5.2-1.1.4-1.6.6Z"/>
        <path class="cls-2" d="M285.6,883.3c1,3,2.2,5.5,2.8,8.2,1.3,5.7,2.4,11.3,3.2,17.1.2,1.8-1.1,3.9-1.7,5.8-2.4-1.3-5.5-2.1-7.1-4.1-1.8-2.1-2.5-5.2-3.2-8-.5-2.2-1-4.8-.2-6.7,1.5-3.9,3.9-7.5,6.4-12.3Z"/>
        <path class="cls-2" d="M195.7,883.6c1.9,4.6,3.8,8.6,5.2,12.8,1.7,5.1-3.8,16.9-8,17.7-3.2.7-4.7-.8-4.2-3.6,1.5-8.1,3.4-16.2,5.2-24.3.2-.8,1-1.5,1.8-2.7Z"/>
        <path class="cls-2" d="M164.2,287.8c7.6,4.3,14.6,8.4,22.3,12.8-3.2,2.8-6.3,5.9-9.7,8.6-.6.5-2.9.1-3.3-.6-3.4-5.5-6.7-11-9.6-16.7-.6-1.2.3-3.1.4-4.1Z"/>
        <path class="cls-2" d="M315.3,288.7c1,4.3-4.1,17.6-8.6,20.4-.8.5-2.7.4-3.5-.2-3.2-2.6-6.1-5.5-9.3-8.4,7.4-4.1,14.4-8,21.4-11.8Z"/>
        <path class="cls-2" d="M60.2,547.1c1.7-10.6,3.1-20.3,4.8-30,.2-1.2,2.4-2.9,3.8-3,2.8-.2,2.9,1.9,2.4,4.2-1.9,9.5-3.7,18.9-5.8,28.3-.3,1.5-2.4,2.6-3.6,3.9-.6-1.4-1.3-2.7-1.6-3.4Z"/>
        <path class="cls-2" d="M418.1,551.1c-1-1.4-2.5-2.7-2.9-4.3-2.1-9.4-4-18.8-5.7-28.3-.2-1.3,1-3.7,2.1-4.3,2.7-1.3,3.8.6,4.1,3.2,1.4,9.5,2.9,19.1,4.3,28.6.2,1.5-.3,3.1-.4,4.6-.5.2-1,.4-1.5.5Z"/>
        <path class="cls-2" d="M435.2,476.8c2.3,2.6,4.8,5,6.7,7.9,3.3,4.9,6.7,9.4,12.3,12.1,1.4.7,1.7,3.8,2.5,5.8-1.8.2-3.9,1.2-5.4.6-5.9-2.2-10.1-6.5-12.6-12.2-1.9-4.4-3.1-9-4.6-13.6.4-.2.8-.4,1.2-.6Z"/>
        <path class="cls-2" d="M22.1,502.9c1-2.2,1.5-5.1,2.9-5.8,6-2.9,9.6-7.9,13.2-13.2,1.7-2.6,4.1-4.7,6.5-7.4-.5,14.4-11.4,29.3-22.6,26.4Z"/>
        <path class="cls-2" d="M167.6,275.9c6.8,4.6,13.4,9,19.8,13.6.9.6,1.4,2.8,1,3.9-.2.7-2.6,1.5-3.6,1.1-4.5-1.6-9.1-3.2-13.3-5.5-3.9-2.1-5.2-7.2-3.8-13.2Z"/>
        <path class="cls-2" d="M313.1,275.8c1.4,8.2-.3,11.9-7.1,15-3.3,1.5-6.8,2.7-10.3,3.7-1,.3-3.3-.2-3.4-.7-.3-1.3-.2-3.4.6-4,6.5-4.8,13.1-9.2,20.1-14.1Z"/>
        <path class="cls-2" d="M172.2,327.2c-4.6-7.3-7.8-14.6-7.7-23.2,9.6,1.9,13.7,13.9,7.7,23.2Z"/>
        <path class="cls-2" d="M308.2,326.9c-5.5-9.1-4.2-14,6.5-23.4,1.3,9.1-1.2,16.5-6.5,23.4Z"/>
        <path class="cls-2" d="M227.5,205.5c-12.1-5.3-15.6-13.5-11.4-25.6,3.8,8.5,7.4,16.5,11.4,25.6Z"/>
        <path class="cls-2" d="M263.6,179.8c4,12.4.6,20.4-11.3,25.7,3.9-9,7.5-17.1,11.3-25.7Z"/>
        <path class="cls-2" d="M396.7,512.9c4-.2,6.3.3,6.1,4.4-.2,5.8-.2,11.6-.4,17.4,0,1.7-.7,3.4-1.7,5-5.4-8.4-1.8-17.8-4-26.8Z"/>
        <path class="cls-2" d="M83.8,512.9c-1.9,9.2,1.4,18.5-4.4,27-.4-1.6-1.1-3.2-1.2-4.8-.3-5.8-.4-11.6-.4-17.4,0-4.1.1-4.1,6-4.7Z"/>
        <path class="cls-2" d="M291.9,823.6c-4,6.1-7.7,11.7-11.5,17.5-2.8-8.8,3.5-18.7,11.5-17.5Z"/>
        <path class="cls-2" d="M188.8,823.9c7.1-2.5,12,4.6,11.2,16.7-3.9-5.8-7.5-11.3-11.2-16.7Z"/>
      </g>
      <g>
        <path class="cls-2" d="M247.5,511.9c-1.6,13.5,4.4,16.7,15.6,16.9,3.4,0,6.9-1.2,10.2-2.1,2.7-.7,5.4-2.2,8.1-2.5,5.6-.6,9.9-3.3,13.2-7.4,4.6-5.7,8.6-11.9,13.2-17.6,11.3-13.9,10.3-33.9-2.9-45.6-11.9-10.5-25.7-18-41-22.4-2.7-.8-7-.8-8.9.7-7,5.9-12.1,13.1-13.2,22.7-1.7,15.4.2,30.3,3.7,45.2,1,4.5,1.5,9.2,2,12ZM238.4,469.7c0-13.2-2.1-25.3-11.3-35.6-2.8-3.2-5.7-4.7-9.6-3.5-17,5.4-33,12.7-46.1,25.3-6,5.8-8.2,12.9-7.2,21,2,17.3,10.4,31.1,23,42.7,1.6,1.4,3.5,2.8,5.5,3.4,6.4,1.9,12.8,3.8,19.3,5.1,3.2.7,6.7.7,9.9.2,6.8-1.1,9.3-4.5,9.6-11.3.3-5.1.6-10.3,1.4-15.4,1.7-10.7,3.7-21.3,5.5-32ZM239.7,133.8c2.7,0,5.4-.3,8,0,6.9,1,10.9-1.9,13.5-8.2,2.5-6,6.6-10.7,13-13.3,1.3-.5,2.7-2.2,3.1-3.6,3.3-11.5,3.7-23-.7-34.4-2.3-5.8-5.9-10.5-12-12.8-16.1-6.1-32.2-6.4-48.5-.4-5.8,2.2-9.9,6-12.4,11.7-5,11.6-4.6,23.5-1.4,35.3.5,1.8,2.6,3.2,4.2,4.6,3.2,2.9,7.9,5,9.4,8.5,4.7,11.2,12.3,15,23.7,12.4ZM195.4,395.1c.6-1.1,1.1-1.9,1.4-2.8,6.5-16.6,13.1-33.3,19.5-50,3.2-8.4,6.4-16.9,8.7-25.6.8-3.1-.3-7.1-1.7-10.3-2.1-4.9-5.2-9.3-7.5-14.1-3.9-8.1-7.5-16.3-11.9-25.9-12.9,19.1-29.4,16.8-46.9,9.8.1,7.7,2.7,13.9,5.9,20,1.6,3.1,3.2,6.3,3.9,9.7,4,21.7,7.9,43.4,11.6,65.1,1.6,9.7,8.2,16.2,14.3,23.1.5.6,1.7.7,2.8,1.1ZM284.8,395.3c1.3-1.2,2.5-2.1,3.5-3.2,6.8-7.7,11.8-16,13.4-26.8,2.6-16.9,7-33.5,10-50.4,1.4-7.8,2.8-15.2,6.8-22.3,2.7-4.7,3.5-10.5,4.9-15-9.4,1.3-17.8,3.1-26.3,3.5-9.5.4-14.9-7.4-21.4-13.9-1.8,3.6-3.1,6.3-4.4,9-4,8.6-7,18-12.3,25.7-5.2,7.5-5.9,14.1-2.4,21.9.9,2,1.4,4.1,2.1,6.2,8.1,20.9,16.2,41.7,24.4,62.6.3.9,1,1.6,1.7,2.8ZM246,316.6c5.8-10.4,11.6-20,16.5-30,5.2-10.8,10.2-21.8,14.2-33.1,6.3-18,9.9-37.1,19.6-54.4-1.9-.6-3.4-1.5-5-1.6-8.1-.5-16.3-1.8-24.3-.9-18,2-23.8,7.2-24,23.8-.2,22.5.3,45.1.8,67.6.2,9.4,1.4,18.8,2.2,28.6ZM183.8,198.3c5.9,16.7,11.3,32.5,17.1,48,4.9,13.1,10.1,26.2,15.7,39,4.5,10.2,9.7,20.1,14.6,30.1.2.3.7.5,1.3.9.2-1.1.4-1.9.5-2.7,1.3-21.5,2.9-43.1,3.6-64.6.4-11.7-.8-23.4-1.6-35-.4-5.3-2.4-9.8-7.4-13-9.2-5.8-19.5-5.5-29.6-5.3-5,.1-10,1.7-14.3,2.5ZM247,431.7c.6.3,1.2.7,1.8,1,10.9-7,21.8-14,32.6-21.2,1.1-.8,1.6-3.2,1.5-4.8-.1-2.5-.7-5-1.6-7.3-9.3-23-18.7-46-28.2-69-.5-1.1-1.7-1.9-2.6-2.9-.6.2-1.1.4-1.7.5-5,34.5-6.5,69-1.9,103.7ZM314.7,678.9c-.2-2.5-.3-4-.5-5.6-2.2-13.7-4.9-27.3-6.5-41-1.2-10.4-1.3-21-1.5-31.5-.4-22.7-.5-45.5-1-68.2,0-4.1-1-8.3-1.9-12.3-.5-2.3-2.4-4.5-4.6-2-7.2,8.2-14.2,16.5-13.4,28.6.5,7,1,14,1.1,21,.1,28.8,3.3,57,13.9,84.1,3.6,9.3,7.2,18.5,14.4,27ZM164.9,678.1c.9-.3,1.3-.3,1.5-.5.9-1.2,1.8-2.4,2.4-3.8,11.9-24.4,20.4-49.8,22.2-77.1,1.2-17.6,2.5-35.2,3.7-52.8,0-.7.2-1.5,0-2-4.6-7.7-9-15.5-13.9-23-2-3-4.5-1.9-5.4,1.3-.9,3.5-1.7,7.2-1.7,10.9-.4,20.9-.3,41.8-1.1,62.7-.7,17.7-2.1,35.3-3.7,53-.9,10.4-2.7,20.7-4.1,31.4ZM231.7,433.3c4.5-36.2,3.4-70.8-2.6-105.4-1.5,1-2.3,2.1-2.8,3.3-8.7,20.6-17.4,41.2-25.8,61.9-1.7,4.1-2.7,8.6-3.4,13.1-.3,1.8.4,4.8,1.8,5.6,10.3,7.1,20.9,13.7,32.9,21.5ZM295.4,663.9c0,2.9,0,4.3,0,5.8.7,34.9,1.3,69.8,2.2,104.7,0,3.3,1.1,7,2.8,9.9,2.6,4.4,9.3,4.8,12,1.1,1.4-1.9,2.2-4.5,2.8-6.9,6-25,6.5-50.2,2.3-75.6-2.5-15.4-11.3-26.9-22.1-39ZM183.1,664.1c-11.1,11.7-18.5,24.7-21.1,40.5-2.7,16.8-3.2,33.7-1.3,50.5,1.1,9.3,3.1,18.4,5.4,27.5.5,2.1,3.8,4.6,6,4.8,2.2.2,5.8-1.7,6.8-3.7,1.7-3.3,2.3-7.3,2.4-11,.2-9.9-.4-19.7-.2-29.6.6-26.1,1.4-52.1,2.1-78.9ZM187.3,665.6c0,6.6,0,12.8,0,18.9-.1,30.6-.3,61.1-.4,91.7,0,1.8,0,3.7.3,5.5,1.1,6.4,4.9,7.7,9.9,3.5,1.4-1.2,2.6-2.6,3.7-4,7.7-9.9,11.1-21.1,10.7-33.7-.8-29.2-6.5-56.9-24.3-82ZM291.4,666.2c-.5,0-1,0-1.5-.1-2.6,5.9-4.8,11.9-7.8,17.6-12,22.5-13.9,46.9-13.6,71.6.1,11,5.2,20.7,12.8,28.7,1.7,1.7,5.3,3.8,6.5,3.1,1.9-1.1,3.2-4.4,3.7-6.9.6-3,.2-6.3.2-9.5-.1-25.9-.3-51.8-.4-77.7,0-8.9,0-17.9,0-26.8ZM203.5,539.1c-.6,0-1.2,0-1.7-.1-1,3.3-2.5,6.6-2.9,9.9-2.1,17.4-4.6,34.8-5.5,52.2-1,21-.6,42-.3,63.1,0,3.5,2.1,7,3.2,10.5.5,0,.9-.1,1.4-.2.4-1.9,1-3.7,1.2-5.7,1.1-7.6,1.9-15.3,3.2-22.8,3.2-18.7,5.7-37.7,10.3-56.1,4.7-18.9.1-35.1-9-50.8ZM279.1,539.1c-.9,0-1.8,0-2.6,0-9.2,15-13.9,30.9-9.6,48.8,2.2,8.9,4.8,17.8,6.3,26.8,2.8,17,4.8,34.1,7.2,51.2.4,2.9,1.2,5.8,1.9,8.7,1.6-1.2,2.2-2.2,2.4-3.3.6-4,1.4-7.9,1.6-11.9,1.7-32-.7-63.8-3.6-95.7-.7-8.2-2.3-16.3-3.5-24.5ZM90,484.9c-.3-8.8-3.2-11.6-11.6-13.9-12.1-3.4-20.8,1.8-28.7,9.6-5.4,5.4-7.1,13.4-3.5,18.2,7.5,9.9,17.5,15.8,30.4,15.6,5.2,0,8.6-2.8,9.6-7.9,1.4-7.2,2.6-14.4,3.8-21.7ZM390.4,485.7c.2,2.8.4,5.7.8,8.5.5,3.5,1.1,6.9,1.9,10.3,2,8.5,6.5,12,14.8,9.6,7.2-2.1,14.4-5.4,20.6-9.7,8.6-5.9,9.7-14.7,2.6-22.4-7.5-8.2-16.6-14.4-29.1-11.2-9.3,2.4-11.9,5.3-11.6,14.9ZM120.2,266.5c7-4.2,12.8-7.3,18.2-11.1,5.5-3.9,8.7-9,9-16.4.3-9.5,5.1-17.1,13.4-22.2,2.3-1.4,4.4-3.2,6.9-5-5.1-4.5-10.2-7-16.3-6.9-11.2.1-29.6,11.8-31,26.4-1,11-.2,22.2-.2,35.3ZM358.9,265.3c0-9.3-.5-17.7.1-26,1.2-16.8-10.9-28.2-23.5-33.2-8.5-3.3-16.3-.8-23.4,5.7,1.9,1.4,3.4,2.7,5,3.7,10.2,5.8,15.2,14.6,15.6,26.3,0,1.9.4,4.2,1.4,5.7,5.9,8.4,13.7,14.4,24.7,17.7ZM281.4,266.1c3.3-1,5.3-1.4,7.1-2.3,5.9-2.8,11.5-6.1,17.5-8.7,6.8-3.1,11.1-8.4,14.4-14.7,1.5-3,2.7-6.1,4.3-9,1.8-3.1.8-5-2.2-6.3-7.9-3.6-15.8-7.1-23.7-10.8-4.5-2.1-7.1-.3-8.3,4-3.8,14.2-7.6,28.4-11.1,42.7-.4,1.5,1.3,3.4,2,5.2ZM195.8,265.5c5.3,0,5.5-2.5,4.6-5.7-3.8-13.3-7.6-26.5-11.4-39.8-.3-1.1-.8-2.2-1.2-3.3-1.3-3.3-3.7-4.3-6.8-2.8-8.2,3.8-16.3,7.6-24.3,11.7-1.1.6-2.3,3.1-1.9,4.2,4.1,10.7,9.1,20.9,20.1,26.4,4.3,2.1,8.5,4.6,12.9,6.6,2.9,1.3,6,2,8,2.7ZM122.8,359.4c1,.3,1.9.6,2.9.9,2.9-4.3,6.5-8.4,8.5-13.1,3.1-7.3,4.1-15.4,10.1-21.3,1.1-1.1,1.5-3,2-4.6,1.9-5.7,3.8-11.4,5.5-17.1,1.8-6,2-12,0-18.9-2.2,1.6-3.9,2.6-5.3,3.8-3.6,3-6.9,6.3-10.6,9.1-4.3,3.2-6.8,7.2-7.5,12.4-1.4,10.1-3.1,20.1-4.3,30.2-.7,6.2-.8,12.4-1.1,18.6ZM77.5,465.7c.4.2.8.5,1.1.7,1-1.4,2.2-2.6,3-4.1,5-10,9.8-20.1,14.9-30.1,10-19.3,9.2-39.3,4-59.6-1-3.8-3-7.4-4.5-11.1-3.3,16.8-5.3,33.2-7.8,49.5-2.8,18.4-4.8,36.9-10.8,54.6ZM400.4,465.8c-5.4-34.9-10.8-69.4-16.3-104.9-.5,1-.8,1.4-1,1.9-8,20-11.3,40.3-3.1,60.9,4.5,11.2,9.8,22,14.9,32.8,1.5,3.2,3.6,6.2,5.4,9.2ZM313.5,623.7c8.1-14.1,15.7-109.2,10.5-119.7-.4.3-.9.5-1.2.9-.6,1-1.1,2.1-1.6,3.1-8.1,19.6-10.6,39.9-9.1,60.9.9,11.8,1.9,23.7,2.3,35.5.2,6.4-.6,12.9-1,19.3ZM165.9,624.5c.2-1.2.5-2,.4-2.7-2.4-17.1,0-34,1.3-51,1.7-21.5-.5-42.4-8.9-62.5-.7-1.5-1.6-3-2.8-5-5.2,15.1,2.6,107.7,10.1,121.2ZM328.4,284.7c-2.8,8.6-1.9,15.4.6,22.2,1.3,3.4,2.1,7.1,3.5,10.4,1.9,4.4,4.2,8.6,6.2,12.9,1.7,3.9,4,7.8,4.6,11.9,1.1,7.7,5.3,13,11.5,18.5.4-2.5,1.1-4.3.9-6-.4-6.1-.9-12.3-1.7-18.4-.9-6.6-3.2-13.2-3-19.8.7-16.6-12.9-21.8-22.6-31.7ZM281.9,191.1c.1-.4.2-.8.4-1.3-2-1.2-3.9-2.8-6-3.6-9.4-3.5-14.2-10.8-15.9-20.2-1.1-6.4-1.9-12.9-2.2-19.3-.3-5.1-3.5-5.5-7.2-5.5-3.6,0-7.3.2-7.2,5.4.2,13.4.4,26.7.6,40.1,0,3.6,1.9,5.1,5.4,5.1,8.5,0,17,.2,25.5.1,2.2,0,4.5-.6,6.7-.9ZM197.3,189.7c.2.7.4,1.4.7,2.1,10.3,0,20.6,0,30.9,0,4.1,0,5.6-1.9,5.6-5.8.2-12.7.5-25.3.7-38,0-5.4-1.5-6.7-6.9-6.8-4.5,0-6.1,1.9-6.7,6.6-1,8.9-3,17.6-5,26.3-1.1,4.6-4.4,7.7-8.8,9.7-3.7,1.7-7.1,3.9-10.6,5.9ZM295.7,883.1c.5,0,1.1,0,1.6,0,.4-1.7.8-3.4,1.2-5.1,5.5-24.9,4.1-51,13.8-75.2,1.7-4.2-1.1-7.5-5.7-8-5.3-.7-8.7,2.1-9.1,8.1-1.3,21.4-2.6,42.7-3.5,64.1-.2,5.3,1.2,10.7,1.8,16.1ZM145.7,253.7c-3.5,2.8-6,4.9-8.7,6.8-13.4,9.4-18.3,21.9-14.4,37.9.4,1.4,1.6,2.7,2.5,4,1.2-.8,2.5-1.4,3.6-2.4,3.8-3.3,7.5-6.9,11.4-10.1,2.4-2,5.3-3.6,7.6-5.7,1.2-1.1,2.4-3.1,2.2-4.5-1.1-8.2-2.6-16.4-4.2-25.9ZM181.2,883.1c.5,0,1,0,1.6,0,.4-2.1,1.2-4.2,1.2-6.3,0-14.3.1-28.7-.4-43-.4-10.8-1.4-21.7-2.6-32.5-.5-5-5.1-7.6-9.5-6.2-3.9,1.2-5.1,4.5-3.7,9.4,1.4,5,3.2,9.9,4,15,2.3,15,4.1,30.1,6.3,45.2.9,6.2,2.1,12.4,3.1,18.5ZM189.9,881.4c.2,0,.4,0,.7,0,.9-6.7,1.2-13.6,2.8-20.2,4.6-18.5,7.7-37.2,7.7-56.4,0-5.3-2.9-8.1-7.9-8.3-5.6-.2-5.6,3.9-5.5,7.5.4,24.9,1,49.7,1.6,74.6,0,.9.4,1.8.6,2.7ZM334,254.5c-1.2,7.3-2,14.1-3.7,20.7-1.3,5.2.1,8.2,4.5,11.3,5.2,3.7,9.7,8.5,14.6,12.8,1.3,1.2,2.9,2,4.3,3,.9-1.7,2.3-3.2,2.6-5,3.5-18.2-4.4-33.6-22.4-42.8ZM288.2,881.1c.4,0,.7,0,1.1,0,.5-10.2,1.3-20.3,1.5-30.5.3-16,.2-32.1.1-48.1,0-2.8-.4-6-4.5-5.9-4,0-6.8,1.8-7.7,5.7-.3,1.4-.3,3-.1,4.5,2,15.9,3.9,31.8,6,47.6,1.1,8.9,2.4,17.8,3.6,26.7ZM166.3,452.1c.3.3.7.5,1,.8,14.8-10.8,29.1-22.5,48.1-26.1-1.9-2-3.6-3.8-5.6-4.3-6.5-1.6-13-2.9-19.6-3.8-5.6-.8-10.4,1.5-13,6.6-3.7,7.2-6.9,14.7-10.2,22.2-.6,1.4-.5,3.1-.7,4.6ZM313.7,453.6c-.5-3-.5-4.9-1.1-6.5-2-4.7-4-9.4-6.4-14-7.8-15-11.9-16.9-28.4-13-2.9.7-5.8,1.5-8.6,2.6-1.8.8-3.3,2.3-4.9,3.4,0,.5,0,1,0,1.5,19.4,2,32.3,16,49.3,25.9ZM284.8,267.2c-.2.8-.4,1.6-.6,2.3,4,1.6,7.9,3.7,12.1,4.6,19,3.9,34.8-6.6,33.3-30.1-.1-1.6-1.5-3.1-2.3-4.7-1.1.8-2.6,1.4-3.2,2.5-7.2,13.6-19.6,19.9-33.7,23.7-1.9.5-3.7,1.1-5.6,1.6ZM195.1,267.8c-.4-.3-.8-.7-1.2-.8-2.1-.6-4.2-1.1-6.3-1.6-13.4-3.6-24.5-10.4-31.5-22.9-.7-1.3-2.2-2.2-3.3-3.3-.9,1.4-2.7,3-2.6,4.3.4,5.4.5,11.2,2.3,16.2,5.9,16.1,30.3,20.7,42.6,8ZM308,423.4c.2-.4,1.3-1.6,1.4-2.8.3-8.1.9-16.3.4-24.4-.2-3.5-2.6-7.1-4.9-10.1-2.3-3.1-5.6-3.6-8.3,0-3.5,4.7-6.9,9.4-10.2,14.2-2.5,3.6-1.4,6.2,2.2,8.7,6.4,4.4,12.4,9.2,19.4,14.4ZM171,423.3c6.7-5,13.1-9.8,19.5-14.6.9-.7,2.1-1.3,2.6-2.2.6-1.1,1.3-3,.7-3.9-3.3-5.2-6.8-10.3-10.5-15.2-4.2-5.3-8.7-5-11.2,1.3-4.7,11.5-3.1,23.4-1.1,34.6ZM349.8,374.2c.5,8.4,37,81.7,42,85.7-5.7-15.1-11.9-31.5-18-47.8-3.9-10.3-7.7-20.6-11.7-30.8-2.6-6.5-5.9-8.3-12.3-7.1ZM362.3,294.1c-3.8,8.5-9.6,15.6-8,23.9,2,10.2,6.2,20.1,9.7,30,1.1,3,3.2,2.7,4.6,0,.6-1.2,1.1-2.5,1.3-3.8,1.7-12.3-.2-24.3-2.9-36.2-1-4.3-2.8-8.3-4.7-13.7ZM199.6,872.2c-.7,0-1.5-.2-2.2-.3-.7,3.2-1.3,6.3-2,9.5-1.1,5-5.2,8.5-9.7,8.6-5.6,0-6.8-3.9-7.6-8.2-.5-2.8-.8-5.6-1.7-8.3-.7-2.4-2.1-4.6-3.1-6.8-1.4,1.3-1.7,2.2-1.6,3.1.3,9.2.6,18.3,1.1,27.5.4,7,1.6,8.1,8.5,7.9,3.3-.1,6.7-.5,10-.5,3.6,0,5.8-1.7,6.2-5.2.8-9.1,1.4-18.1,2.1-27.2ZM87.3,460.3l1.4.6c13.7-28.8,30.2-56.2,41.3-86.8-4.9-1.1-8.5-.3-10.8,2.9-1.8,2.5-3,5.6-4.1,8.5-9,24.6-15.5,50.1-27.7,73.5-.2.4,0,.9-.1,1.3ZM306.1,866.2c-1.3,2.2-2.8,3.8-3.3,5.7-1.1,3.8-1.7,7.8-2.5,11.8-.7,3.6-2.5,6.1-6.6,6.3-4,.2-6.9-1.4-8.2-5.2-.9-2.7-1.1-5.5-1.8-8.3-.4-1.7-1.3-3.2-2.1-5.3,0,8.5-.4,16.2.1,23.8.6,8.9,1.5,9.3,10.3,9.8,2.3.1,4.7.1,7,.3,4.4.4,6.6-1.7,6.8-6,.5-10.3.9-20.7,1.3-31,0-.4-.4-.8-1.1-2ZM257.9,585.6h1.4c-3.8-18.4,1.1-34.9,12-51.1-7-.5-13.1-.9-19.2-1.2-3.3-.2-4.9,1.7-4.8,4.9,0,2,0,4.1.4,6,2.4,10.5,4.9,21,7.4,31.5.8,3.4,1.9,6.7,2.8,10ZM116.9,295.5l-1.9-.3c-1.8,10.6-3.9,21.2-5.2,31.8-.7,5.4-.3,11,0,16.5.2,2.2,1.8,4.3,2.7,6.4l1.6-.4c2.5-6.7,4.4-13.7,7.5-20.1,5.9-12.6,1.5-23.3-4.8-33.9ZM221.9,585.9c1.6-5.7,3.7-12,5-18.4,1.9-9.1,3.3-18.4,4.6-27.6.4-2.8.4-6.5-3.5-6.5-6.1,0-12.3.7-17.9,1,3.7,9.1,8,17,9.9,25.4,1.9,8.5,1.4,17.6,1.9,26.1ZM89.4,369c-.3,0-.6,0-.9.1-6.7,31.8-13.4,63.6-19.9,95,.8-.9,2.5-2.4,3.3-4.2,3.7-8.7,8.8-17.1,10.4-26.2,3.5-19.5,5.2-39.3,7.6-59.1.2-1.8-.3-3.7-.5-5.6ZM392.1,369.1c-.6,0-1.2-.1-1.8-.2-.2,2.5-.7,5-.4,7.5,2.2,18.4,4,36.9,7.1,55.1,1.5,8.9,5.4,17.5,8.6,26,1,2.6,3.3,4.8,5,7.2.3-.2.7-.5,1-.7-10.5-30.8-13.2-63.2-19.6-94.8ZM153.3,909.2c3.7,2.3,6,4.7,8.7,5.2,10.7,2.1,21.6,3.8,32.4,5.2,3.8.5,5.3-2.1,4.2-5.9-.9-3.2-2.4-5.3-6.1-5.4-11.3-.3-22.6-.7-33.9-.9-1.3,0-2.6.9-5.3,1.8ZM327.5,909.8c-2.7-1.3-3.8-2.4-4.8-2.4-11.8.2-23.6.4-35.4,1-3.3.1-6.3,4.8-5.6,8.1.7,3.7,3.8,3.4,6.4,3.1,9.2-1.2,18.5-2.3,27.6-4.1,3.7-.7,7-3.2,11.9-5.6ZM274,682.8c.2-32.6-2-64.9-12.4-95.9-2.2,7.4-.7,14.9.8,22.5,2.4,12.4,4.2,24.9,6.1,37.5,1.3,9.1,2.3,18.2,3.6,27.3.4,2.9,1.3,5.8,2,8.6ZM218.9,586.7c-11.5,31.6-12.9,64.2-13.5,96.9,1.4-5.3,2.8-10.6,3.5-15.9,2.9-22,3.4-44.3,9.8-65.9,1.4-4.7.2-10.1.2-15.1ZM373.9,349.6c-2.2,2.5-3.9,4.9-6.1,6.8-9.2,8.1-8.3,22.4,2,28.9,4.1-4.5,6-20.5,4.1-35.7ZM440.5,552.5c0-1.1.2-1.8,0-2.3-4-11.5-7.9-23-12.4-34.2-.5-1.2-4.8-1-7.3-1-.3,0-1.2,3.4-.7,4.7,2.3,5.1,5.2,10,7.6,15,2.1,4.4,3.6,8.9,5.6,13.4,1.2,2.8,2.9,5.3,7.2,4.4ZM109.6,386c11.7-10,9.2-28.7-4.7-35.6,3.6,11.8-2,24.1,4.7,35.6ZM39.1,552c.7.5,1.4,1,2.1,1.6,1.8-1.9,4.3-3.6,5.4-5.9,4.2-9.1,8-18.4,12-27.6.9-2.1,2.7-4.4-1-5.6-2.8-.9-5.3-1.4-6.7,2.6-3.1,9.2-6.6,18.2-9.9,27.3-.9,2.4-1.3,5-1.9,7.5ZM27.1,540.1c.6.3,1.2.5,1.7.8,1.3-1.4,2.7-2.8,3.8-4.3,5.3-7.3,10.6-14.5,15.8-21.9,1.1-1.5,2.4-3.8,1.9-5.1-.6-1.4-3.1-2.9-4.7-2.9-1.4,0-3.3,1.8-4.2,3.3-4.3,7.5-8.4,15.1-12.3,22.9-1.1,2.2-1.4,4.8-2,7.3ZM449.9,541.8c.8-.5,1.5-1,2.3-1.6-.2-2,0-4.2-.8-5.9-4.5-8.8-9.2-17.4-13.9-26-1.8-3.3-4.5-2-6.3-.4-1.1,1-1.8,4.1-1.1,5.2,5.7,8.4,11.9,16.5,17.8,24.7.9,1.2,1.3,2.7,1.9,4.1ZM57.6,550.7c.3.7,1,2.1,1.6,3.5,1.3-1.3,3.3-2.4,3.6-3.9,2.1-9.4,3.9-19,5.8-28.4.5-2.2.5-4.4-2.3-4.1-1.4.1-3.6,1.7-3.9,2.9-1.8,9.7-3.2,19.4-4.9,30ZM418.8,554.7c.5-.3,1-.5,1.6-.8.2-.8.6-1.6.5-2.4-1.5-10.6-2.9-21.2-4.7-31.7-.2-.9-2.6-1.5-4-2.2-.7,1.4-2.2,2.9-1.9,4.1,1.7,9.5,3.7,19,5.8,28.5.4,1.6,1.8,2.9,2.7,4.4ZM437.2,480.2c-.4.3-.9.6-1.3.9,1.8,5,3,10.3,5.5,14.9,2.8,5.4,6.9,9.9,13.4,11.1,1.2.2,3.6-.5,3.8-1.1.3-1.4-.1-3.3-.9-4.6-.6-1-2.2-1.4-3.2-2.3-2.9-2.6-5.9-5.2-8.5-8.1-3.1-3.4-5.9-7.1-8.8-10.7ZM43.2,480.7c-8.1,6.5-11.9,17.6-22.5,21.5-.6.2-.8,2.6-.4,3.7.2.7,2,1.6,2.8,1.4,2.8-.8,5.8-1.5,8.2-3.1,8.2-5.5,10-14.5,11.9-23.4ZM81.4,516.3c-2.5.8-6.2-.8-6.2,3.8,0,6.6.2,13.3.6,19.9,0,1.2,1.3,2.3,2.1,3.5.9-1.1,2.1-2,2.7-3.2.6-1.3.8-2.9.8-4.4,0-6.3,0-12.6,0-19.7ZM400.6,543.4c.5,0,1,0,1.5,0,.3-1.5.9-3,1-4.6.3-5.8.3-11.6.6-17.4.2-4.1-1.7-5.4-6.1-4.8,1.5,8.9-1,18.2,3,26.8Z"/>
        <path class="cls-1" d="M247.5,511.9c-.5-2.8-1-7.5-2-12-3.4-14.9-5.3-29.9-3.7-45.2,1.1-9.7,6.2-16.8,13.2-22.7,1.9-1.6,6.1-1.5,8.9-.7,15.3,4.5,29.1,11.9,41,22.4,13.2,11.6,14.2,31.6,2.9,45.6-4.6,5.7-8.6,11.9-13.2,17.6-3.3,4.1-7.6,6.8-13.2,7.4-2.8.3-5.4,1.8-8.1,2.5-3.4.9-6.8,2.2-10.2,2.1-11.2-.2-17.2-3.4-15.6-16.9Z"/>
        <path class="cls-1" d="M238.4,469.7c-1.9,10.7-3.9,21.3-5.5,32-.8,5.1-1.1,10.3-1.4,15.4-.3,6.8-2.8,10.2-9.6,11.3-3.2.5-6.7.4-9.9-.2-6.5-1.4-12.9-3.2-19.3-5.1-2-.6-3.9-2-5.5-3.4-12.6-11.6-21-25.4-23-42.7-.9-8.1,1.3-15.2,7.2-21,13-12.7,29-20,46.1-25.3,3.9-1.2,6.7.3,9.6,3.5,9.2,10.3,11.2,22.4,11.3,35.6Z"/>
        <path class="cls-2" d="M239.7,133.8c-11.4,2.6-19-1.3-23.7-12.4-1.5-3.5-6.2-5.6-9.4-8.5-1.5-1.4-3.7-2.8-4.2-4.6-3.2-11.9-3.6-23.7,1.4-35.3,2.5-5.7,6.6-9.5,12.4-11.7,16.2-6.1,32.3-5.7,48.5.4,6.1,2.3,9.7,6.9,12,12.8,4.4,11.4,4,22.9.7,34.4-.4,1.4-1.8,3-3.1,3.6-6.3,2.5-10.5,7.2-13,13.3-2.6,6.3-6.6,9.2-13.5,8.2-2.6-.4-5.3,0-8,0Z"/>
        <path class="cls-2" d="M195.4,395.1c-1.1-.4-2.3-.5-2.8-1.1-6-6.9-12.6-13.4-14.3-23.1-3.7-21.7-7.5-43.5-11.6-65.1-.6-3.4-2.3-6.6-3.9-9.7-3.2-6.1-5.8-12.3-5.9-20,17.5,7,34,9.3,46.9-9.8,4.4,9.7,8,17.9,11.9,25.9,2.3,4.8,5.5,9.2,7.5,14.1,1.3,3.2,2.5,7.2,1.7,10.3-2.3,8.7-5.5,17.2-8.7,25.6-6.4,16.7-13,33.3-19.5,50-.4.9-.9,1.7-1.4,2.8Z"/>
        <path class="cls-2" d="M284.8,395.3c-.7-1.2-1.3-2-1.7-2.8-8.1-20.9-16.3-41.7-24.4-62.6-.8-2-1.3-4.2-2.1-6.2-3.4-7.8-2.8-14.4,2.4-21.9,5.4-7.7,8.3-17.1,12.3-25.7,1.3-2.7,2.6-5.4,4.4-9,6.4,6.6,11.9,14.3,21.4,13.9,8.5-.3,16.9-2.2,26.3-3.5-1.4,4.6-2.2,10.3-4.9,15-4.1,7-5.4,14.5-6.8,22.3-3,16.9-7.4,33.5-10,50.4-1.6,10.7-6.6,19-13.4,26.8-1,1.1-2.1,2-3.5,3.2Z"/>
        <path class="cls-2" d="M246,316.6c-.8-9.8-1.9-19.2-2.2-28.6-.6-22.5-1.1-45.1-.8-67.6.2-16.5,6-21.7,24-23.8,8-.9,16.2.4,24.3.9,1.6,0,3.1.9,5,1.6-9.7,17.3-13.3,36.3-19.6,54.4-4,11.3-8.9,22.3-14.2,33.1-4.9,10.1-10.8,19.7-16.5,30Z"/>
        <path class="cls-2" d="M183.8,198.3c4.2-.8,9.3-2.4,14.3-2.5,10.1-.2,20.4-.5,29.6,5.3,5,3.1,7,7.6,7.4,13,.8,11.7,1.9,23.4,1.6,35-.7,21.6-2.3,43.1-3.6,64.6,0,.8-.3,1.6-.5,2.7-.7-.4-1.2-.6-1.3-.9-4.9-10-10.2-19.9-14.6-30.1-5.6-12.8-10.8-25.9-15.7-39-5.8-15.6-11.2-31.3-17.1-48Z"/>
        <path class="cls-2" d="M247,431.7c-4.6-34.7-3.1-69.2,1.9-103.7.6-.2,1.1-.4,1.7-.5.9.9,2.1,1.7,2.6,2.9,9.5,23,18.9,46,28.2,69,.9,2.3,1.5,4.8,1.6,7.3,0,1.6-.4,4.1-1.5,4.8-10.8,7.2-21.7,14.2-32.6,21.2-.6-.3-1.2-.7-1.8-1Z"/>
        <path class="cls-2" d="M314.7,678.9c-7.2-8.5-10.8-17.7-14.4-27-10.6-27.1-13.8-55.3-13.9-84.1,0-7-.6-14-1.1-21-.8-12,6.2-20.4,13.4-28.6,2.2-2.5,4.1-.3,4.6,2,.9,4.1,1.8,8.2,1.9,12.3.5,22.7.6,45.5,1,68.2.2,10.5.3,21.1,1.5,31.5,1.6,13.7,4.3,27.3,6.5,41,.2,1.5.3,3.1.5,5.6Z"/>
        <path class="cls-2" d="M164.9,678.1c1.4-10.6,3.2-21,4.1-31.4,1.5-17.6,3-35.3,3.7-53,.8-20.9.6-41.8,1.1-62.7,0-3.6.8-7.3,1.7-10.9.8-3.2,3.4-4.3,5.4-1.3,4.9,7.5,9.3,15.3,13.9,23,.3.5.1,1.3,0,2-1.2,17.6-2.6,35.2-3.7,52.8-1.8,27.3-10.3,52.7-22.2,77.1-.7,1.3-1.6,2.6-2.4,3.8-.1.2-.6.2-1.5.5Z"/>
        <path class="cls-2" d="M231.7,433.3c-12-7.7-22.5-14.4-32.9-21.5-1.3-.9-2-3.9-1.8-5.6.7-4.4,1.7-8.9,3.4-13.1,8.5-20.7,17.2-41.3,25.8-61.9.5-1.2,1.3-2.2,2.8-3.3,6,34.6,7,69.2,2.6,105.4Z"/>
        <path class="cls-2" d="M295.4,663.9c10.8,12,19.6,23.6,22.1,39,4.1,25.4,3.7,50.6-2.3,75.6-.6,2.4-1.4,4.9-2.8,6.9-2.7,3.8-9.4,3.3-12-1.1-1.7-2.9-2.7-6.5-2.8-9.9-.9-34.9-1.5-69.8-2.2-104.7,0-1.5,0-3,0-5.8Z"/>
        <path class="cls-2" d="M183.1,664.1c-.7,26.7-1.6,52.8-2.1,78.9-.2,9.9.4,19.7.2,29.6,0,3.7-.7,7.8-2.4,11-1,2-4.5,3.9-6.8,3.7-2.2-.2-5.4-2.7-6-4.8-2.3-9-4.3-18.2-5.4-27.5-1.9-16.8-1.4-33.7,1.3-50.5,2.6-15.7,10-28.7,21.1-40.5Z"/>
        <path class="cls-2" d="M187.3,665.6c17.8,25.1,23.5,52.8,24.3,82,.4,12.6-3,23.8-10.7,33.7-1.1,1.4-2.3,2.9-3.7,4-5,4.2-8.8,2.8-9.9-3.5-.3-1.8-.3-3.7-.3-5.5.1-30.6.3-61.1.4-91.7,0-6.2,0-12.3,0-18.9Z"/>
        <path class="cls-2" d="M291.4,666.2c0,8.9,0,17.9,0,26.8.1,25.9.2,51.8.4,77.7,0,3.2.4,6.4-.2,9.5-.5,2.5-1.7,5.8-3.7,6.9-1.2.7-4.9-1.4-6.5-3.1-7.6-8-12.7-17.6-12.8-28.7-.3-24.7,1.6-49.1,13.6-71.6,3-5.6,5.2-11.7,7.8-17.6.5,0,1,0,1.5.1Z"/>
        <path class="cls-2" d="M203.5,539.1c9.1,15.8,13.7,32,9,50.8-4.6,18.4-7.1,37.3-10.3,56.1-1.3,7.6-2.1,15.2-3.2,22.8-.3,1.9-.8,3.8-1.2,5.7-.5,0-.9.1-1.4.2-1.1-3.5-3.2-7-3.2-10.5-.2-21-.6-42.1.3-63.1.8-17.5,3.4-34.8,5.5-52.2.4-3.4,1.9-6.6,2.9-9.9.6,0,1.2,0,1.7.1Z"/>
        <path class="cls-2" d="M279.1,539.1c1.2,8.2,2.8,16.3,3.5,24.5,2.9,31.8,5.3,63.7,3.6,95.7-.2,4-1,8-1.6,11.9-.2,1.1-.8,2.1-2.4,3.3-.6-2.9-1.5-5.8-1.9-8.7-2.4-17.1-4.4-34.2-7.2-51.2-1.5-9-4.1-17.9-6.3-26.8-4.4-17.9.4-33.8,9.6-48.8.9,0,1.8,0,2.6,0Z"/>
        <path class="cls-2" d="M90,484.9c-1.3,7.2-2.4,14.5-3.8,21.7-1,5.1-4.4,7.8-9.6,7.9-12.9.2-22.8-5.7-30.4-15.6-3.7-4.8-2-12.8,3.5-18.2,7.9-7.8,16.6-13.1,28.7-9.6,8.4,2.4,11.2,5.2,11.6,13.9Z"/>
        <path class="cls-2" d="M390.4,485.7c-.3-9.6,2.3-12.5,11.6-14.9,12.5-3.2,21.5,3,29.1,11.2,7.1,7.7,6,16.5-2.6,22.4-6.2,4.2-13.4,7.5-20.6,9.7-8.3,2.5-12.9-1.1-14.8-9.6-.8-3.4-1.4-6.9-1.9-10.3-.4-2.8-.5-5.6-.8-8.5Z"/>
        <path class="cls-2" d="M120.2,266.5c0-13-.8-24.3.2-35.3,1.4-14.5,19.8-26.2,31-26.4,6.2,0,11.3,2.4,16.3,6.9-2.5,1.8-4.6,3.6-6.9,5-8.3,5.1-13.1,12.7-13.4,22.2-.3,7.4-3.5,12.5-9,16.4-5.4,3.8-11.2,6.9-18.2,11.1Z"/>
        <path class="cls-2" d="M358.9,265.3c-11-3.4-18.7-9.4-24.7-17.7-1.1-1.5-1.4-3.8-1.4-5.7-.4-11.7-5.5-20.4-15.6-26.3-1.7-1-3.2-2.3-5-3.7,7.1-6.6,14.9-9,23.4-5.7,12.6,4.9,24.7,16.4,23.5,33.2-.6,8.3-.1,16.7-.1,26Z"/>
        <path class="cls-2" d="M281.4,266.1c-.7-1.8-2.4-3.7-2-5.2,3.5-14.3,7.3-28.5,11.1-42.7,1.2-4.3,3.8-6.1,8.3-4,7.9,3.7,15.8,7.2,23.7,10.8,3,1.4,4,3.2,2.2,6.3-1.6,2.9-2.8,6.1-4.3,9-3.3,6.3-7.6,11.6-14.4,14.7-5.9,2.7-11.6,5.9-17.5,8.7-1.8.9-3.8,1.2-7.1,2.3Z"/>
        <path class="cls-2" d="M195.8,265.5c-2.1-.7-5.2-1.4-8-2.7-4.4-2-8.6-4.4-12.9-6.6-11-5.5-16-15.7-20.1-26.4-.4-1,.8-3.6,1.9-4.2,8-4.1,16.2-7.9,24.3-11.7,3.1-1.5,5.5-.5,6.8,2.8.4,1.1.9,2.2,1.2,3.3,3.8,13.3,7.6,26.5,11.4,39.8.9,3.3.7,5.7-4.6,5.7Z"/>
        <path class="cls-2" d="M122.8,359.4c.4-6.2.4-12.5,1.1-18.6,1.2-10.1,2.9-20.1,4.3-30.2.7-5.3,3.2-9.3,7.5-12.4,3.7-2.8,7.1-6.1,10.6-9.1,1.5-1.2,3.1-2.2,5.3-3.8,2,6.9,1.9,12.9,0,18.9-1.8,5.7-3.6,11.4-5.5,17.1-.5,1.6-.9,3.5-2,4.6-6,5.9-7.1,14.1-10.1,21.3-2,4.7-5.6,8.8-8.5,13.1-1-.3-1.9-.6-2.9-.9Z"/>
        <path class="cls-2" d="M77.5,465.7c6-17.7,8-36.3,10.8-54.6,2.5-16.3,4.5-32.7,7.8-49.5,1.5,3.7,3.5,7.2,4.5,11.1,5.2,20.3,6,40.3-4,59.6-5.1,9.9-9.9,20.1-14.9,30.1-.8,1.5-2,2.8-3,4.1-.4-.2-.8-.5-1.1-.7Z"/>
        <path class="cls-2" d="M400.4,465.8c-1.8-3-3.9-6-5.4-9.2-5.1-10.9-10.5-21.7-14.9-32.8-8.3-20.7-4.9-41,3.1-60.9.2-.5.5-.9,1-1.9,5.5,35.5,10.9,70,16.3,104.9Z"/>
        <path class="cls-2" d="M313.5,623.7c.4-6.4,1.2-12.9,1-19.3-.4-11.9-1.5-23.7-2.3-35.5-1.5-21,1-41.4,9.1-60.9.4-1.1,1-2.1,1.6-3.1.2-.4.7-.6,1.2-.9,5.3,10.5-2.4,105.6-10.5,119.7Z"/>
        <path class="cls-2" d="M165.9,624.5c-7.5-13.5-15.3-106.2-10.1-121.2,1.1,2,2.1,3.5,2.8,5,8.4,20,10.6,41,8.9,62.5-1.3,17-3.7,34-1.3,51,0,.7-.2,1.5-.4,2.7Z"/>
        <path class="cls-2" d="M328.4,284.7c9.7,9.9,23.2,15.1,22.6,31.7-.3,6.5,2.1,13.1,3,19.8.8,6.1,1.3,12.3,1.7,18.4.1,1.7-.5,3.4-.9,6-6.2-5.5-10.4-10.8-11.5-18.5-.6-4.1-2.8-8-4.6-11.9-1.9-4.4-4.3-8.5-6.2-12.9-1.4-3.4-2.2-7-3.5-10.4-2.5-6.8-3.4-13.6-.6-22.2Z"/>
        <path class="cls-2" d="M281.9,191.1c-2.2.3-4.5.8-6.7.9-8.5,0-17,0-25.5-.1-3.4,0-5.3-1.6-5.4-5.1-.2-13.4-.4-26.7-.6-40.1,0-5.2,3.6-5.4,7.2-5.4,3.7,0,6.9.4,7.2,5.5.4,6.5,1.1,13,2.2,19.3,1.7,9.4,6.4,16.7,15.9,20.2,2.2.8,4,2.4,6,3.6-.1.4-.2.8-.4,1.3Z"/>
        <path class="cls-2" d="M197.3,189.7c3.5-2,6.9-4.2,10.6-5.9,4.4-2,7.7-5.1,8.8-9.7,2-8.7,4-17.5,5-26.3.5-4.7,2.2-6.6,6.7-6.6,5.3,0,6.9,1.4,6.9,6.8-.2,12.7-.5,25.3-.7,38,0,3.9-1.6,5.9-5.6,5.8-10.3,0-20.6,0-30.9,0-.2-.7-.4-1.4-.7-2.1Z"/>
        <path class="cls-2" d="M295.7,883.1c-.6-5.4-2-10.7-1.8-16.1.9-21.4,2.2-42.7,3.5-64.1.4-6,3.8-8.8,9.1-8.1,4.6.6,7.3,3.8,5.7,8-9.7,24.2-8.3,50.3-13.8,75.2-.4,1.7-.8,3.4-1.2,5.1-.5,0-1.1,0-1.6,0Z"/>
        <path class="cls-2" d="M145.7,253.7c1.6,9.5,3.1,17.7,4.2,25.9.2,1.4-1,3.5-2.2,4.5-2.3,2.1-5.2,3.7-7.6,5.7-3.9,3.3-7.6,6.8-11.4,10.1-1.1.9-2.4,1.6-3.6,2.4-.8-1.3-2.1-2.5-2.5-4-3.9-16,.9-28.5,14.4-37.9,2.7-1.9,5.2-4.1,8.7-6.8Z"/>
        <path class="cls-2" d="M181.2,883.1c-1.1-6.2-2.2-12.3-3.1-18.5-2.1-15.1-4-30.2-6.3-45.2-.8-5.1-2.5-10-4-15-1.4-4.9-.2-8.2,3.7-9.4,4.5-1.4,9,1.3,9.5,6.2,1.1,10.8,2.2,21.6,2.6,32.5.5,14.3.4,28.7.4,43,0,2.1-.8,4.2-1.2,6.3-.5,0-1,0-1.6,0Z"/>
        <path class="cls-2" d="M189.9,881.4c-.2-.9-.6-1.8-.6-2.7-.6-24.9-1.1-49.7-1.6-74.6,0-3.7,0-7.7,5.5-7.5,4.9.2,7.9,3,7.9,8.3,0,19.1-3.1,37.8-7.7,56.4-1.6,6.5-1.9,13.4-2.8,20.2-.2,0-.4,0-.7,0Z"/>
        <path class="cls-2" d="M334,254.5c17.9,9.2,25.9,24.7,22.4,42.8-.3,1.8-1.7,3.3-2.6,5-1.5-1-3-1.9-4.3-3-4.9-4.3-9.3-9.1-14.6-12.8-4.3-3.1-5.8-6.1-4.5-11.3,1.6-6.6,2.4-13.4,3.7-20.7Z"/>
        <path class="cls-2" d="M288.2,881.1c-1.2-8.9-2.5-17.8-3.6-26.7-2-15.9-4-31.8-6-47.6-.2-1.5-.2-3.1.1-4.5,1-4,3.8-5.7,7.7-5.7,4.1,0,4.4,3.2,4.5,5.9,0,16,.2,32.1-.1,48.1-.2,10.2-1,20.3-1.5,30.5-.4,0-.7,0-1.1,0Z"/>
        <path class="cls-2" d="M166.3,452.1c.2-1.5.1-3.2.7-4.6,3.3-7.5,6.5-15,10.2-22.2,2.6-5.1,7.4-7.4,13-6.6,6.6.9,13.1,2.3,19.6,3.8,2,.5,3.8,2.2,5.6,4.3-19,3.5-33.3,15.3-48.1,26.1-.3-.3-.7-.5-1-.8Z"/>
        <path class="cls-2" d="M313.7,453.6c-17.1-9.8-29.9-23.9-49.3-25.9,0-.5,0-1,0-1.5,1.6-1.2,3.1-2.7,4.9-3.4,2.7-1.2,5.7-2,8.6-2.6,16.6-3.9,20.7-2,28.4,13,2.3,4.5,4.4,9.2,6.4,14,.7,1.6.6,3.4,1.1,6.5Z"/>
        <path class="cls-2" d="M284.8,267.2c1.9-.5,3.7-1.1,5.6-1.6,14.1-3.8,26.4-10.1,33.7-23.7.6-1.1,2.1-1.7,3.2-2.5.8,1.6,2.2,3.1,2.3,4.7,1.6,23.5-14.3,34-33.3,30.1-4.2-.8-8.1-3-12.1-4.6.2-.8.4-1.6.6-2.3Z"/>
        <path class="cls-2" d="M195.1,267.8c-12.3,12.7-36.7,8.1-42.6-8-1.8-5-1.9-10.8-2.3-16.2,0-1.4,1.7-2.9,2.6-4.3,1.1,1.1,2.6,2,3.3,3.3,7,12.5,18,19.3,31.5,22.9,2.1.6,4.2,1,6.3,1.6.4.1.8.5,1.2.8Z"/>
        <path class="cls-2" d="M308,423.4c-7-5.2-13-10-19.4-14.4-3.6-2.5-4.7-5.1-2.2-8.7,3.3-4.8,6.7-9.5,10.2-14.2,2.7-3.6,6-3.2,8.3,0,2.2,3,4.6,6.6,4.9,10.1.6,8.1,0,16.3-.4,24.4,0,1.2-1.2,2.4-1.4,2.8Z"/>
        <path class="cls-2" d="M171,423.3c-2-11.2-3.6-23.1,1.1-34.6,2.5-6.3,7.1-6.6,11.2-1.3,3.8,4.9,7.2,10,10.5,15.2.5.8-.1,2.7-.7,3.9-.5.9-1.7,1.5-2.6,2.2-6.4,4.8-12.8,9.6-19.5,14.6Z"/>
        <path class="cls-2" d="M349.8,374.2c6.3-1.2,9.7.6,12.3,7.1,4,10.2,7.8,20.5,11.7,30.8,6.2,16.3,12.3,32.7,18,47.8-5-4-41.5-77.3-42-85.7Z"/>
        <path class="cls-2" d="M362.3,294.1c1.9,5.4,3.7,9.5,4.7,13.7,2.7,11.9,4.7,23.9,2.9,36.2-.2,1.3-.6,2.6-1.3,3.8-1.4,2.7-3.5,3-4.6,0-3.5-9.9-7.7-19.7-9.7-30-1.7-8.3,4.2-15.3,8-23.9Z"/>
        <path class="cls-2" d="M199.6,872.2c-.7,9.1-1.3,18.2-2.1,27.2-.3,3.5-2.6,5.2-6.2,5.2-3.3,0-6.7.4-10,.5-6.9.2-8.1-.9-8.5-7.9-.5-9.2-.8-18.3-1.1-27.5,0-.9.3-1.8,1.6-3.1,1.1,2.3,2.4,4.5,3.1,6.8.8,2.7,1.1,5.6,1.7,8.3.8,4.3,2.1,8.2,7.6,8.2,4.5,0,8.6-3.6,9.7-8.6.7-3.2,1.3-6.3,2-9.5.7,0,1.5.2,2.2.3Z"/>
        <path class="cls-2" d="M87.3,460.3c0-.4,0-1,.1-1.3,12.3-23.3,18.8-48.9,27.7-73.5,1.1-3,2.3-6,4.1-8.5,2.3-3.3,5.9-4,10.8-2.9-11.1,30.6-27.7,58-41.3,86.8l-1.4-.6Z"/>
        <path class="cls-2" d="M306.1,866.2c.7,1.2,1.1,1.6,1.1,2-.4,10.3-.8,20.7-1.3,31-.2,4.3-2.5,6.3-6.8,6-2.3-.2-4.7-.2-7-.3-8.8-.5-9.7-.9-10.3-9.8-.5-7.6-.1-15.3-.1-23.8.8,2,1.7,3.6,2.1,5.3.7,2.7.9,5.6,1.8,8.3,1.3,3.7,4.3,5.3,8.2,5.2,4.1-.2,5.9-2.7,6.6-6.3.8-3.9,1.4-7.9,2.5-11.8.5-1.9,2-3.5,3.3-5.7Z"/>
        <path class="cls-1" d="M257.9,585.6c-.9-3.3-2-6.6-2.8-10-2.5-10.5-5-21-7.4-31.5-.4-1.9-.3-4-.4-6-.1-3.3,1.4-5.1,4.8-4.9,6.1.3,12.1.8,19.2,1.2-10.8,16.2-15.8,32.7-12,51.2h-1.4Z"/>
        <path class="cls-2" d="M116.9,295.5c6.3,10.6,10.7,21.3,4.8,33.9-3,6.4-5,13.4-7.5,20.1l-1.6.4c-1-2.1-2.6-4.2-2.7-6.4-.4-5.5-.8-11.1,0-16.5,1.4-10.7,3.4-21.2,5.2-31.8l1.9.3Z"/>
        <path class="cls-1" d="M221.9,585.9c-.5-8.5,0-17.6-1.9-26.1-1.9-8.4-6.2-16.3-9.9-25.4,5.6-.4,11.7-1.1,17.9-1,3.9,0,3.9,3.7,3.5,6.5-1.4,9.2-2.8,18.5-4.6,27.6-1.3,6.4-3.4,12.7-5,18.4Z"/>
        <path class="cls-2" d="M89.4,369c.2,1.9.7,3.8.5,5.6-2.4,19.7-4.1,39.5-7.6,59.1-1.6,9.1-6.7,17.5-10.4,26.2-.8,1.8-2.5,3.3-3.3,4.2,6.6-31.3,13.3-63.2,19.9-95,.3,0,.6,0,.9-.1Z"/>
        <path class="cls-2" d="M392.1,369.1c6.3,31.7,9.1,64,19.6,94.8-.3.2-.7.5-1,.7-1.7-2.4-4.1-4.5-5-7.2-3.2-8.6-7-17.1-8.6-26-3.1-18.2-4.9-36.7-7.1-55.1-.3-2.4.2-5,.4-7.5.6,0,1.2.1,1.8.2Z"/>
        <path class="cls-2" d="M153.3,909.2c2.7-1,4-1.9,5.3-1.8,11.3.2,22.6.6,33.9.9,3.7,0,5.2,2.2,6.1,5.4,1.1,3.8-.4,6.4-4.2,5.9-10.9-1.4-21.7-3.1-32.4-5.2-2.7-.5-4.9-2.9-8.7-5.2Z"/>
        <path class="cls-2" d="M327.5,909.8c-4.9,2.4-8.2,4.9-11.9,5.6-9.1,1.8-18.4,2.9-27.6,4.1-2.6.3-5.6.6-6.4-3.1-.7-3.3,2.3-7.9,5.6-8.1,11.8-.5,23.6-.8,35.4-1,1.1,0,2.2,1,4.8,2.4Z"/>
        <path class="cls-2" d="M274,682.8c-.7-2.9-1.6-5.7-2-8.6-1.3-9.1-2.2-18.2-3.6-27.3-1.9-12.5-3.7-25-6.1-37.5-1.5-7.6-3.1-15-.8-22.5,10.4,30.9,12.6,63.2,12.4,95.9Z"/>
        <path class="cls-2" d="M218.9,586.7c0,5.1,1.2,10.5-.2,15.1-6.4,21.5-6.9,43.9-9.8,65.9-.7,5.4-2.1,10.7-3.5,15.9.6-32.7,2.1-65.3,13.5-96.9Z"/>
        <path class="cls-2" d="M373.9,349.6c1.9,15.2,0,31.3-4.1,35.7-10.3-6.5-11.3-20.8-2-28.9,2.2-1.9,3.9-4.3,6.1-6.8Z"/>
        <path class="cls-2" d="M440.5,552.5c-4.3.9-6-1.7-7.2-4.4-2-4.4-3.5-9-5.6-13.4-2.4-5.1-5.3-9.9-7.6-15-.6-1.3.4-4.7.7-4.7,2.5,0,6.8-.2,7.3,1,4.5,11.3,8.4,22.8,12.4,34.2.2.6,0,1.3,0,2.3Z"/>
        <path class="cls-2" d="M109.6,386c-6.7-11.5-1.1-23.8-4.7-35.6,13.9,6.9,16.4,25.6,4.7,35.6Z"/>
        <path class="cls-2" d="M39.1,552c.6-2.5,1-5.1,1.9-7.5,3.2-9.1,6.8-18.1,9.9-27.3,1.4-4,3.9-3.5,6.7-2.6,3.7,1.2,1.9,3.5,1,5.6-4,9.2-7.8,18.5-12,27.6-1.1,2.3-3.5,3.9-5.4,5.9-.7-.5-1.4-1-2.1-1.6Z"/>
        <path class="cls-2" d="M27.1,540.1c.6-2.4.9-5.1,2-7.3,3.9-7.7,8-15.3,12.3-22.9.8-1.5,2.7-3.3,4.2-3.3,1.7,0,4.2,1.5,4.7,2.9.5,1.3-.9,3.6-1.9,5.1-5.2,7.4-10.4,14.6-15.8,21.9-1.1,1.5-2.5,2.9-3.8,4.3-.6-.3-1.2-.5-1.7-.8Z"/>
        <path class="cls-2" d="M449.9,541.8c-.6-1.4-1.1-2.9-1.9-4.1-5.9-8.2-12.1-16.3-17.8-24.7-.7-1.1,0-4.2,1.1-5.2,1.7-1.6,4.5-2.9,6.3.4,4.7,8.6,9.4,17.3,13.9,26,.9,1.7.6,3.9.8,5.9-.8.5-1.5,1-2.3,1.6Z"/>
        <path class="cls-2" d="M57.6,550.7c1.7-10.6,3.1-20.4,4.9-30,.2-1.2,2.4-2.8,3.9-2.9,2.9-.3,2.8,1.9,2.3,4.1-1.9,9.5-3.7,19-5.8,28.4-.3,1.5-2.4,2.6-3.6,3.9-.6-1.4-1.3-2.8-1.6-3.5Z"/>
        <path class="cls-2" d="M418.8,554.7c-.9-1.5-2.4-2.8-2.7-4.4-2.1-9.5-4.1-19-5.8-28.5-.2-1.2,1.3-2.8,1.9-4.1,1.4.7,3.9,1.3,4,2.2,1.8,10.5,3.2,21.1,4.7,31.7.1.7-.3,1.6-.5,2.4-.5.3-1,.5-1.6.8Z"/>
        <path class="cls-2" d="M437.2,480.2c2.9,3.6,5.7,7.3,8.8,10.7,2.6,2.9,5.6,5.5,8.5,8.1,1,.9,2.6,1.3,3.2,2.3.8,1.3,1.2,3.2.9,4.6-.2.7-2.5,1.4-3.8,1.1-6.5-1.2-10.6-5.8-13.4-11.1-2.4-4.6-3.7-9.9-5.5-14.9.4-.3.9-.6,1.3-.9Z"/>
        <path class="cls-2" d="M43.2,480.7c-1.9,9-3.7,18-11.9,23.4-2.4,1.6-5.4,2.3-8.2,3.1-.8.2-2.6-.6-2.8-1.4-.4-1.1-.2-3.5.4-3.7,10.7-3.9,14.4-14.9,22.5-21.5Z"/>
        <path class="cls-2" d="M81.4,516.3c0,7,0,13.4,0,19.7,0,1.5-.2,3.1-.8,4.4-.6,1.2-1.8,2.1-2.7,3.2-.7-1.1-2-2.3-2.1-3.5-.4-6.6-.5-13.3-.6-19.9,0-4.6,3.7-3,6.2-3.8Z"/>
        <path class="cls-2" d="M400.6,543.4c-4-8.5-1.5-17.9-3-26.8,4.4-.5,6.3.8,6.1,4.8-.3,5.8-.3,11.6-.6,17.4,0,1.5-.6,3-1,4.6-.5,0-1,0-1.5,0Z"/>
      </g>
    </g>
  </g>
</svg>